<mxfile host="app.diagrams.net" modified="2024-05-04T23:13:52.674Z" agent="Mozilla/5.0 (Windows NT 10.0; Win64; x64) AppleWebKit/537.36 (KHTML, like Gecko) Chrome/124.0.0.0 Safari/537.36 Edg/124.0.0.0" etag="2B755wriWXZCJ7_aF1M-" version="24.3.1" type="github">
  <diagram name="Page-1" id="c4acf3e9-155e-7222-9cf6-157b1a14988f">
    <mxGraphModel dx="4047" dy="2379" grid="0" gridSize="10" guides="1" tooltips="1" connect="1" arrows="1" fold="1" page="0" pageScale="1" pageWidth="1169" pageHeight="827" background="none" math="0" shadow="0">
      <root>
        <mxCell id="0" />
        <mxCell id="1" parent="0" />
        <mxCell id="XL4-3dp0tsTEwj-AfAvo-24" value="&lt;p style=&quot;margin:0px;margin-top:4px;text-align:center;text-decoration:underline;&quot;&gt;&lt;b&gt;H3&lt;/b&gt;&lt;/p&gt;&lt;hr&gt;&lt;p style=&quot;margin:0px;margin-left:8px;&quot;&gt;&lt;span style=&quot;background-color: initial;&quot;&gt;name = H3&lt;/span&gt;&lt;/p&gt;&lt;p style=&quot;margin:0px;margin-left:8px;&quot;&gt;&lt;span style=&quot;background-color: initial;&quot;&gt;area = Utrecht&lt;/span&gt;&lt;/p&gt;&lt;p style=&quot;margin:0px;margin-left:8px;&quot;&gt;adaptation = heat stress&lt;/p&gt;&lt;p style=&quot;margin:0px;margin-left:8px;&quot;&gt;properties = geomechanics&lt;/p&gt;&lt;p style=&quot;margin:0px;margin-left:8px;&quot;&gt;&lt;span style=&quot;background-color: initial;&quot;&gt;&lt;br&gt;&lt;/span&gt;&lt;/p&gt;" style="verticalAlign=top;align=left;overflow=fill;fontSize=12;fontFamily=Helvetica;html=1;whiteSpace=wrap;" parent="1" vertex="1">
          <mxGeometry x="-10" y="345.5" width="207" height="123" as="geometry" />
        </mxCell>
        <mxCell id="0FXop1k1lJmk01pZkUKz-20" value="&lt;p style=&quot;margin:0px;margin-top:4px;text-align:center;&quot;&gt;&lt;b&gt;Design Intervention&lt;/b&gt;&lt;/p&gt;&lt;hr size=&quot;1&quot;&gt;&lt;p style=&quot;margin:0px;margin-left:4px;&quot;&gt;+ name: str&lt;/p&gt;&lt;hr size=&quot;1&quot;&gt;&lt;p style=&quot;margin:0px;margin-left:4px;&quot;&gt;+ fk_adaptation: str&lt;/p&gt;&lt;p style=&quot;margin:0px;margin-left:4px;&quot;&gt;+ source = str&lt;/p&gt;&lt;p style=&quot;margin:0px;margin-left:4px;&quot;&gt;&lt;br&gt;&lt;/p&gt;&lt;p style=&quot;margin:0px;margin-left:4px;&quot;&gt;+ designStreet = bool&lt;/p&gt;&lt;p style=&quot;margin:0px;margin-left:4px;&quot;&gt;+ designBuilding = bool&lt;br&gt;&lt;/p&gt;&lt;p style=&quot;margin: 0px 0px 0px 4px;&quot;&gt;+ designSquare = bool&lt;br&gt;&lt;/p&gt;&lt;div&gt;&lt;br&gt;&lt;/div&gt;&lt;p style=&quot;margin:0px;margin-left:4px;&quot;&gt;+ fk_subsurfaceprop = str&lt;/p&gt;&lt;p style=&quot;margin:0px;margin-left:4px;&quot;&gt;+ fk_localstandard = str&lt;/p&gt;&lt;p style=&quot;margin:0px;margin-left:4px;&quot;&gt;+ fk_nationalstandard = str&lt;br&gt;&lt;/p&gt;&lt;p style=&quot;margin:0px;margin-left:4px;&quot;&gt;&lt;br&gt;&lt;/p&gt;" style="verticalAlign=top;align=left;overflow=fill;fontSize=12;fontFamily=Helvetica;html=1;whiteSpace=wrap;fillColor=#f5f5f5;strokeColor=#666666;fontColor=#333333;" parent="1" vertex="1">
          <mxGeometry x="-444" y="-1226.5" width="230" height="220" as="geometry" />
        </mxCell>
        <mxCell id="0FXop1k1lJmk01pZkUKz-21" value="&lt;p style=&quot;margin:0px;margin-top:4px;text-align:center;&quot;&gt;&lt;b&gt;Subsurface Properties&lt;/b&gt;&lt;/p&gt;&lt;hr size=&quot;1&quot;&gt;&lt;p style=&quot;margin:0px;margin-left:4px;&quot;&gt;+ subsurfpropname: str&lt;/p&gt;" style="verticalAlign=top;align=left;overflow=fill;fontSize=12;fontFamily=Helvetica;html=1;whiteSpace=wrap;fillColor=#f5f5f5;strokeColor=#666666;fontColor=#333333;" parent="1" vertex="1">
          <mxGeometry x="2976" y="-1147" width="160" height="61" as="geometry" />
        </mxCell>
        <mxCell id="0FXop1k1lJmk01pZkUKz-29" value="&lt;p style=&quot;margin:0px;margin-top:4px;text-align:center;&quot;&gt;&lt;b&gt;Soil Type&lt;/b&gt;&lt;/p&gt;&lt;hr size=&quot;1&quot;&gt;&lt;p style=&quot;margin:0px;margin-left:4px;&quot;&gt;&lt;br&gt;&lt;/p&gt;" style="verticalAlign=top;align=left;overflow=fill;fontSize=12;fontFamily=Helvetica;html=1;whiteSpace=wrap;fillColor=#f5f5f5;strokeColor=#666666;fontColor=#333333;" parent="1" vertex="1">
          <mxGeometry x="2701" y="-1006.5" width="160" height="61" as="geometry" />
        </mxCell>
        <mxCell id="0FXop1k1lJmk01pZkUKz-33" value="" style="endArrow=block;endSize=16;endFill=0;html=1;rounded=0;exitX=0.5;exitY=0;exitDx=0;exitDy=0;entryX=0.5;entryY=1;entryDx=0;entryDy=0;edgeStyle=orthogonalEdgeStyle;" parent="1" source="0FXop1k1lJmk01pZkUKz-29" target="0FXop1k1lJmk01pZkUKz-21" edge="1">
          <mxGeometry width="160" relative="1" as="geometry">
            <mxPoint x="2781" y="-1045.5" as="sourcePoint" />
            <mxPoint x="2876.4700000000003" y="-1153" as="targetPoint" />
          </mxGeometry>
        </mxCell>
        <mxCell id="0FXop1k1lJmk01pZkUKz-34" value="&lt;p style=&quot;margin:0px;margin-top:4px;text-align:center;&quot;&gt;&lt;b&gt;Ground Water Level&lt;/b&gt;&lt;/p&gt;&lt;hr size=&quot;1&quot;&gt;&lt;p style=&quot;margin:0px;margin-left:4px;&quot;&gt;&lt;br&gt;&lt;/p&gt;" style="verticalAlign=top;align=left;overflow=fill;fontSize=12;fontFamily=Helvetica;html=1;whiteSpace=wrap;fillColor=#f5f5f5;strokeColor=#666666;fontColor=#333333;" parent="1" vertex="1">
          <mxGeometry x="2880" y="-1006.5" width="160" height="61" as="geometry" />
        </mxCell>
        <mxCell id="0FXop1k1lJmk01pZkUKz-40" value="" style="endArrow=block;endSize=16;endFill=0;html=1;rounded=0;exitX=0.5;exitY=0;exitDx=0;exitDy=0;edgeStyle=orthogonalEdgeStyle;entryX=0.5;entryY=1;entryDx=0;entryDy=0;" parent="1" source="0FXop1k1lJmk01pZkUKz-34" target="0FXop1k1lJmk01pZkUKz-21" edge="1">
          <mxGeometry width="160" relative="1" as="geometry">
            <mxPoint x="2959.999999999999" y="-1045.5" as="sourcePoint" />
            <mxPoint x="2951" y="-1136" as="targetPoint" />
          </mxGeometry>
        </mxCell>
        <mxCell id="0FXop1k1lJmk01pZkUKz-41" value="&lt;p style=&quot;margin:0px;margin-top:4px;text-align:center;&quot;&gt;&lt;b&gt;3D Key Register&lt;/b&gt;&lt;/p&gt;&lt;hr size=&quot;1&quot;&gt;&lt;p style=&quot;margin:0px;margin-left:4px;&quot;&gt;+ name: str&lt;/p&gt;&lt;hr size=&quot;1&quot;&gt;&lt;p style=&quot;margin:0px;margin-left:4px;&quot;&gt;+ scale: str&lt;/p&gt;" style="verticalAlign=top;align=left;overflow=fill;fontSize=12;fontFamily=Helvetica;html=1;whiteSpace=wrap;fillColor=#f5f5f5;strokeColor=#666666;fontColor=#333333;" parent="1" vertex="1">
          <mxGeometry x="3069" y="119" width="160" height="90" as="geometry" />
        </mxCell>
        <mxCell id="0FXop1k1lJmk01pZkUKz-42" value="&lt;p style=&quot;margin:0px;margin-top:4px;text-align:center;text-decoration:underline;&quot;&gt;&lt;b&gt;3D BRO GeoTop&lt;/b&gt;&lt;/p&gt;&lt;hr&gt;&lt;p style=&quot;margin:0px;margin-left:8px;&quot;&gt;name = geotop&lt;/p&gt;" style="verticalAlign=top;align=left;overflow=fill;fontSize=12;fontFamily=Helvetica;html=1;whiteSpace=wrap;" parent="1" vertex="1">
          <mxGeometry x="2797" y="-213" width="160" height="90" as="geometry" />
        </mxCell>
        <mxCell id="0FXop1k1lJmk01pZkUKz-44" value="" style="endArrow=block;endSize=16;endFill=0;html=1;rounded=0;exitX=0.5;exitY=1;exitDx=0;exitDy=0;entryX=0.5;entryY=0;entryDx=0;entryDy=0;edgeStyle=orthogonalEdgeStyle;" parent="1" source="0FXop1k1lJmk01pZkUKz-42" target="0FXop1k1lJmk01pZkUKz-41" edge="1">
          <mxGeometry width="160" relative="1" as="geometry">
            <mxPoint x="2877" y="-17" as="sourcePoint" />
            <mxPoint x="2982" y="80" as="targetPoint" />
            <Array as="points">
              <mxPoint x="2877" y="39" />
              <mxPoint x="3149" y="39" />
            </Array>
          </mxGeometry>
        </mxCell>
        <mxCell id="XrivS-1WhvhdIYvPr3YK-8" value="&lt;p style=&quot;margin:0px;margin-top:4px;text-align:center;text-decoration:underline;&quot;&gt;&lt;b&gt;REGIS II&lt;/b&gt;&lt;/p&gt;&lt;hr&gt;&lt;p style=&quot;margin:0px;margin-left:8px;&quot;&gt;name = regisII&lt;/p&gt;" style="verticalAlign=top;align=left;overflow=fill;fontSize=12;fontFamily=Helvetica;html=1;whiteSpace=wrap;" parent="1" vertex="1">
          <mxGeometry x="2976" y="-213" width="160" height="90" as="geometry" />
        </mxCell>
        <mxCell id="XrivS-1WhvhdIYvPr3YK-11" value="" style="endArrow=block;endSize=16;endFill=0;html=1;rounded=0;exitX=0.5;exitY=0;exitDx=0;exitDy=0;edgeStyle=orthogonalEdgeStyle;" parent="1" source="XrivS-1WhvhdIYvPr3YK-13" target="0FXop1k1lJmk01pZkUKz-21" edge="1">
          <mxGeometry width="160" relative="1" as="geometry">
            <mxPoint x="3318" y="-1045.5" as="sourcePoint" />
            <mxPoint x="2944" y="-1136" as="targetPoint" />
          </mxGeometry>
        </mxCell>
        <mxCell id="XrivS-1WhvhdIYvPr3YK-13" value="&lt;p style=&quot;margin:0px;margin-top:4px;text-align:center;&quot;&gt;&lt;b&gt;Subsurface Congestion&lt;/b&gt;&lt;/p&gt;&lt;hr size=&quot;1&quot;&gt;&lt;p style=&quot;margin:0px;margin-left:4px;&quot;&gt;&lt;br&gt;&lt;/p&gt;" style="verticalAlign=top;align=left;overflow=fill;fontSize=12;fontFamily=Helvetica;html=1;whiteSpace=wrap;fillColor=#f5f5f5;strokeColor=#666666;fontColor=#333333;" parent="1" vertex="1">
          <mxGeometry x="3059" y="-1006.5" width="160" height="61" as="geometry" />
        </mxCell>
        <mxCell id="XrivS-1WhvhdIYvPr3YK-17" value="" style="endArrow=block;endSize=16;endFill=0;html=1;rounded=0;exitX=0.5;exitY=1;exitDx=0;exitDy=0;edgeStyle=orthogonalEdgeStyle;entryX=0.5;entryY=0;entryDx=0;entryDy=0;" parent="1" source="XrivS-1WhvhdIYvPr3YK-8" target="0FXop1k1lJmk01pZkUKz-41" edge="1">
          <mxGeometry width="160" relative="1" as="geometry">
            <mxPoint x="3056" y="-17" as="sourcePoint" />
            <mxPoint x="3107" y="60" as="targetPoint" />
            <Array as="points">
              <mxPoint x="3056" y="40" />
              <mxPoint x="3148" y="40" />
              <mxPoint x="3148" y="119" />
            </Array>
          </mxGeometry>
        </mxCell>
        <mxCell id="XrivS-1WhvhdIYvPr3YK-110" value="" style="endArrow=open;endSize=12;dashed=1;html=1;rounded=0;edgeStyle=orthogonalEdgeStyle;exitX=0.75;exitY=0;exitDx=0;exitDy=0;entryX=0.5;entryY=1;entryDx=0;entryDy=0;" parent="1" source="sMXC-b68p0n0nWKsfzfZ-9" target="XrivS-1WhvhdIYvPr3YK-13" edge="1">
          <mxGeometry width="160" relative="1" as="geometry">
            <mxPoint x="-2885" y="-687.5" as="sourcePoint" />
            <mxPoint x="3136" y="-926" as="targetPoint" />
            <Array as="points">
              <mxPoint x="-2825" y="-717" />
              <mxPoint x="-2825" y="-775" />
              <mxPoint x="3139" y="-775" />
            </Array>
          </mxGeometry>
        </mxCell>
        <mxCell id="XrivS-1WhvhdIYvPr3YK-121" value="&lt;p style=&quot;margin:0px;margin-top:4px;text-align:center;text-decoration:underline;&quot;&gt;&lt;b&gt;Ground Water (Pop Up)&lt;/b&gt;&lt;/p&gt;&lt;hr&gt;&lt;p style=&quot;margin:0px;margin-left:8px;&quot;&gt;name = groundWater&lt;/p&gt;" style="verticalAlign=top;align=left;overflow=fill;fontSize=12;fontFamily=Helvetica;html=1;whiteSpace=wrap;" parent="1" vertex="1">
          <mxGeometry x="3155" y="-216" width="160" height="90" as="geometry" />
        </mxCell>
        <mxCell id="XrivS-1WhvhdIYvPr3YK-124" value="&lt;p style=&quot;margin:0px;margin-top:4px;text-align:center;text-decoration:underline;&quot;&gt;&lt;b&gt;Geotechnical CPT (Pop Up)&lt;/b&gt;&lt;/p&gt;&lt;hr&gt;&lt;p style=&quot;margin:0px;margin-left:8px;&quot;&gt;name = geotechnicalcpt&lt;/p&gt;" style="verticalAlign=top;align=left;overflow=fill;fontSize=12;fontFamily=Helvetica;html=1;whiteSpace=wrap;" parent="1" vertex="1">
          <mxGeometry x="3334" y="-216" width="160" height="90" as="geometry" />
        </mxCell>
        <mxCell id="XrivS-1WhvhdIYvPr3YK-125" value="" style="endArrow=block;endSize=16;endFill=0;html=1;rounded=0;exitX=0.5;exitY=1;exitDx=0;exitDy=0;entryX=0.5;entryY=0;entryDx=0;entryDy=0;edgeStyle=orthogonalEdgeStyle;" parent="1" source="XrivS-1WhvhdIYvPr3YK-121" target="0FXop1k1lJmk01pZkUKz-41" edge="1">
          <mxGeometry width="160" relative="1" as="geometry">
            <mxPoint x="3235" y="-20" as="sourcePoint" />
            <mxPoint x="3493" y="253" as="targetPoint" />
            <Array as="points">
              <mxPoint x="3235" y="39" />
              <mxPoint x="3149" y="39" />
            </Array>
          </mxGeometry>
        </mxCell>
        <mxCell id="XrivS-1WhvhdIYvPr3YK-127" value="" style="endArrow=block;endSize=16;endFill=0;html=1;rounded=0;exitX=0.5;exitY=1;exitDx=0;exitDy=0;entryX=0.5;entryY=0;entryDx=0;entryDy=0;edgeStyle=orthogonalEdgeStyle;" parent="1" source="XrivS-1WhvhdIYvPr3YK-124" target="0FXop1k1lJmk01pZkUKz-41" edge="1">
          <mxGeometry width="160" relative="1" as="geometry">
            <mxPoint x="3414" y="-20" as="sourcePoint" />
            <mxPoint x="3690" y="151" as="targetPoint" />
            <Array as="points">
              <mxPoint x="3414" y="40" />
              <mxPoint x="3149" y="40" />
            </Array>
          </mxGeometry>
        </mxCell>
        <mxCell id="XrivS-1WhvhdIYvPr3YK-131" value="&lt;p style=&quot;margin:0px;margin-top:4px;text-align:center;&quot;&gt;&lt;b&gt;Standards&lt;/b&gt;&lt;/p&gt;&lt;hr size=&quot;1&quot;&gt;&lt;p style=&quot;margin:0px;margin-left:4px;&quot;&gt;+ type: str&lt;/p&gt;&lt;hr size=&quot;1&quot;&gt;&lt;p style=&quot;margin:0px;margin-left:4px;&quot;&gt;+ name: str&lt;/p&gt;&lt;p style=&quot;margin:0px;margin-left:4px;&quot;&gt;+ organization: str&lt;/p&gt;" style="verticalAlign=top;align=left;overflow=fill;fontSize=12;fontFamily=Helvetica;html=1;whiteSpace=wrap;fillColor=#f5f5f5;strokeColor=#666666;fontColor=#333333;" parent="1" vertex="1">
          <mxGeometry x="-805" y="779" width="160" height="90" as="geometry" />
        </mxCell>
        <mxCell id="XrivS-1WhvhdIYvPr3YK-132" value="&lt;p style=&quot;margin:0px;margin-top:4px;text-align:center;text-decoration:underline;&quot;&gt;&lt;b&gt;I3S&lt;/b&gt;&lt;/p&gt;&lt;hr&gt;&lt;p style=&quot;margin:0px;margin-left:8px;&quot;&gt;type = dataSt&lt;/p&gt;&lt;p style=&quot;margin:0px;margin-left:8px;&quot;&gt;name = 3Dtiles&lt;/p&gt;&lt;p style=&quot;margin:0px;margin-left:8px;&quot;&gt;organization = OGC&lt;/p&gt;" style="verticalAlign=top;align=left;overflow=fill;fontSize=12;fontFamily=Helvetica;html=1;whiteSpace=wrap;" parent="1" vertex="1">
          <mxGeometry x="-561" y="670" width="160" height="90" as="geometry" />
        </mxCell>
        <mxCell id="XrivS-1WhvhdIYvPr3YK-133" value="&lt;p style=&quot;margin:0px;margin-top:4px;text-align:center;text-decoration:underline;&quot;&gt;&lt;b&gt;3D Tiles&lt;/b&gt;&lt;/p&gt;&lt;hr&gt;&lt;p style=&quot;margin:0px;margin-left:8px;&quot;&gt;type = dataSt&lt;/p&gt;&lt;p style=&quot;margin:0px;margin-left:8px;&quot;&gt;name = 3Dtiles&lt;/p&gt;&lt;p style=&quot;margin:0px;margin-left:8px;&quot;&gt;organization = OGC&lt;br&gt;&lt;/p&gt;" style="verticalAlign=top;align=left;overflow=fill;fontSize=12;fontFamily=Helvetica;html=1;whiteSpace=wrap;" parent="1" vertex="1">
          <mxGeometry x="-561" y="779" width="160" height="90" as="geometry" />
        </mxCell>
        <mxCell id="XrivS-1WhvhdIYvPr3YK-135" value="&lt;p style=&quot;margin:0px;margin-top:4px;text-align:center;text-decoration:underline;&quot;&gt;&lt;b&gt;CityGML&lt;/b&gt;&lt;/p&gt;&lt;hr&gt;&lt;p style=&quot;margin:0px;margin-left:8px;&quot;&gt;type = dataSt&lt;/p&gt;&lt;p style=&quot;margin:0px;margin-left:8px;&quot;&gt;name = 3Dtiles&lt;/p&gt;&lt;p style=&quot;margin:0px;margin-left:8px;&quot;&gt;organization = OGC&lt;br&gt;&lt;/p&gt;" style="verticalAlign=top;align=left;overflow=fill;fontSize=12;fontFamily=Helvetica;html=1;whiteSpace=wrap;" parent="1" vertex="1">
          <mxGeometry x="-561" y="888" width="160" height="90" as="geometry" />
        </mxCell>
        <mxCell id="XrivS-1WhvhdIYvPr3YK-139" value="" style="endArrow=block;endSize=16;endFill=0;html=1;rounded=0;exitX=0;exitY=0.5;exitDx=0;exitDy=0;entryX=1;entryY=0.5;entryDx=0;entryDy=0;edgeStyle=orthogonalEdgeStyle;" parent="1" source="XrivS-1WhvhdIYvPr3YK-132" target="XrivS-1WhvhdIYvPr3YK-131" edge="1">
          <mxGeometry width="160" relative="1" as="geometry">
            <mxPoint x="-750" y="910" as="sourcePoint" />
            <mxPoint x="-590" y="910" as="targetPoint" />
          </mxGeometry>
        </mxCell>
        <mxCell id="XrivS-1WhvhdIYvPr3YK-140" value="" style="endArrow=block;endSize=16;endFill=0;html=1;rounded=0;exitX=0;exitY=0.5;exitDx=0;exitDy=0;entryX=1;entryY=0.5;entryDx=0;entryDy=0;" parent="1" source="XrivS-1WhvhdIYvPr3YK-133" target="XrivS-1WhvhdIYvPr3YK-131" edge="1">
          <mxGeometry width="160" relative="1" as="geometry">
            <mxPoint x="-802" y="952" as="sourcePoint" />
            <mxPoint x="-642" y="952" as="targetPoint" />
          </mxGeometry>
        </mxCell>
        <mxCell id="XrivS-1WhvhdIYvPr3YK-141" value="" style="endArrow=block;endSize=16;endFill=0;html=1;rounded=0;exitX=0;exitY=0.5;exitDx=0;exitDy=0;entryX=1;entryY=0.5;entryDx=0;entryDy=0;edgeStyle=orthogonalEdgeStyle;" parent="1" source="XrivS-1WhvhdIYvPr3YK-135" target="XrivS-1WhvhdIYvPr3YK-131" edge="1">
          <mxGeometry width="160" relative="1" as="geometry">
            <mxPoint x="-815" y="991" as="sourcePoint" />
            <mxPoint x="-655" y="991" as="targetPoint" />
            <Array as="points">
              <mxPoint x="-602" y="933" />
              <mxPoint x="-602" y="824" />
            </Array>
          </mxGeometry>
        </mxCell>
        <mxCell id="XrivS-1WhvhdIYvPr3YK-143" value="" style="endArrow=open;endFill=1;endSize=12;html=1;rounded=0;exitX=1;exitY=0.5;exitDx=0;exitDy=0;edgeStyle=orthogonalEdgeStyle;entryX=0.5;entryY=1;entryDx=0;entryDy=0;" parent="1" source="XrivS-1WhvhdIYvPr3YK-133" target="0FXop1k1lJmk01pZkUKz-41" edge="1">
          <mxGeometry width="160" relative="1" as="geometry">
            <mxPoint x="-284" y="433" as="sourcePoint" />
            <mxPoint x="200" y="377" as="targetPoint" />
          </mxGeometry>
        </mxCell>
        <mxCell id="XrivS-1WhvhdIYvPr3YK-145" value="&lt;p style=&quot;margin:0px;margin-top:4px;text-align:center;text-decoration:underline;&quot;&gt;&lt;b&gt;Leidraad 2.0&lt;/b&gt;&lt;/p&gt;&lt;hr&gt;&lt;p style=&quot;margin:0px;margin-left:8px;&quot;&gt;type = designSt&lt;/p&gt;&lt;p style=&quot;margin:0px;margin-left:8px;&quot;&gt;name = leidraad2&lt;/p&gt;&lt;p style=&quot;margin:0px;margin-left:8px;&quot;&gt;organization =&lt;/p&gt;" style="verticalAlign=top;align=left;overflow=fill;fontSize=12;fontFamily=Helvetica;html=1;whiteSpace=wrap;" parent="1" vertex="1">
          <mxGeometry x="-805" y="600" width="160" height="90" as="geometry" />
        </mxCell>
        <mxCell id="XrivS-1WhvhdIYvPr3YK-146" value="&lt;p style=&quot;margin:0px;margin-top:4px;text-align:center;text-decoration:underline;&quot;&gt;&lt;b&gt;CityJSON&lt;/b&gt;&lt;/p&gt;&lt;hr&gt;&lt;p style=&quot;margin:0px;margin-left:8px;&quot;&gt;type = dataSt&lt;/p&gt;&lt;p style=&quot;margin:0px;margin-left:8px;&quot;&gt;&lt;span style=&quot;background-color: initial;&quot;&gt;name = cityjson&lt;/span&gt;&lt;/p&gt;&lt;p style=&quot;margin:0px;margin-left:8px;&quot;&gt;organization = OGC&lt;span style=&quot;background-color: initial;&quot;&gt;&lt;br&gt;&lt;/span&gt;&lt;/p&gt;" style="verticalAlign=top;align=left;overflow=fill;fontSize=12;fontFamily=Helvetica;html=1;whiteSpace=wrap;" parent="1" vertex="1">
          <mxGeometry x="-561" y="997" width="160" height="90" as="geometry" />
        </mxCell>
        <mxCell id="XrivS-1WhvhdIYvPr3YK-147" value="" style="endArrow=block;endSize=16;endFill=0;html=1;rounded=0;entryX=1;entryY=0.5;entryDx=0;entryDy=0;exitX=0;exitY=0.5;exitDx=0;exitDy=0;edgeStyle=orthogonalEdgeStyle;" parent="1" source="XrivS-1WhvhdIYvPr3YK-146" target="XrivS-1WhvhdIYvPr3YK-131" edge="1">
          <mxGeometry width="160" relative="1" as="geometry">
            <mxPoint x="-820" y="1086" as="sourcePoint" />
            <mxPoint x="-660" y="1086" as="targetPoint" />
            <Array as="points">
              <mxPoint x="-602" y="1042" />
              <mxPoint x="-602" y="824" />
            </Array>
          </mxGeometry>
        </mxCell>
        <mxCell id="XrivS-1WhvhdIYvPr3YK-153" value="" style="endArrow=block;endSize=16;endFill=0;html=1;rounded=0;exitX=0.5;exitY=1;exitDx=0;exitDy=0;entryX=0.5;entryY=0;entryDx=0;entryDy=0;edgeStyle=orthogonalEdgeStyle;" parent="1" source="XrivS-1WhvhdIYvPr3YK-145" target="XrivS-1WhvhdIYvPr3YK-131" edge="1">
          <mxGeometry width="160" relative="1" as="geometry">
            <mxPoint x="-1127" y="745" as="sourcePoint" />
            <mxPoint x="-967" y="745" as="targetPoint" />
          </mxGeometry>
        </mxCell>
        <mxCell id="XrivS-1WhvhdIYvPr3YK-154" value="&lt;p style=&quot;margin:0px;margin-top:4px;text-align:center;&quot;&gt;&lt;b&gt;Geomechanics&lt;/b&gt;&lt;/p&gt;&lt;hr size=&quot;1&quot;&gt;&lt;p style=&quot;margin:0px;margin-left:4px;&quot;&gt;&lt;br&gt;&lt;/p&gt;" style="verticalAlign=top;align=left;overflow=fill;fontSize=12;fontFamily=Helvetica;html=1;whiteSpace=wrap;fillColor=#f5f5f5;strokeColor=#666666;fontColor=#333333;" parent="1" vertex="1">
          <mxGeometry x="3238" y="-1006.5" width="160" height="61" as="geometry" />
        </mxCell>
        <mxCell id="XrivS-1WhvhdIYvPr3YK-155" value="&lt;p style=&quot;margin:0px;margin-top:4px;text-align:center;text-decoration:underline;&quot;&gt;&lt;b&gt;Groundwater Use (2D)&lt;/b&gt;&lt;/p&gt;&lt;hr&gt;&lt;p style=&quot;margin:0px;margin-left:8px;&quot;&gt;name = geotechnicalcpt&lt;/p&gt;" style="verticalAlign=top;align=left;overflow=fill;fontSize=12;fontFamily=Helvetica;html=1;whiteSpace=wrap;" parent="1" vertex="1">
          <mxGeometry x="3513" y="-220" width="160" height="90" as="geometry" />
        </mxCell>
        <mxCell id="XrivS-1WhvhdIYvPr3YK-158" value="&lt;p style=&quot;margin:0px;margin-top:4px;text-align:center;text-decoration:underline;&quot;&gt;&lt;b&gt;Key Register&lt;/b&gt;&lt;/p&gt;&lt;hr&gt;&lt;p style=&quot;margin:0px;margin-left:8px;&quot;&gt;name = geotechnicalcpt&lt;/p&gt;" style="verticalAlign=top;align=left;overflow=fill;fontSize=12;fontFamily=Helvetica;html=1;whiteSpace=wrap;fillColor=#EDEDED;" parent="1" vertex="1">
          <mxGeometry x="3333" y="571" width="160" height="90" as="geometry" />
        </mxCell>
        <mxCell id="XrivS-1WhvhdIYvPr3YK-161" value="&lt;p style=&quot;margin:0px;margin-top:4px;text-align:center;text-decoration:underline;&quot;&gt;&lt;b&gt;N2&lt;/b&gt;&lt;/p&gt;&lt;hr&gt;&lt;p style=&quot;margin:0px;margin-left:8px;&quot;&gt;&lt;span style=&quot;background-color: initial;&quot;&gt;name = N2&lt;/span&gt;&lt;/p&gt;&lt;p style=&quot;margin:0px;margin-left:8px;&quot;&gt;&lt;span style=&quot;background-color: initial;&quot;&gt;area = Utrecht&lt;/span&gt;&lt;/p&gt;&lt;p style=&quot;margin:0px;margin-left:8px;&quot;&gt;adaptation = waterlogging&lt;/p&gt;&lt;p style=&quot;margin:0px;margin-left:8px;&quot;&gt;properties = fresh water availablity, soil type, groundwater levels&lt;/p&gt;&lt;p style=&quot;margin:0px;margin-left:8px;&quot;&gt;&lt;span style=&quot;background-color: initial;&quot;&gt;&lt;br&gt;&lt;/span&gt;&lt;/p&gt;" style="verticalAlign=top;align=left;overflow=fill;fontSize=12;fontFamily=Helvetica;html=1;whiteSpace=wrap;" parent="1" vertex="1">
          <mxGeometry x="-1809" y="345.5" width="207" height="123" as="geometry" />
        </mxCell>
        <mxCell id="XrivS-1WhvhdIYvPr3YK-162" value="&lt;p style=&quot;margin:0px;margin-top:4px;text-align:center;&quot;&gt;&lt;b&gt;Climate Themes&lt;/b&gt;&lt;/p&gt;&lt;hr size=&quot;1&quot;&gt;&lt;p style=&quot;margin:0px;margin-left:4px;&quot;&gt;&lt;br&gt;&lt;/p&gt;&lt;p style=&quot;margin:0px;margin-left:4px;&quot;&gt;+ name: str&lt;/p&gt;" style="verticalAlign=top;align=left;overflow=fill;fontSize=12;fontFamily=Helvetica;html=1;whiteSpace=wrap;fillColor=#f5f5f5;strokeColor=#666666;fontColor=#333333;" parent="1" vertex="1">
          <mxGeometry x="-177" y="-1591" width="160" height="90" as="geometry" />
        </mxCell>
        <mxCell id="XrivS-1WhvhdIYvPr3YK-163" value="&lt;p style=&quot;margin:0px;margin-top:4px;text-align:center;text-decoration:underline;&quot;&gt;&lt;b&gt;Heat&lt;/b&gt;&lt;/p&gt;&lt;hr&gt;&lt;p style=&quot;margin:0px;margin-left:8px;&quot;&gt;&lt;span style=&quot;background-color: initial;&quot;&gt;name = Heat&lt;/span&gt;&lt;/p&gt;&lt;p style=&quot;margin:0px;margin-left:8px;&quot;&gt;&lt;span style=&quot;background-color: initial;&quot;&gt;&lt;br&gt;&lt;/span&gt;&lt;/p&gt;" style="verticalAlign=top;align=left;overflow=fill;fontSize=12;fontFamily=Helvetica;html=1;whiteSpace=wrap;" parent="1" vertex="1">
          <mxGeometry x="109" y="-1654" width="160" height="90" as="geometry" />
        </mxCell>
        <mxCell id="XrivS-1WhvhdIYvPr3YK-167" value="&lt;p style=&quot;margin:0px;margin-top:4px;text-align:center;text-decoration:underline;&quot;&gt;&lt;b&gt;Drought&lt;/b&gt;&lt;/p&gt;&lt;hr&gt;&lt;p style=&quot;margin:0px;margin-left:8px;&quot;&gt;&lt;span style=&quot;background-color: initial;&quot;&gt;name = Drought&lt;/span&gt;&lt;/p&gt;&lt;p style=&quot;margin:0px;margin-left:8px;&quot;&gt;&lt;span style=&quot;background-color: initial;&quot;&gt;&lt;br&gt;&lt;/span&gt;&lt;/p&gt;" style="verticalAlign=top;align=left;overflow=fill;fontSize=12;fontFamily=Helvetica;html=1;whiteSpace=wrap;" parent="1" vertex="1">
          <mxGeometry x="109" y="-1769" width="160" height="90" as="geometry" />
        </mxCell>
        <mxCell id="XrivS-1WhvhdIYvPr3YK-169" value="&lt;p style=&quot;margin:0px;margin-top:4px;text-align:center;text-decoration:underline;&quot;&gt;&lt;b&gt;Waterlogging&lt;/b&gt;&lt;/p&gt;&lt;hr&gt;&lt;p style=&quot;margin:0px;margin-left:8px;&quot;&gt;&lt;span style=&quot;background-color: initial;&quot;&gt;name = Waterlogging&lt;/span&gt;&lt;/p&gt;&lt;p style=&quot;margin:0px;margin-left:8px;&quot;&gt;&lt;span style=&quot;background-color: initial;&quot;&gt;&lt;br&gt;&lt;/span&gt;&lt;/p&gt;" style="verticalAlign=top;align=left;overflow=fill;fontSize=12;fontFamily=Helvetica;html=1;whiteSpace=wrap;" parent="1" vertex="1">
          <mxGeometry x="109" y="-1884" width="160" height="90" as="geometry" />
        </mxCell>
        <mxCell id="XrivS-1WhvhdIYvPr3YK-170" value="&lt;p style=&quot;margin:0px;margin-top:4px;text-align:center;text-decoration:underline;&quot;&gt;&lt;b&gt;Biodiversity&lt;/b&gt;&lt;/p&gt;&lt;hr&gt;&lt;p style=&quot;margin:0px;margin-left:8px;&quot;&gt;&lt;span style=&quot;background-color: initial;&quot;&gt;name = Biodiversity&lt;/span&gt;&lt;/p&gt;&lt;p style=&quot;margin:0px;margin-left:8px;&quot;&gt;&lt;span style=&quot;background-color: initial;&quot;&gt;&lt;br&gt;&lt;/span&gt;&lt;/p&gt;" style="verticalAlign=top;align=left;overflow=fill;fontSize=12;fontFamily=Helvetica;html=1;whiteSpace=wrap;" parent="1" vertex="1">
          <mxGeometry x="109" y="-1520" width="160" height="90" as="geometry" />
        </mxCell>
        <mxCell id="XrivS-1WhvhdIYvPr3YK-172" value="&lt;p style=&quot;margin:0px;margin-top:4px;text-align:center;text-decoration:underline;&quot;&gt;&lt;b&gt;Flooding&lt;/b&gt;&lt;/p&gt;&lt;hr&gt;&lt;p style=&quot;margin:0px;margin-left:8px;&quot;&gt;&lt;span style=&quot;background-color: initial;&quot;&gt;name = Flooding&lt;/span&gt;&lt;/p&gt;&lt;p style=&quot;margin:0px;margin-left:8px;&quot;&gt;&lt;span style=&quot;background-color: initial;&quot;&gt;&lt;br&gt;&lt;/span&gt;&lt;/p&gt;" style="verticalAlign=top;align=left;overflow=fill;fontSize=12;fontFamily=Helvetica;html=1;whiteSpace=wrap;" parent="1" vertex="1">
          <mxGeometry x="109" y="-1405" width="160" height="90" as="geometry" />
        </mxCell>
        <mxCell id="4yrR79o98_Yk7ZibqLWb-1" value="&lt;p style=&quot;margin:0px;margin-top:4px;text-align:center;text-decoration:underline;&quot;&gt;&lt;b&gt;N3&lt;/b&gt;&lt;/p&gt;&lt;hr&gt;&lt;p style=&quot;margin:0px;margin-left:8px;&quot;&gt;&lt;span style=&quot;background-color: initial;&quot;&gt;name = N3&lt;/span&gt;&lt;/p&gt;&lt;p style=&quot;margin:0px;margin-left:8px;&quot;&gt;&lt;span style=&quot;background-color: initial;&quot;&gt;area = Utrecht&lt;/span&gt;&lt;/p&gt;&lt;p style=&quot;margin:0px;margin-left:8px;&quot;&gt;adaptation = waterlogging&lt;/p&gt;&lt;p style=&quot;margin:0px;margin-left:8px;&quot;&gt;properties = fresh water availablity, soil type, groundwater levels&lt;/p&gt;&lt;p style=&quot;margin:0px;margin-left:8px;&quot;&gt;&lt;span style=&quot;background-color: initial;&quot;&gt;&lt;br&gt;&lt;/span&gt;&lt;/p&gt;" style="verticalAlign=top;align=left;overflow=fill;fontSize=12;fontFamily=Helvetica;html=1;whiteSpace=wrap;" parent="1" vertex="1">
          <mxGeometry x="-1586" y="345.5" width="207" height="123" as="geometry" />
        </mxCell>
        <mxCell id="4yrR79o98_Yk7ZibqLWb-3" value="&lt;p style=&quot;margin:0px;margin-top:4px;text-align:center;text-decoration:underline;&quot;&gt;&lt;b&gt;N1&lt;/b&gt;&lt;/p&gt;&lt;hr&gt;&lt;p style=&quot;margin:0px;margin-left:8px;&quot;&gt;&lt;span style=&quot;background-color: initial;&quot;&gt;name = N1&lt;/span&gt;&lt;/p&gt;&lt;p style=&quot;margin:0px;margin-left:8px;&quot;&gt;&lt;span style=&quot;background-color: initial;&quot;&gt;area = Utrecht&lt;/span&gt;&lt;/p&gt;&lt;p style=&quot;margin:0px;margin-left:8px;&quot;&gt;adaptation = waterlogging&lt;/p&gt;&lt;p style=&quot;margin:0px;margin-left:8px;&quot;&gt;properties = fresh water availablity, soil type, groundwater levels&lt;/p&gt;&lt;p style=&quot;margin:0px;margin-left:8px;&quot;&gt;&lt;span style=&quot;background-color: initial;&quot;&gt;&lt;br&gt;&lt;/span&gt;&lt;/p&gt;" style="verticalAlign=top;align=left;overflow=fill;fontSize=12;fontFamily=Helvetica;html=1;whiteSpace=wrap;" parent="1" vertex="1">
          <mxGeometry x="-2032" y="345.5" width="207" height="123" as="geometry" />
        </mxCell>
        <mxCell id="4yrR79o98_Yk7ZibqLWb-6" value="" style="endArrow=block;endSize=16;endFill=0;html=1;rounded=0;edgeStyle=orthogonalEdgeStyle;exitX=0;exitY=0.5;exitDx=0;exitDy=0;entryX=1;entryY=0.5;entryDx=0;entryDy=0;" parent="1" source="XrivS-1WhvhdIYvPr3YK-167" target="XrivS-1WhvhdIYvPr3YK-162" edge="1">
          <mxGeometry width="160" relative="1" as="geometry">
            <mxPoint x="-169" y="-1240" as="sourcePoint" />
            <mxPoint x="-9" y="-1240" as="targetPoint" />
          </mxGeometry>
        </mxCell>
        <mxCell id="4yrR79o98_Yk7ZibqLWb-8" value="" style="endArrow=block;endSize=16;endFill=0;html=1;rounded=0;edgeStyle=orthogonalEdgeStyle;entryX=1;entryY=0.5;entryDx=0;entryDy=0;exitX=0;exitY=0.5;exitDx=0;exitDy=0;" parent="1" source="XrivS-1WhvhdIYvPr3YK-163" target="XrivS-1WhvhdIYvPr3YK-162" edge="1">
          <mxGeometry width="160" relative="1" as="geometry">
            <mxPoint x="-150" y="-1432.5" as="sourcePoint" />
            <mxPoint x="10" y="-1432.5" as="targetPoint" />
          </mxGeometry>
        </mxCell>
        <mxCell id="4yrR79o98_Yk7ZibqLWb-9" value="" style="endArrow=block;endSize=16;endFill=0;html=1;rounded=0;edgeStyle=orthogonalEdgeStyle;entryX=1;entryY=0.5;entryDx=0;entryDy=0;exitX=0;exitY=0.5;exitDx=0;exitDy=0;" parent="1" source="XrivS-1WhvhdIYvPr3YK-169" target="XrivS-1WhvhdIYvPr3YK-162" edge="1">
          <mxGeometry width="160" relative="1" as="geometry">
            <mxPoint x="-581" y="-1325" as="sourcePoint" />
            <mxPoint x="-421" y="-1325" as="targetPoint" />
            <Array as="points">
              <mxPoint x="46" y="-1839" />
              <mxPoint x="46" y="-1546" />
            </Array>
          </mxGeometry>
        </mxCell>
        <mxCell id="4yrR79o98_Yk7ZibqLWb-10" value="" style="endArrow=block;endSize=16;endFill=0;html=1;rounded=0;edgeStyle=orthogonalEdgeStyle;entryX=1;entryY=0.5;entryDx=0;entryDy=0;exitX=0;exitY=0.5;exitDx=0;exitDy=0;" parent="1" source="XrivS-1WhvhdIYvPr3YK-172" target="XrivS-1WhvhdIYvPr3YK-162" edge="1">
          <mxGeometry width="160" relative="1" as="geometry">
            <mxPoint x="-177" y="-1393" as="sourcePoint" />
            <mxPoint x="-17" y="-1393" as="targetPoint" />
          </mxGeometry>
        </mxCell>
        <mxCell id="4yrR79o98_Yk7ZibqLWb-11" value="" style="endArrow=block;endSize=16;endFill=0;html=1;rounded=0;edgeStyle=orthogonalEdgeStyle;entryX=1;entryY=0.5;entryDx=0;entryDy=0;exitX=0;exitY=0.5;exitDx=0;exitDy=0;" parent="1" source="XrivS-1WhvhdIYvPr3YK-170" target="XrivS-1WhvhdIYvPr3YK-162" edge="1">
          <mxGeometry width="160" relative="1" as="geometry">
            <mxPoint x="-454" y="-1160" as="sourcePoint" />
            <mxPoint x="-294" y="-1160" as="targetPoint" />
          </mxGeometry>
        </mxCell>
        <mxCell id="4yrR79o98_Yk7ZibqLWb-15" value="" style="endArrow=block;endSize=16;endFill=0;html=1;rounded=0;edgeStyle=orthogonalEdgeStyle;entryX=0.5;entryY=0;entryDx=0;entryDy=0;exitX=0.5;exitY=1;exitDx=0;exitDy=0;" parent="1" source="4yrR79o98_Yk7ZibqLWb-3" target="XrivS-1WhvhdIYvPr3YK-145" edge="1">
          <mxGeometry width="160" relative="1" as="geometry">
            <mxPoint x="-1935" y="256" as="sourcePoint" />
            <mxPoint x="-1761" y="391" as="targetPoint" />
          </mxGeometry>
        </mxCell>
        <mxCell id="4yrR79o98_Yk7ZibqLWb-16" value="" style="endArrow=block;endSize=16;endFill=0;html=1;rounded=0;edgeStyle=orthogonalEdgeStyle;entryX=0.5;entryY=0;entryDx=0;entryDy=0;exitX=0.5;exitY=1;exitDx=0;exitDy=0;" parent="1" source="XrivS-1WhvhdIYvPr3YK-161" target="XrivS-1WhvhdIYvPr3YK-145" edge="1">
          <mxGeometry width="160" relative="1" as="geometry">
            <mxPoint x="-1917" y="373" as="sourcePoint" />
            <mxPoint x="-1757" y="373" as="targetPoint" />
          </mxGeometry>
        </mxCell>
        <mxCell id="4yrR79o98_Yk7ZibqLWb-17" value="" style="endArrow=block;endSize=16;endFill=0;html=1;rounded=0;edgeStyle=orthogonalEdgeStyle;entryX=0.5;entryY=0;entryDx=0;entryDy=0;exitX=0.5;exitY=1;exitDx=0;exitDy=0;" parent="1" source="4yrR79o98_Yk7ZibqLWb-1" target="XrivS-1WhvhdIYvPr3YK-145" edge="1">
          <mxGeometry width="160" relative="1" as="geometry">
            <mxPoint x="-1940" y="405" as="sourcePoint" />
            <mxPoint x="-1780" y="405" as="targetPoint" />
          </mxGeometry>
        </mxCell>
        <mxCell id="4yrR79o98_Yk7ZibqLWb-44" value="" style="endArrow=open;endFill=1;endSize=12;html=1;rounded=0;edgeStyle=orthogonalEdgeStyle;entryX=0.02;entryY=-0.002;entryDx=0;entryDy=0;exitX=0.5;exitY=1;exitDx=0;exitDy=0;strokeColor=#007FFF;entryPerimeter=0;" parent="1" target="4yrR79o98_Yk7ZibqLWb-3" edge="1">
          <mxGeometry width="160" relative="1" as="geometry">
            <mxPoint x="-1424" y="-340" as="sourcePoint" />
            <mxPoint x="-1062" y="-91" as="targetPoint" />
            <Array as="points">
              <mxPoint x="-1424" y="-80" />
              <mxPoint x="-2027" y="-80" />
              <mxPoint x="-2027" y="345" />
            </Array>
          </mxGeometry>
        </mxCell>
        <mxCell id="4yrR79o98_Yk7ZibqLWb-49" value="" style="endArrow=open;endFill=1;endSize=12;html=1;rounded=0;edgeStyle=orthogonalEdgeStyle;exitX=0.5;exitY=1;exitDx=0;exitDy=0;strokeColor=#007FFF;" parent="1" target="4yrR79o98_Yk7ZibqLWb-3" edge="1">
          <mxGeometry width="160" relative="1" as="geometry">
            <mxPoint x="-1241" y="-340" as="sourcePoint" />
            <mxPoint x="-1957" y="-174" as="targetPoint" />
            <Array as="points">
              <mxPoint x="-1241" y="-55" />
              <mxPoint x="-1983" y="-55" />
            </Array>
          </mxGeometry>
        </mxCell>
        <mxCell id="4yrR79o98_Yk7ZibqLWb-50" value="&lt;p style=&quot;margin:0px;margin-top:4px;text-align:center;text-decoration:underline;&quot;&gt;&lt;b&gt;LADM Edition II&lt;/b&gt;&lt;/p&gt;&lt;hr&gt;&lt;p style=&quot;margin:0px;margin-left:8px;&quot;&gt;type = ladmSt&lt;/p&gt;&lt;p style=&quot;margin:0px;margin-left:8px;&quot;&gt;&lt;span style=&quot;background-color: initial;&quot;&gt;name = ladmII&lt;/span&gt;&lt;/p&gt;&lt;p style=&quot;margin:0px;margin-left:8px;&quot;&gt;organization = ISO&lt;span style=&quot;background-color: initial;&quot;&gt;&lt;br&gt;&lt;/span&gt;&lt;/p&gt;" style="verticalAlign=top;align=left;overflow=fill;fontSize=12;fontFamily=Helvetica;html=1;whiteSpace=wrap;" parent="1" vertex="1">
          <mxGeometry x="-805" y="999" width="160" height="90" as="geometry" />
        </mxCell>
        <mxCell id="4yrR79o98_Yk7ZibqLWb-51" value="" style="endArrow=block;endSize=16;endFill=0;html=1;rounded=0;edgeStyle=orthogonalEdgeStyle;entryX=0.5;entryY=1;entryDx=0;entryDy=0;exitX=0.5;exitY=0;exitDx=0;exitDy=0;" parent="1" source="4yrR79o98_Yk7ZibqLWb-50" target="XrivS-1WhvhdIYvPr3YK-131" edge="1">
          <mxGeometry x="-0.003" width="160" relative="1" as="geometry">
            <mxPoint x="-1190" y="1057" as="sourcePoint" />
            <mxPoint x="-1030" y="1057" as="targetPoint" />
            <mxPoint as="offset" />
          </mxGeometry>
        </mxCell>
        <mxCell id="4yrR79o98_Yk7ZibqLWb-55" value="&lt;p style=&quot;margin:0px;margin-top:4px;text-align:center;text-decoration:underline;&quot;&gt;&lt;b&gt;Geotechnical CPT (2D)&lt;/b&gt;&lt;/p&gt;&lt;hr&gt;&lt;p style=&quot;margin:0px;margin-left:8px;&quot;&gt;name = geotechnicalcpt&lt;/p&gt;" style="verticalAlign=top;align=left;overflow=fill;fontSize=12;fontFamily=Helvetica;html=1;whiteSpace=wrap;" parent="1" vertex="1">
          <mxGeometry x="3692" y="-220" width="160" height="90" as="geometry" />
        </mxCell>
        <mxCell id="4yrR79o98_Yk7ZibqLWb-56" value="&lt;p style=&quot;margin:0px;margin-top:4px;text-align:center;&quot;&gt;&lt;b&gt;2D Key Register&lt;/b&gt;&lt;/p&gt;&lt;hr size=&quot;1&quot;&gt;&lt;p style=&quot;margin:0px;margin-left:4px;&quot;&gt;+ name: str&lt;/p&gt;&lt;hr size=&quot;1&quot;&gt;&lt;p style=&quot;margin:0px;margin-left:4px;&quot;&gt;+ scale: str&lt;/p&gt;" style="verticalAlign=top;align=left;overflow=fill;fontSize=12;fontFamily=Helvetica;html=1;whiteSpace=wrap;fillColor=#f5f5f5;strokeColor=#666666;fontColor=#333333;" parent="1" vertex="1">
          <mxGeometry x="3606" y="119" width="160" height="90" as="geometry" />
        </mxCell>
        <mxCell id="4yrR79o98_Yk7ZibqLWb-58" value="" style="endArrow=block;endSize=16;endFill=0;html=1;rounded=0;edgeStyle=orthogonalEdgeStyle;entryX=0.5;entryY=0;entryDx=0;entryDy=0;exitX=0.75;exitY=1;exitDx=0;exitDy=0;" parent="1" source="0FXop1k1lJmk01pZkUKz-41" target="XrivS-1WhvhdIYvPr3YK-158" edge="1">
          <mxGeometry width="160" relative="1" as="geometry">
            <mxPoint x="2671" y="561" as="sourcePoint" />
            <mxPoint x="2831" y="561" as="targetPoint" />
          </mxGeometry>
        </mxCell>
        <mxCell id="4yrR79o98_Yk7ZibqLWb-59" value="" style="endArrow=block;endSize=16;endFill=0;html=1;rounded=0;edgeStyle=orthogonalEdgeStyle;entryX=0.5;entryY=0;entryDx=0;entryDy=0;exitX=0.25;exitY=1;exitDx=0;exitDy=0;" parent="1" source="4yrR79o98_Yk7ZibqLWb-56" target="XrivS-1WhvhdIYvPr3YK-158" edge="1">
          <mxGeometry width="160" relative="1" as="geometry">
            <mxPoint x="2886" y="459" as="sourcePoint" />
            <mxPoint x="3046" y="459" as="targetPoint" />
          </mxGeometry>
        </mxCell>
        <mxCell id="4yrR79o98_Yk7ZibqLWb-61" value="" style="endArrow=block;endSize=16;endFill=0;html=1;rounded=0;edgeStyle=orthogonalEdgeStyle;entryX=0.5;entryY=0;entryDx=0;entryDy=0;exitX=0.5;exitY=1;exitDx=0;exitDy=0;" parent="1" source="4yrR79o98_Yk7ZibqLWb-55" target="4yrR79o98_Yk7ZibqLWb-56" edge="1">
          <mxGeometry width="160" relative="1" as="geometry">
            <mxPoint x="3378" y="215" as="sourcePoint" />
            <mxPoint x="3538" y="215" as="targetPoint" />
          </mxGeometry>
        </mxCell>
        <mxCell id="4yrR79o98_Yk7ZibqLWb-62" value="" style="endArrow=block;endSize=16;endFill=0;html=1;rounded=0;edgeStyle=orthogonalEdgeStyle;entryX=0.5;entryY=0;entryDx=0;entryDy=0;exitX=0.5;exitY=1;exitDx=0;exitDy=0;" parent="1" source="XrivS-1WhvhdIYvPr3YK-155" target="4yrR79o98_Yk7ZibqLWb-56" edge="1">
          <mxGeometry width="160" relative="1" as="geometry">
            <mxPoint x="3424" y="93" as="sourcePoint" />
            <mxPoint x="3584" y="93" as="targetPoint" />
          </mxGeometry>
        </mxCell>
        <mxCell id="4yrR79o98_Yk7ZibqLWb-65" value="" style="endArrow=diamondThin;endFill=1;endSize=24;html=1;rounded=0;edgeStyle=orthogonalEdgeStyle;entryX=0.5;entryY=0;entryDx=0;entryDy=0;exitX=0.25;exitY=1;exitDx=0;exitDy=0;" parent="1" source="XrivS-1WhvhdIYvPr3YK-154" target="XrivS-1WhvhdIYvPr3YK-124" edge="1">
          <mxGeometry width="160" relative="1" as="geometry">
            <mxPoint x="3365" y="-274" as="sourcePoint" />
            <mxPoint x="3525" y="-274" as="targetPoint" />
            <Array as="points">
              <mxPoint x="3457" y="-440" />
              <mxPoint x="3414" y="-440" />
            </Array>
          </mxGeometry>
        </mxCell>
        <mxCell id="4yrR79o98_Yk7ZibqLWb-66" value="" style="endArrow=open;endSize=12;dashed=1;html=1;rounded=0;edgeStyle=orthogonalEdgeStyle;exitX=0.75;exitY=0;exitDx=0;exitDy=0;entryX=0.25;entryY=0;entryDx=0;entryDy=0;" parent="1" source="XrivS-1WhvhdIYvPr3YK-124" target="4yrR79o98_Yk7ZibqLWb-55" edge="1">
          <mxGeometry width="160" relative="1" as="geometry">
            <mxPoint x="3552" y="-280" as="sourcePoint" />
            <mxPoint x="3712" y="-280" as="targetPoint" />
            <Array as="points">
              <mxPoint x="3454" y="-270" />
              <mxPoint x="3732" y="-270" />
            </Array>
          </mxGeometry>
        </mxCell>
        <mxCell id="4yrR79o98_Yk7ZibqLWb-68" value="" style="endArrow=diamondThin;endFill=1;endSize=24;html=1;rounded=0;edgeStyle=orthogonalEdgeStyle;exitX=0.5;exitY=1;exitDx=0;exitDy=0;entryX=0.5;entryY=0;entryDx=0;entryDy=0;" parent="1" source="0FXop1k1lJmk01pZkUKz-34" target="XrivS-1WhvhdIYvPr3YK-121" edge="1">
          <mxGeometry width="160" relative="1" as="geometry">
            <mxPoint x="2877" y="-464" as="sourcePoint" />
            <mxPoint x="3037" y="-464" as="targetPoint" />
            <Array as="points">
              <mxPoint x="2960" y="-547" />
              <mxPoint x="3235" y="-547" />
            </Array>
          </mxGeometry>
        </mxCell>
        <mxCell id="4yrR79o98_Yk7ZibqLWb-70" value="" style="endArrow=diamondThin;endFill=1;endSize=24;html=1;rounded=0;edgeStyle=orthogonalEdgeStyle;entryX=0.5;entryY=0;entryDx=0;entryDy=0;exitX=0.5;exitY=1;exitDx=0;exitDy=0;" parent="1" source="0FXop1k1lJmk01pZkUKz-29" target="0FXop1k1lJmk01pZkUKz-42" edge="1">
          <mxGeometry width="160" relative="1" as="geometry">
            <mxPoint x="2317" y="-393" as="sourcePoint" />
            <mxPoint x="2477" y="-393" as="targetPoint" />
            <Array as="points">
              <mxPoint x="2781" y="-485" />
              <mxPoint x="2877" y="-485" />
            </Array>
          </mxGeometry>
        </mxCell>
        <mxCell id="4yrR79o98_Yk7ZibqLWb-71" value="" style="endArrow=open;endSize=12;dashed=1;html=1;rounded=0;edgeStyle=orthogonalEdgeStyle;entryX=0.25;entryY=0;entryDx=0;entryDy=0;exitX=0.75;exitY=0;exitDx=0;exitDy=0;" parent="1" source="XrivS-1WhvhdIYvPr3YK-121" target="XrivS-1WhvhdIYvPr3YK-155" edge="1">
          <mxGeometry width="160" relative="1" as="geometry">
            <mxPoint x="2980" y="-393" as="sourcePoint" />
            <mxPoint x="3140" y="-393" as="targetPoint" />
            <Array as="points">
              <mxPoint x="3275" y="-301" />
              <mxPoint x="3553" y="-301" />
            </Array>
          </mxGeometry>
        </mxCell>
        <mxCell id="4yrR79o98_Yk7ZibqLWb-72" value="" style="endArrow=diamondThin;endFill=1;endSize=24;html=1;rounded=0;edgeStyle=orthogonalEdgeStyle;entryX=0.5;entryY=0;entryDx=0;entryDy=0;exitX=0.5;exitY=1;exitDx=0;exitDy=0;" parent="1" source="0FXop1k1lJmk01pZkUKz-34" target="XrivS-1WhvhdIYvPr3YK-155" edge="1">
          <mxGeometry width="160" relative="1" as="geometry">
            <mxPoint x="2909" y="-447" as="sourcePoint" />
            <mxPoint x="3069" y="-447" as="targetPoint" />
            <Array as="points">
              <mxPoint x="2960" y="-546" />
              <mxPoint x="3593" y="-546" />
            </Array>
          </mxGeometry>
        </mxCell>
        <mxCell id="lzSBGGlqFM9TEOrY7YJG-2" value="" style="endArrow=open;endFill=1;endSize=12;html=1;rounded=0;edgeStyle=orthogonalEdgeStyle;exitX=0.5;exitY=1;exitDx=0;exitDy=0;" parent="1" edge="1">
          <mxGeometry width="160" relative="1" as="geometry">
            <mxPoint x="-1058" y="-340" as="sourcePoint" />
            <mxPoint x="-2002" y="348" as="targetPoint" />
            <Array as="points">
              <mxPoint x="-1058" y="-34" />
              <mxPoint x="-2002" y="-34" />
            </Array>
          </mxGeometry>
        </mxCell>
        <mxCell id="lzSBGGlqFM9TEOrY7YJG-15" value="" style="endArrow=open;endFill=1;endSize=12;html=1;rounded=0;edgeStyle=orthogonalEdgeStyle;exitX=0.5;exitY=1;exitDx=0;exitDy=0;entryX=0.321;entryY=0;entryDx=0;entryDy=0;strokeColor=#009900;entryPerimeter=0;" parent="1" target="4yrR79o98_Yk7ZibqLWb-3" edge="1">
          <mxGeometry width="160" relative="1" as="geometry">
            <mxPoint x="-875" y="-340" as="sourcePoint" />
            <mxPoint x="-1929" y="-146" as="targetPoint" />
            <Array as="points">
              <mxPoint x="-875" y="-14" />
              <mxPoint x="-1966" y="-14" />
              <mxPoint x="-1966" y="346" />
            </Array>
          </mxGeometry>
        </mxCell>
        <mxCell id="lzSBGGlqFM9TEOrY7YJG-16" value="" style="endArrow=open;endFill=1;endSize=12;html=1;rounded=0;edgeStyle=orthogonalEdgeStyle;exitX=0.5;exitY=1;exitDx=0;exitDy=0;" parent="1" target="4yrR79o98_Yk7ZibqLWb-3" edge="1">
          <mxGeometry width="160" relative="1" as="geometry">
            <mxPoint x="-692" y="-340" as="sourcePoint" />
            <mxPoint x="-1952" y="335" as="targetPoint" />
            <Array as="points">
              <mxPoint x="-692" y="19" />
              <mxPoint x="-1952" y="19" />
            </Array>
          </mxGeometry>
        </mxCell>
        <mxCell id="lzSBGGlqFM9TEOrY7YJG-17" value="" style="endArrow=open;endFill=1;endSize=12;html=1;rounded=0;edgeStyle=orthogonalEdgeStyle;exitX=0.5;exitY=1;exitDx=0;exitDy=0;entryX=0.589;entryY=0.025;entryDx=0;entryDy=0;strokeColor=#009900;entryPerimeter=0;" parent="1" target="4yrR79o98_Yk7ZibqLWb-3" edge="1">
          <mxGeometry width="160" relative="1" as="geometry">
            <mxPoint x="-509" y="-340" as="sourcePoint" />
            <mxPoint x="-1918" y="-135" as="targetPoint" />
            <Array as="points">
              <mxPoint x="-509" y="33" />
              <mxPoint x="-1910" y="33" />
            </Array>
          </mxGeometry>
        </mxCell>
        <mxCell id="lzSBGGlqFM9TEOrY7YJG-18" value="" style="endArrow=open;endFill=1;endSize=12;html=1;rounded=0;edgeStyle=orthogonalEdgeStyle;exitX=0.5;exitY=1;exitDx=0;exitDy=0;strokeColor=#FF33FF;" parent="1" target="4yrR79o98_Yk7ZibqLWb-3" edge="1">
          <mxGeometry width="160" relative="1" as="geometry">
            <mxPoint x="-323" y="-340" as="sourcePoint" />
            <mxPoint x="-1901" y="-161" as="targetPoint" />
            <Array as="points">
              <mxPoint x="-323" y="59" />
              <mxPoint x="-1942" y="59" />
            </Array>
          </mxGeometry>
        </mxCell>
        <mxCell id="lzSBGGlqFM9TEOrY7YJG-19" value="" style="endArrow=open;endFill=1;endSize=12;html=1;rounded=0;edgeStyle=orthogonalEdgeStyle;exitX=0.5;exitY=1;exitDx=0;exitDy=0;strokeColor=#FF3333;" parent="1" target="4yrR79o98_Yk7ZibqLWb-3" edge="1">
          <mxGeometry width="160" relative="1" as="geometry">
            <mxPoint x="-126.5" y="-336" as="sourcePoint" />
            <mxPoint x="-1919" y="-135" as="targetPoint" />
            <Array as="points">
              <mxPoint x="-136" y="89" />
              <mxPoint x="-1896" y="89" />
            </Array>
          </mxGeometry>
        </mxCell>
        <mxCell id="lzSBGGlqFM9TEOrY7YJG-38" value="" style="endArrow=open;endFill=1;endSize=12;html=1;rounded=0;exitX=0.5;exitY=1;exitDx=0;exitDy=0;edgeStyle=orthogonalEdgeStyle;strokeColor=#007FFF;" parent="1" target="XrivS-1WhvhdIYvPr3YK-161" edge="1">
          <mxGeometry width="160" relative="1" as="geometry">
            <mxPoint x="62.5" y="-340" as="sourcePoint" />
            <mxPoint x="-699" y="-84" as="targetPoint" />
            <Array as="points">
              <mxPoint x="63" y="114" />
              <mxPoint x="-1735" y="114" />
            </Array>
          </mxGeometry>
        </mxCell>
        <mxCell id="lzSBGGlqFM9TEOrY7YJG-39" value="" style="endArrow=open;endFill=1;endSize=12;html=1;rounded=0;exitX=0.5;exitY=1;exitDx=0;exitDy=0;edgeStyle=orthogonalEdgeStyle;strokeColor=#990099;entryX=0.636;entryY=0.017;entryDx=0;entryDy=0;entryPerimeter=0;" parent="1" target="XrivS-1WhvhdIYvPr3YK-161" edge="1">
          <mxGeometry width="160" relative="1" as="geometry">
            <mxPoint x="259" y="-340" as="sourcePoint" />
            <mxPoint x="-892" y="-50" as="targetPoint" />
            <Array as="points">
              <mxPoint x="259" y="143" />
              <mxPoint x="-1677" y="143" />
            </Array>
          </mxGeometry>
        </mxCell>
        <mxCell id="lzSBGGlqFM9TEOrY7YJG-41" value="" style="endArrow=open;endFill=1;endSize=12;html=1;rounded=0;exitX=0.5;exitY=1;exitDx=0;exitDy=0;edgeStyle=orthogonalEdgeStyle;strokeColor=#990099;entryX=0.75;entryY=0;entryDx=0;entryDy=0;" parent="1" target="4yrR79o98_Yk7ZibqLWb-3" edge="1">
          <mxGeometry width="160" relative="1" as="geometry">
            <mxPoint x="259" y="-340" as="sourcePoint" />
            <mxPoint x="-1906" y="349" as="targetPoint" />
            <Array as="points">
              <mxPoint x="259" y="142" />
              <mxPoint x="-1877" y="142" />
              <mxPoint x="-1877" y="346" />
            </Array>
          </mxGeometry>
        </mxCell>
        <mxCell id="lzSBGGlqFM9TEOrY7YJG-42" value="" style="endArrow=open;endFill=1;endSize=12;html=1;rounded=0;exitX=0.5;exitY=1;exitDx=0;exitDy=0;edgeStyle=orthogonalEdgeStyle;strokeColor=#009900;" parent="1" edge="1">
          <mxGeometry width="160" relative="1" as="geometry">
            <mxPoint x="442" y="-340" as="sourcePoint" />
            <mxPoint x="-1838" y="346" as="targetPoint" />
            <Array as="points">
              <mxPoint x="442" y="174" />
              <mxPoint x="-1838" y="174" />
              <mxPoint x="-1838" y="346" />
            </Array>
          </mxGeometry>
        </mxCell>
        <mxCell id="lzSBGGlqFM9TEOrY7YJG-43" value="" style="endArrow=open;endFill=1;endSize=12;html=1;rounded=0;edgeStyle=orthogonalEdgeStyle;strokeColor=#009900;exitX=0.5;exitY=1;exitDx=0;exitDy=0;" parent="1" target="XrivS-1WhvhdIYvPr3YK-161" edge="1">
          <mxGeometry width="160" relative="1" as="geometry">
            <mxPoint x="442" y="-340" as="sourcePoint" />
            <mxPoint x="-1683" y="351" as="targetPoint" />
            <Array as="points">
              <mxPoint x="442" y="174" />
              <mxPoint x="-1658" y="174" />
            </Array>
          </mxGeometry>
        </mxCell>
        <mxCell id="lzSBGGlqFM9TEOrY7YJG-45" value="" style="endArrow=open;endFill=1;endSize=12;html=1;rounded=0;exitX=0.5;exitY=1;exitDx=0;exitDy=0;edgeStyle=orthogonalEdgeStyle;strokeColor=#FF3333;" parent="1" edge="1">
          <mxGeometry width="160" relative="1" as="geometry">
            <mxPoint x="625" y="-340" as="sourcePoint" />
            <mxPoint x="-2017" y="346" as="targetPoint" />
            <Array as="points">
              <mxPoint x="625" y="207" />
              <mxPoint x="-2017" y="207" />
            </Array>
          </mxGeometry>
        </mxCell>
        <mxCell id="lzSBGGlqFM9TEOrY7YJG-46" value="" style="endArrow=open;endFill=1;endSize=12;html=1;rounded=0;exitX=0.5;exitY=1;exitDx=0;exitDy=0;edgeStyle=orthogonalEdgeStyle;strokeColor=#FF3333;entryX=0.894;entryY=0.012;entryDx=0;entryDy=0;entryPerimeter=0;" parent="1" target="XrivS-1WhvhdIYvPr3YK-161" edge="1">
          <mxGeometry width="160" relative="1" as="geometry">
            <mxPoint x="625" y="-340" as="sourcePoint" />
            <mxPoint x="-1736" y="319" as="targetPoint" />
            <Array as="points">
              <mxPoint x="625" y="235" />
              <mxPoint x="-1624" y="235" />
            </Array>
          </mxGeometry>
        </mxCell>
        <mxCell id="lzSBGGlqFM9TEOrY7YJG-47" value="" style="endArrow=block;endSize=16;endFill=0;html=1;rounded=0;entryX=0.5;entryY=1;entryDx=0;entryDy=0;exitX=0.5;exitY=0;exitDx=0;exitDy=0;edgeStyle=orthogonalEdgeStyle;" parent="1" source="XrivS-1WhvhdIYvPr3YK-154" target="0FXop1k1lJmk01pZkUKz-21" edge="1">
          <mxGeometry width="160" relative="1" as="geometry">
            <mxPoint x="3440" y="-1186" as="sourcePoint" />
            <mxPoint x="3600" y="-1186" as="targetPoint" />
          </mxGeometry>
        </mxCell>
        <mxCell id="lzSBGGlqFM9TEOrY7YJG-49" value="" style="endArrow=open;endFill=1;endSize=12;html=1;rounded=0;entryX=0.75;entryY=0;entryDx=0;entryDy=0;exitX=0.5;exitY=1;exitDx=0;exitDy=0;edgeStyle=orthogonalEdgeStyle;strokeColor=#FF33FF;" parent="1" target="4yrR79o98_Yk7ZibqLWb-1" edge="1">
          <mxGeometry width="160" relative="1" as="geometry">
            <mxPoint x="-323" y="-340" as="sourcePoint" />
            <mxPoint x="-884" y="-5" as="targetPoint" />
            <Array as="points">
              <mxPoint x="-323" y="60" />
              <mxPoint x="-1431" y="60" />
            </Array>
          </mxGeometry>
        </mxCell>
        <mxCell id="lzSBGGlqFM9TEOrY7YJG-51" value="" style="endArrow=open;endFill=1;endSize=12;html=1;rounded=0;exitX=0.5;exitY=1;exitDx=0;exitDy=0;edgeStyle=orthogonalEdgeStyle;strokeColor=#990099;" parent="1" target="4yrR79o98_Yk7ZibqLWb-1" edge="1">
          <mxGeometry width="160" relative="1" as="geometry">
            <mxPoint x="259" y="-340" as="sourcePoint" />
            <mxPoint x="-930" y="-58" as="targetPoint" />
            <Array as="points">
              <mxPoint x="259" y="141" />
              <mxPoint x="-1468" y="141" />
            </Array>
          </mxGeometry>
        </mxCell>
        <mxCell id="lzSBGGlqFM9TEOrY7YJG-53" value="&lt;p style=&quot;margin:0px;margin-top:4px;text-align:center;text-decoration:underline;&quot;&gt;&lt;b&gt;D1&lt;/b&gt;&lt;/p&gt;&lt;hr&gt;&lt;p style=&quot;margin:0px;margin-left:8px;&quot;&gt;&lt;span style=&quot;background-color: initial;&quot;&gt;name = D1&lt;/span&gt;&lt;/p&gt;&lt;p style=&quot;margin:0px;margin-left:8px;&quot;&gt;&lt;span style=&quot;background-color: initial;&quot;&gt;area = Utrecht&lt;/span&gt;&lt;/p&gt;&lt;p style=&quot;margin:0px;margin-left:8px;&quot;&gt;adaptation = drought&lt;/p&gt;&lt;p style=&quot;margin:0px;margin-left:8px;&quot;&gt;properties = fresh water availablity, soil type, groundwater levels&lt;/p&gt;&lt;p style=&quot;margin:0px;margin-left:8px;&quot;&gt;&lt;span style=&quot;background-color: initial;&quot;&gt;&lt;br&gt;&lt;/span&gt;&lt;/p&gt;" style="verticalAlign=top;align=left;overflow=fill;fontSize=12;fontFamily=Helvetica;html=1;whiteSpace=wrap;" parent="1" vertex="1">
          <mxGeometry x="-1362" y="345.5" width="207" height="123" as="geometry" />
        </mxCell>
        <mxCell id="lzSBGGlqFM9TEOrY7YJG-56" value="" style="endArrow=open;endFill=1;endSize=12;html=1;rounded=0;exitX=0.5;exitY=1;exitDx=0;exitDy=0;edgeStyle=orthogonalEdgeStyle;strokeColor=#009900;entryX=0.883;entryY=0.006;entryDx=0;entryDy=0;entryPerimeter=0;" parent="1" target="lzSBGGlqFM9TEOrY7YJG-53" edge="1">
          <mxGeometry width="160" relative="1" as="geometry">
            <mxPoint x="-509" y="-340" as="sourcePoint" />
            <mxPoint x="-1250" y="317" as="targetPoint" />
            <Array as="points">
              <mxPoint x="-509" y="-181" />
              <mxPoint x="-1179" y="-181" />
            </Array>
          </mxGeometry>
        </mxCell>
        <mxCell id="lzSBGGlqFM9TEOrY7YJG-57" value="" style="endArrow=open;endFill=1;endSize=12;html=1;rounded=0;exitX=0.5;exitY=1;exitDx=0;exitDy=0;edgeStyle=orthogonalEdgeStyle;strokeColor=#FF33FF;" parent="1" edge="1">
          <mxGeometry width="160" relative="1" as="geometry">
            <mxPoint x="-323" y="-340" as="sourcePoint" />
            <mxPoint x="-1231" y="349" as="targetPoint" />
            <Array as="points">
              <mxPoint x="-323" y="-152" />
              <mxPoint x="-1231" y="-152" />
            </Array>
          </mxGeometry>
        </mxCell>
        <mxCell id="lzSBGGlqFM9TEOrY7YJG-58" value="" style="endArrow=open;endFill=1;endSize=12;html=1;rounded=0;edgeStyle=orthogonalEdgeStyle;strokeColor=#FF3333;exitX=0.5;exitY=1;exitDx=0;exitDy=0;" parent="1" edge="1">
          <mxGeometry width="160" relative="1" as="geometry">
            <mxPoint x="-126.5" y="-336" as="sourcePoint" />
            <mxPoint x="-1281" y="346" as="targetPoint" />
            <Array as="points">
              <mxPoint x="-136" y="89" />
              <mxPoint x="-1281" y="89" />
              <mxPoint x="-1281" y="346" />
            </Array>
          </mxGeometry>
        </mxCell>
        <mxCell id="lzSBGGlqFM9TEOrY7YJG-59" value="" style="endArrow=open;endFill=1;endSize=12;html=1;rounded=0;exitX=0.5;exitY=1;exitDx=0;exitDy=0;edgeStyle=orthogonalEdgeStyle;strokeColor=#007FFF;" parent="1" edge="1">
          <mxGeometry width="160" relative="1" as="geometry">
            <mxPoint x="-1241" y="-340" as="sourcePoint" />
            <mxPoint x="-1207" y="348" as="targetPoint" />
            <Array as="points">
              <mxPoint x="-1241" y="-180" />
              <mxPoint x="-1207" y="-180" />
              <mxPoint x="-1207" y="346" />
            </Array>
          </mxGeometry>
        </mxCell>
        <mxCell id="lzSBGGlqFM9TEOrY7YJG-60" value="" style="endArrow=open;endFill=1;endSize=12;html=1;rounded=0;exitX=0.5;exitY=1;exitDx=0;exitDy=0;edgeStyle=orthogonalEdgeStyle;strokeColor=#990099;" parent="1" edge="1">
          <mxGeometry width="160" relative="1" as="geometry">
            <mxPoint x="259" y="-340" as="sourcePoint" />
            <mxPoint x="-1298" y="344" as="targetPoint" />
            <Array as="points">
              <mxPoint x="259" y="143" />
              <mxPoint x="-1298" y="143" />
            </Array>
          </mxGeometry>
        </mxCell>
        <mxCell id="lzSBGGlqFM9TEOrY7YJG-61" value="" style="endArrow=open;endFill=1;endSize=12;html=1;rounded=0;edgeStyle=orthogonalEdgeStyle;strokeColor=#009900;exitX=0.5;exitY=1;exitDx=0;exitDy=0;" parent="1" target="lzSBGGlqFM9TEOrY7YJG-53" edge="1">
          <mxGeometry width="160" relative="1" as="geometry">
            <mxPoint x="442" y="-340" as="sourcePoint" />
            <mxPoint x="-883" y="-81" as="targetPoint" />
            <Array as="points">
              <mxPoint x="442" y="174" />
              <mxPoint x="-1339" y="174" />
            </Array>
          </mxGeometry>
        </mxCell>
        <mxCell id="XL4-3dp0tsTEwj-AfAvo-2" value="&lt;p style=&quot;margin:0px;margin-top:4px;text-align:center;text-decoration:underline;&quot;&gt;&lt;b&gt;D2&lt;/b&gt;&lt;/p&gt;&lt;hr&gt;&lt;p style=&quot;margin:0px;margin-left:8px;&quot;&gt;&lt;span style=&quot;background-color: initial;&quot;&gt;name = D2&lt;/span&gt;&lt;/p&gt;&lt;p style=&quot;margin:0px;margin-left:8px;&quot;&gt;&lt;span style=&quot;background-color: initial;&quot;&gt;area = Utrecht&lt;/span&gt;&lt;/p&gt;&lt;p style=&quot;margin:0px;margin-left:8px;&quot;&gt;adaptation = drought&lt;/p&gt;&lt;p style=&quot;margin:0px;margin-left:8px;&quot;&gt;properties = fresh water availablity, soil type, groundwater levels&lt;/p&gt;&lt;p style=&quot;margin:0px;margin-left:8px;&quot;&gt;&lt;span style=&quot;background-color: initial;&quot;&gt;&lt;br&gt;&lt;/span&gt;&lt;/p&gt;" style="verticalAlign=top;align=left;overflow=fill;fontSize=12;fontFamily=Helvetica;html=1;whiteSpace=wrap;" parent="1" vertex="1">
          <mxGeometry x="-1138" y="345.5" width="207" height="123" as="geometry" />
        </mxCell>
        <mxCell id="XL4-3dp0tsTEwj-AfAvo-4" value="" style="endArrow=open;endFill=1;endSize=12;html=1;rounded=0;exitX=0.5;exitY=1;exitDx=0;exitDy=0;edgeStyle=orthogonalEdgeStyle;strokeColor=#FF33FF;entryX=0.099;entryY=0.025;entryDx=0;entryDy=0;entryPerimeter=0;" parent="1" target="XL4-3dp0tsTEwj-AfAvo-2" edge="1">
          <mxGeometry width="160" relative="1" as="geometry">
            <mxPoint x="-323" y="-340" as="sourcePoint" />
            <mxPoint x="-1067" y="339" as="targetPoint" />
            <Array as="points">
              <mxPoint x="-323" y="60" />
              <mxPoint x="-1118" y="60" />
              <mxPoint x="-1118" y="339" />
              <mxPoint x="-1118" y="339" />
            </Array>
          </mxGeometry>
        </mxCell>
        <mxCell id="XL4-3dp0tsTEwj-AfAvo-5" value="" style="endArrow=open;endFill=1;endSize=12;html=1;rounded=0;exitX=0.5;exitY=1;exitDx=0;exitDy=0;edgeStyle=orthogonalEdgeStyle;strokeColor=#007FFF;entryX=0.557;entryY=0.016;entryDx=0;entryDy=0;entryPerimeter=0;" parent="1" target="XL4-3dp0tsTEwj-AfAvo-2" edge="1">
          <mxGeometry width="160" relative="1" as="geometry">
            <mxPoint x="-1241" y="-340" as="sourcePoint" />
            <mxPoint x="-1004" y="334" as="targetPoint" />
            <Array as="points">
              <mxPoint x="-1241" y="-53" />
              <mxPoint x="-1023" y="-53" />
              <mxPoint x="-1023" y="334" />
            </Array>
          </mxGeometry>
        </mxCell>
        <mxCell id="XL4-3dp0tsTEwj-AfAvo-6" value="" style="endArrow=open;endFill=1;endSize=12;html=1;rounded=0;exitX=0.5;exitY=1;exitDx=0;exitDy=0;edgeStyle=orthogonalEdgeStyle;strokeColor=#007FFF;" parent="1" edge="1">
          <mxGeometry width="160" relative="1" as="geometry">
            <mxPoint x="62.5" y="-340" as="sourcePoint" />
            <mxPoint x="-966" y="345" as="targetPoint" />
            <Array as="points">
              <mxPoint x="63" y="115" />
              <mxPoint x="-966" y="115" />
              <mxPoint x="-966" y="325" />
            </Array>
          </mxGeometry>
        </mxCell>
        <mxCell id="XL4-3dp0tsTEwj-AfAvo-7" value="" style="endArrow=open;endFill=1;endSize=12;html=1;rounded=0;exitX=0.5;exitY=1;exitDx=0;exitDy=0;edgeStyle=orthogonalEdgeStyle;strokeColor=#990099;entryX=0.662;entryY=-0.019;entryDx=0;entryDy=0;entryPerimeter=0;" parent="1" target="XL4-3dp0tsTEwj-AfAvo-2" edge="1">
          <mxGeometry width="160" relative="1" as="geometry">
            <mxPoint x="259" y="-340" as="sourcePoint" />
            <mxPoint x="-991" y="307" as="targetPoint" />
            <Array as="points">
              <mxPoint x="259" y="143" />
              <mxPoint x="-1001" y="143" />
            </Array>
          </mxGeometry>
        </mxCell>
        <mxCell id="XL4-3dp0tsTEwj-AfAvo-8" value="&lt;p style=&quot;margin:0px;margin-top:4px;text-align:center;text-decoration:underline;&quot;&gt;&lt;b&gt;D3&lt;/b&gt;&lt;/p&gt;&lt;hr&gt;&lt;p style=&quot;margin:0px;margin-left:8px;&quot;&gt;&lt;span style=&quot;background-color: initial;&quot;&gt;name = D3&lt;/span&gt;&lt;/p&gt;&lt;p style=&quot;margin:0px;margin-left:8px;&quot;&gt;&lt;span style=&quot;background-color: initial;&quot;&gt;area = Utrecht&lt;/span&gt;&lt;/p&gt;&lt;p style=&quot;margin:0px;margin-left:8px;&quot;&gt;adaptation = drought&lt;/p&gt;&lt;p style=&quot;margin:0px;margin-left:8px;&quot;&gt;properties = fresh water availablity, soil type, groundwater levels, storage capacity&lt;/p&gt;&lt;p style=&quot;margin:0px;margin-left:8px;&quot;&gt;&lt;span style=&quot;background-color: initial;&quot;&gt;&lt;br&gt;&lt;/span&gt;&lt;/p&gt;" style="verticalAlign=top;align=left;overflow=fill;fontSize=12;fontFamily=Helvetica;html=1;whiteSpace=wrap;" parent="1" vertex="1">
          <mxGeometry x="-911" y="345.5" width="207" height="123" as="geometry" />
        </mxCell>
        <mxCell id="XL4-3dp0tsTEwj-AfAvo-9" value="&lt;p style=&quot;margin:0px;margin-top:4px;text-align:center;text-decoration:underline;&quot;&gt;&lt;b&gt;D4&lt;/b&gt;&lt;/p&gt;&lt;hr&gt;&lt;p style=&quot;margin:0px;margin-left:8px;&quot;&gt;&lt;span style=&quot;background-color: initial;&quot;&gt;name = D4&lt;/span&gt;&lt;/p&gt;&lt;p style=&quot;margin:0px;margin-left:8px;&quot;&gt;&lt;span style=&quot;background-color: initial;&quot;&gt;area = Utrecht&lt;/span&gt;&lt;/p&gt;&lt;p style=&quot;margin:0px;margin-left:8px;&quot;&gt;adaptation = drought&lt;/p&gt;&lt;p style=&quot;margin:0px;margin-left:8px;&quot;&gt;properties = soil type, geomechanics&lt;/p&gt;&lt;p style=&quot;margin:0px;margin-left:8px;&quot;&gt;&lt;span style=&quot;background-color: initial;&quot;&gt;&lt;br&gt;&lt;/span&gt;&lt;/p&gt;" style="verticalAlign=top;align=left;overflow=fill;fontSize=12;fontFamily=Helvetica;html=1;whiteSpace=wrap;" parent="1" vertex="1">
          <mxGeometry x="-685" y="345.5" width="207" height="123" as="geometry" />
        </mxCell>
        <mxCell id="XL4-3dp0tsTEwj-AfAvo-10" value="&lt;p style=&quot;margin:0px;margin-top:4px;text-align:center;text-decoration:underline;&quot;&gt;&lt;b&gt;H1&lt;/b&gt;&lt;/p&gt;&lt;hr&gt;&lt;p style=&quot;margin:0px;margin-left:8px;&quot;&gt;&lt;span style=&quot;background-color: initial;&quot;&gt;name = H1&lt;/span&gt;&lt;/p&gt;&lt;p style=&quot;margin:0px;margin-left:8px;&quot;&gt;&lt;span style=&quot;background-color: initial;&quot;&gt;area = Utrecht&lt;/span&gt;&lt;/p&gt;&lt;p style=&quot;margin:0px;margin-left:8px;&quot;&gt;adaptation = heat stress&lt;/p&gt;&lt;p style=&quot;margin:0px;margin-left:8px;&quot;&gt;properties = soil type, storage capacity, ground water level (?)&lt;/p&gt;&lt;p style=&quot;margin:0px;margin-left:8px;&quot;&gt;&lt;span style=&quot;background-color: initial;&quot;&gt;&lt;br&gt;&lt;/span&gt;&lt;/p&gt;" style="verticalAlign=top;align=left;overflow=fill;fontSize=12;fontFamily=Helvetica;html=1;whiteSpace=wrap;" parent="1" vertex="1">
          <mxGeometry x="-460" y="345.5" width="207" height="123" as="geometry" />
        </mxCell>
        <mxCell id="XL4-3dp0tsTEwj-AfAvo-12" value="" style="endArrow=open;endFill=1;endSize=12;html=1;rounded=0;exitX=0.5;exitY=1;exitDx=0;exitDy=0;edgeStyle=orthogonalEdgeStyle;strokeColor=#990099;" parent="1" target="XL4-3dp0tsTEwj-AfAvo-10" edge="1">
          <mxGeometry width="160" relative="1" as="geometry">
            <mxPoint x="808" y="-340" as="sourcePoint" />
            <mxPoint x="-326" y="340" as="targetPoint" />
            <Array as="points">
              <mxPoint x="808" y="246" />
              <mxPoint x="-326" y="246" />
            </Array>
          </mxGeometry>
        </mxCell>
        <mxCell id="XL4-3dp0tsTEwj-AfAvo-13" value="" style="endArrow=open;endFill=1;endSize=12;html=1;rounded=0;exitX=0.5;exitY=1;exitDx=0;exitDy=0;entryX=0.5;entryY=0;entryDx=0;entryDy=0;edgeStyle=orthogonalEdgeStyle;strokeColor=#009900;" parent="1" target="XL4-3dp0tsTEwj-AfAvo-10" edge="1">
          <mxGeometry width="160" relative="1" as="geometry">
            <mxPoint x="442" y="-340" as="sourcePoint" />
            <mxPoint x="127" y="-4" as="targetPoint" />
            <Array as="points">
              <mxPoint x="442" y="174" />
              <mxPoint x="-356" y="174" />
            </Array>
          </mxGeometry>
        </mxCell>
        <mxCell id="XL4-3dp0tsTEwj-AfAvo-14" value="" style="endArrow=diamondThin;endFill=1;endSize=24;html=1;rounded=0;entryX=0.5;entryY=0;entryDx=0;entryDy=0;exitX=0.5;exitY=1;exitDx=0;exitDy=0;edgeStyle=orthogonalEdgeStyle;" parent="1" source="0FXop1k1lJmk01pZkUKz-29" target="XrivS-1WhvhdIYvPr3YK-8" edge="1">
          <mxGeometry width="160" relative="1" as="geometry">
            <mxPoint x="2652" y="-487" as="sourcePoint" />
            <mxPoint x="2841" y="-313" as="targetPoint" />
            <Array as="points">
              <mxPoint x="2781" y="-484" />
              <mxPoint x="3056" y="-484" />
            </Array>
          </mxGeometry>
        </mxCell>
        <mxCell id="XL4-3dp0tsTEwj-AfAvo-17" value="&lt;p style=&quot;margin:0px;margin-top:4px;text-align:center;text-decoration:underline;&quot;&gt;&lt;b&gt;H2&lt;/b&gt;&lt;/p&gt;&lt;hr&gt;&lt;p style=&quot;margin:0px;margin-left:8px;&quot;&gt;&lt;span style=&quot;background-color: initial;&quot;&gt;name = H2&lt;/span&gt;&lt;/p&gt;&lt;p style=&quot;margin:0px;margin-left:8px;&quot;&gt;&lt;span style=&quot;background-color: initial;&quot;&gt;area = Utrecht&lt;/span&gt;&lt;/p&gt;&lt;p style=&quot;margin:0px;margin-left:8px;&quot;&gt;adaptation = heat stress&lt;/p&gt;&lt;p style=&quot;margin:0px;margin-left:8px;&quot;&gt;properties = soil type, storage capacity, ground water level (?)&lt;/p&gt;&lt;p style=&quot;margin:0px;margin-left:8px;&quot;&gt;&lt;span style=&quot;background-color: initial;&quot;&gt;&lt;br&gt;&lt;/span&gt;&lt;/p&gt;" style="verticalAlign=top;align=left;overflow=fill;fontSize=12;fontFamily=Helvetica;html=1;whiteSpace=wrap;" parent="1" vertex="1">
          <mxGeometry x="-234" y="345.5" width="207" height="123" as="geometry" />
        </mxCell>
        <mxCell id="XL4-3dp0tsTEwj-AfAvo-18" value="" style="endArrow=open;endFill=1;endSize=12;html=1;rounded=0;exitX=0.5;exitY=1;exitDx=0;exitDy=0;entryX=0.5;entryY=0;entryDx=0;entryDy=0;edgeStyle=orthogonalEdgeStyle;strokeColor=#009900;" parent="1" target="XL4-3dp0tsTEwj-AfAvo-17" edge="1">
          <mxGeometry width="160" relative="1" as="geometry">
            <mxPoint x="-509" y="-340" as="sourcePoint" />
            <mxPoint x="102" y="-71" as="targetPoint" />
            <Array as="points">
              <mxPoint x="-509" y="33" />
              <mxPoint x="-130" y="33" />
            </Array>
          </mxGeometry>
        </mxCell>
        <mxCell id="XL4-3dp0tsTEwj-AfAvo-19" value="" style="endArrow=open;endFill=1;endSize=12;html=1;rounded=0;exitX=0.5;exitY=1;exitDx=0;exitDy=0;entryX=0.5;entryY=0;entryDx=0;entryDy=0;edgeStyle=orthogonalEdgeStyle;strokeColor=#990099;" parent="1" target="XL4-3dp0tsTEwj-AfAvo-17" edge="1">
          <mxGeometry width="160" relative="1" as="geometry">
            <mxPoint x="259" y="-340" as="sourcePoint" />
            <mxPoint x="-131" y="37" as="targetPoint" />
            <Array as="points">
              <mxPoint x="259" y="143" />
              <mxPoint x="-130" y="143" />
            </Array>
          </mxGeometry>
        </mxCell>
        <mxCell id="XL4-3dp0tsTEwj-AfAvo-20" value="" style="endArrow=open;endFill=1;endSize=12;html=1;rounded=0;exitX=0.5;exitY=1;exitDx=0;exitDy=0;entryX=0.5;entryY=0;entryDx=0;entryDy=0;edgeStyle=orthogonalEdgeStyle;strokeColor=#009900;" parent="1" target="XL4-3dp0tsTEwj-AfAvo-17" edge="1">
          <mxGeometry width="160" relative="1" as="geometry">
            <mxPoint x="442" y="-340" as="sourcePoint" />
            <mxPoint x="219" y="105" as="targetPoint" />
            <Array as="points">
              <mxPoint x="442" y="174" />
              <mxPoint x="-130" y="174" />
            </Array>
          </mxGeometry>
        </mxCell>
        <mxCell id="XL4-3dp0tsTEwj-AfAvo-25" value="" style="endArrow=open;endFill=1;endSize=12;html=1;rounded=0;exitX=0.5;exitY=1;exitDx=0;exitDy=0;edgeStyle=orthogonalEdgeStyle;strokeColor=#009900;" parent="1" edge="1">
          <mxGeometry width="160" relative="1" as="geometry">
            <mxPoint x="442" y="-340" as="sourcePoint" />
            <mxPoint x="73" y="346" as="targetPoint" />
            <Array as="points">
              <mxPoint x="442" y="33" />
              <mxPoint x="73" y="33" />
              <mxPoint x="73" y="346" />
            </Array>
          </mxGeometry>
        </mxCell>
        <mxCell id="XL4-3dp0tsTEwj-AfAvo-27" value="" style="endArrow=open;endFill=1;endSize=12;html=1;rounded=0;exitX=0.5;exitY=1;exitDx=0;exitDy=0;edgeStyle=orthogonalEdgeStyle;strokeColor=#009900;" parent="1" edge="1">
          <mxGeometry width="160" relative="1" as="geometry">
            <mxPoint x="-875" y="-340" as="sourcePoint" />
            <mxPoint x="49" y="347" as="targetPoint" />
            <Array as="points">
              <mxPoint x="-875" y="-15" />
              <mxPoint x="71" y="-15" />
              <mxPoint x="71" y="56" />
              <mxPoint x="49" y="56" />
              <mxPoint x="49" y="347" />
            </Array>
          </mxGeometry>
        </mxCell>
        <mxCell id="XL4-3dp0tsTEwj-AfAvo-29" value="" style="endArrow=open;endFill=1;endSize=12;html=1;rounded=0;exitX=0.5;exitY=1;exitDx=0;exitDy=0;edgeStyle=orthogonalEdgeStyle;strokeColor=#990099;" parent="1" edge="1">
          <mxGeometry width="160" relative="1" as="geometry">
            <mxPoint x="259" y="-340" as="sourcePoint" />
            <mxPoint x="105" y="346" as="targetPoint" />
            <Array as="points">
              <mxPoint x="259" y="143" />
              <mxPoint x="105" y="143" />
              <mxPoint x="105" y="346" />
            </Array>
          </mxGeometry>
        </mxCell>
        <mxCell id="XL4-3dp0tsTEwj-AfAvo-33" value="" style="endArrow=open;endFill=1;endSize=12;html=1;rounded=0;exitX=0.5;exitY=1;exitDx=0;exitDy=0;edgeStyle=orthogonalEdgeStyle;strokeColor=#009900;" parent="1" target="XL4-3dp0tsTEwj-AfAvo-24" edge="1">
          <mxGeometry width="160" relative="1" as="geometry">
            <mxPoint x="1181.5" y="-372" as="sourcePoint" />
            <mxPoint x="610" y="58" as="targetPoint" />
            <Array as="points">
              <mxPoint x="1174" y="306" />
              <mxPoint x="125" y="306" />
            </Array>
          </mxGeometry>
        </mxCell>
        <mxCell id="XL4-3dp0tsTEwj-AfAvo-34" value="&lt;p style=&quot;margin:0px;margin-top:4px;text-align:center;text-decoration:underline;&quot;&gt;&lt;b&gt;H4&lt;/b&gt;&lt;/p&gt;&lt;hr&gt;&lt;p style=&quot;margin:0px;margin-left:8px;&quot;&gt;&lt;span style=&quot;background-color: initial;&quot;&gt;name = H4&lt;/span&gt;&lt;/p&gt;&lt;p style=&quot;margin:0px;margin-left:8px;&quot;&gt;&lt;span style=&quot;background-color: initial;&quot;&gt;area = Utrecht&lt;/span&gt;&lt;/p&gt;&lt;p style=&quot;margin:0px;margin-left:8px;&quot;&gt;adaptation = heat stress&lt;/p&gt;&lt;p style=&quot;margin:0px;margin-left:8px;&quot;&gt;properties = geomechanics&lt;/p&gt;&lt;p style=&quot;margin:0px;margin-left:8px;&quot;&gt;&lt;span style=&quot;background-color: initial;&quot;&gt;&lt;br&gt;&lt;/span&gt;&lt;/p&gt;" style="verticalAlign=top;align=left;overflow=fill;fontSize=12;fontFamily=Helvetica;html=1;whiteSpace=wrap;" parent="1" vertex="1">
          <mxGeometry x="214" y="345.5" width="207" height="123" as="geometry" />
        </mxCell>
        <mxCell id="XL4-3dp0tsTEwj-AfAvo-35" value="" style="endArrow=open;endFill=1;endSize=12;html=1;rounded=0;exitX=0.5;exitY=1;exitDx=0;exitDy=0;entryX=0.5;entryY=0;entryDx=0;entryDy=0;edgeStyle=orthogonalEdgeStyle;strokeColor=#990099;" parent="1" target="XL4-3dp0tsTEwj-AfAvo-34" edge="1">
          <mxGeometry width="160" relative="1" as="geometry">
            <mxPoint x="808" y="-340" as="sourcePoint" />
            <mxPoint x="900" y="-21" as="targetPoint" />
            <Array as="points">
              <mxPoint x="808" y="247" />
              <mxPoint x="317" y="247" />
            </Array>
          </mxGeometry>
        </mxCell>
        <mxCell id="XL4-3dp0tsTEwj-AfAvo-36" value="" style="endArrow=open;endFill=1;endSize=12;html=1;rounded=0;exitX=0.5;exitY=1;exitDx=0;exitDy=0;entryX=0.65;entryY=0.002;entryDx=0;entryDy=0;edgeStyle=orthogonalEdgeStyle;strokeColor=#6666FF;entryPerimeter=0;" parent="1" target="XL4-3dp0tsTEwj-AfAvo-34" edge="1">
          <mxGeometry width="160" relative="1" as="geometry">
            <mxPoint x="991" y="-340" as="sourcePoint" />
            <mxPoint x="752" y="3" as="targetPoint" />
            <Array as="points">
              <mxPoint x="1005" y="-340" />
              <mxPoint x="1005" y="280" />
              <mxPoint x="349" y="280" />
              <mxPoint x="349" y="346" />
            </Array>
          </mxGeometry>
        </mxCell>
        <mxCell id="XL4-3dp0tsTEwj-AfAvo-37" value="&lt;p style=&quot;margin:0px;margin-top:4px;text-align:center;text-decoration:underline;&quot;&gt;&lt;b&gt;H5&lt;/b&gt;&lt;/p&gt;&lt;hr&gt;&lt;p style=&quot;margin:0px;margin-left:8px;&quot;&gt;&lt;span style=&quot;background-color: initial;&quot;&gt;name = H5&lt;/span&gt;&lt;/p&gt;&lt;p style=&quot;margin:0px;margin-left:8px;&quot;&gt;&lt;span style=&quot;background-color: initial;&quot;&gt;area = Utrecht&lt;/span&gt;&lt;/p&gt;&lt;p style=&quot;margin:0px;margin-left:8px;&quot;&gt;adaptation = heat stress&lt;/p&gt;&lt;p style=&quot;margin:0px;margin-left:8px;&quot;&gt;properties = soil type, groundwater level&lt;/p&gt;&lt;p style=&quot;margin:0px;margin-left:8px;&quot;&gt;&lt;span style=&quot;background-color: initial;&quot;&gt;&lt;br&gt;&lt;/span&gt;&lt;/p&gt;" style="verticalAlign=top;align=left;overflow=fill;fontSize=12;fontFamily=Helvetica;html=1;whiteSpace=wrap;" parent="1" vertex="1">
          <mxGeometry x="438" y="345.5" width="207" height="123" as="geometry" />
        </mxCell>
        <mxCell id="XL4-3dp0tsTEwj-AfAvo-38" value="" style="endArrow=open;endFill=1;endSize=12;html=1;rounded=0;entryX=0.5;entryY=0;entryDx=0;entryDy=0;edgeStyle=orthogonalEdgeStyle;strokeColor=#990099;exitX=0.5;exitY=1;exitDx=0;exitDy=0;" parent="1" target="XL4-3dp0tsTEwj-AfAvo-37" edge="1">
          <mxGeometry width="160" relative="1" as="geometry">
            <mxPoint x="259" y="-340" as="sourcePoint" />
            <mxPoint x="738" y="-195" as="targetPoint" />
            <Array as="points">
              <mxPoint x="259" y="143" />
              <mxPoint x="541" y="143" />
            </Array>
          </mxGeometry>
        </mxCell>
        <mxCell id="XL4-3dp0tsTEwj-AfAvo-43" value="&lt;p style=&quot;margin:0px;margin-top:4px;text-align:center;text-decoration:underline;&quot;&gt;&lt;b&gt;B1&lt;/b&gt;&lt;/p&gt;&lt;hr&gt;&lt;p style=&quot;margin:0px;margin-left:8px;&quot;&gt;&lt;span style=&quot;background-color: initial;&quot;&gt;name = B1&lt;/span&gt;&lt;/p&gt;&lt;p style=&quot;margin:0px;margin-left:8px;&quot;&gt;&lt;span style=&quot;background-color: initial;&quot;&gt;area = Utrecht&lt;/span&gt;&lt;/p&gt;&lt;p style=&quot;margin:0px;margin-left:8px;&quot;&gt;adaptation = biodiversity&lt;/p&gt;&lt;p style=&quot;margin:0px;margin-left:8px;&quot;&gt;properties = soil type, groundwater level&lt;/p&gt;&lt;p style=&quot;margin:0px;margin-left:8px;&quot;&gt;&lt;span style=&quot;background-color: initial;&quot;&gt;&lt;br&gt;&lt;/span&gt;&lt;/p&gt;" style="verticalAlign=top;align=left;overflow=fill;fontSize=12;fontFamily=Helvetica;html=1;whiteSpace=wrap;" parent="1" vertex="1">
          <mxGeometry x="662" y="344" width="207" height="123" as="geometry" />
        </mxCell>
        <mxCell id="XL4-3dp0tsTEwj-AfAvo-46" value="" style="endArrow=open;endFill=1;endSize=12;html=1;rounded=0;exitX=0.5;exitY=1;exitDx=0;exitDy=0;entryX=0.5;entryY=0;entryDx=0;entryDy=0;edgeStyle=orthogonalEdgeStyle;strokeColor=#009900;" parent="1" target="XL4-3dp0tsTEwj-AfAvo-43" edge="1">
          <mxGeometry width="160" relative="1" as="geometry">
            <mxPoint x="-875" y="-340" as="sourcePoint" />
            <mxPoint x="972" y="-90" as="targetPoint" />
            <Array as="points">
              <mxPoint x="-875" y="-15" />
              <mxPoint x="765" y="-15" />
            </Array>
          </mxGeometry>
        </mxCell>
        <mxCell id="XL4-3dp0tsTEwj-AfAvo-47" value="&lt;p style=&quot;margin:0px;margin-top:4px;text-align:center;text-decoration:underline;&quot;&gt;&lt;b&gt;BO1&lt;/b&gt;&lt;/p&gt;&lt;hr&gt;&lt;p style=&quot;margin:0px;margin-left:8px;&quot;&gt;&lt;span style=&quot;background-color: initial;&quot;&gt;name = BO1&lt;/span&gt;&lt;/p&gt;&lt;p style=&quot;margin:0px;margin-left:8px;&quot;&gt;&lt;span style=&quot;background-color: initial;&quot;&gt;area = Utrecht&lt;/span&gt;&lt;/p&gt;&lt;p style=&quot;margin:0px;margin-left:8px;&quot;&gt;adaptation = subsidence&lt;/p&gt;&lt;p style=&quot;margin:0px;margin-left:8px;&quot;&gt;properties = soil type, groundwater level, geomechanics&lt;/p&gt;&lt;p style=&quot;margin:0px;margin-left:8px;&quot;&gt;&lt;span style=&quot;background-color: initial;&quot;&gt;&lt;br&gt;&lt;/span&gt;&lt;/p&gt;" style="verticalAlign=top;align=left;overflow=fill;fontSize=12;fontFamily=Helvetica;html=1;whiteSpace=wrap;" parent="1" vertex="1">
          <mxGeometry x="-2482" y="344" width="207" height="123" as="geometry" />
        </mxCell>
        <mxCell id="XL4-3dp0tsTEwj-AfAvo-48" value="&lt;p style=&quot;margin:0px;margin-top:4px;text-align:center;text-decoration:underline;&quot;&gt;&lt;b&gt;BO2&lt;/b&gt;&lt;/p&gt;&lt;hr&gt;&lt;p style=&quot;margin:0px;margin-left:8px;&quot;&gt;&lt;span style=&quot;background-color: initial;&quot;&gt;name = BO2&lt;/span&gt;&lt;/p&gt;&lt;p style=&quot;margin:0px;margin-left:8px;&quot;&gt;&lt;span style=&quot;background-color: initial;&quot;&gt;area = Utrecht&lt;/span&gt;&lt;/p&gt;&lt;p style=&quot;margin:0px;margin-left:8px;&quot;&gt;adaptation = subsidence&lt;/p&gt;&lt;p style=&quot;margin:0px;margin-left:8px;&quot;&gt;properties = soil type, groundwater level, geomechanics&lt;/p&gt;&lt;p style=&quot;margin:0px;margin-left:8px;&quot;&gt;&lt;span style=&quot;background-color: initial;&quot;&gt;&lt;br&gt;&lt;/span&gt;&lt;/p&gt;" style="verticalAlign=top;align=left;overflow=fill;fontSize=12;fontFamily=Helvetica;html=1;whiteSpace=wrap;" parent="1" vertex="1">
          <mxGeometry x="-2257" y="345.5" width="207" height="123" as="geometry" />
        </mxCell>
        <mxCell id="XL4-3dp0tsTEwj-AfAvo-49" value="" style="endArrow=open;endFill=1;endSize=12;html=1;rounded=0;exitX=0.5;exitY=1;exitDx=0;exitDy=0;entryX=0.5;entryY=0;entryDx=0;entryDy=0;edgeStyle=orthogonalEdgeStyle;strokeColor=#009900;" parent="1" target="XL4-3dp0tsTEwj-AfAvo-43" edge="1">
          <mxGeometry width="160" relative="1" as="geometry">
            <mxPoint x="-509" y="-340" as="sourcePoint" />
            <mxPoint x="376" y="-42" as="targetPoint" />
            <Array as="points">
              <mxPoint x="-509" y="32" />
              <mxPoint x="766" y="32" />
            </Array>
          </mxGeometry>
        </mxCell>
        <mxCell id="XL4-3dp0tsTEwj-AfAvo-50" value="" style="endArrow=open;endFill=1;endSize=12;html=1;rounded=0;exitX=0.5;exitY=1;exitDx=0;exitDy=0;entryX=0.5;entryY=0;entryDx=0;entryDy=0;edgeStyle=orthogonalEdgeStyle;strokeColor=#009900;" parent="1" target="XL4-3dp0tsTEwj-AfAvo-43" edge="1">
          <mxGeometry width="160" relative="1" as="geometry">
            <mxPoint x="1181.5" y="-372" as="sourcePoint" />
            <mxPoint x="1122" y="1" as="targetPoint" />
            <Array as="points">
              <mxPoint x="1174" y="306" />
              <mxPoint x="766" y="306" />
            </Array>
          </mxGeometry>
        </mxCell>
        <mxCell id="XL4-3dp0tsTEwj-AfAvo-51" value="" style="endArrow=open;endFill=1;endSize=12;html=1;rounded=0;exitX=0.5;exitY=1;exitDx=0;exitDy=0;entryX=0.5;entryY=0;entryDx=0;entryDy=0;edgeStyle=orthogonalEdgeStyle;strokeColor=#007FFF;" parent="1" target="XL4-3dp0tsTEwj-AfAvo-43" edge="1">
          <mxGeometry width="160" relative="1" as="geometry">
            <mxPoint x="-1241" y="-340" as="sourcePoint" />
            <mxPoint x="665" y="-90" as="targetPoint" />
            <Array as="points">
              <mxPoint x="-1241" y="-53" />
              <mxPoint x="765" y="-53" />
            </Array>
          </mxGeometry>
        </mxCell>
        <mxCell id="XL4-3dp0tsTEwj-AfAvo-52" value="" style="endArrow=open;endFill=1;endSize=12;html=1;rounded=0;exitX=0.5;exitY=1;exitDx=0;exitDy=0;edgeStyle=orthogonalEdgeStyle;strokeColor=#990099;" parent="1" edge="1">
          <mxGeometry width="160" relative="1" as="geometry">
            <mxPoint x="259" y="-340" as="sourcePoint" />
            <mxPoint x="749" y="343" as="targetPoint" />
            <Array as="points">
              <mxPoint x="259" y="141" />
              <mxPoint x="749" y="141" />
              <mxPoint x="749" y="310" />
              <mxPoint x="748" y="310" />
              <mxPoint x="748" y="343" />
            </Array>
          </mxGeometry>
        </mxCell>
        <mxCell id="XL4-3dp0tsTEwj-AfAvo-53" value="" style="endArrow=open;endFill=1;endSize=12;html=1;rounded=0;exitX=0.5;exitY=1;exitDx=0;exitDy=0;edgeStyle=orthogonalEdgeStyle;strokeColor=#009900;entryX=0.319;entryY=0.018;entryDx=0;entryDy=0;entryPerimeter=0;" parent="1" target="XL4-3dp0tsTEwj-AfAvo-43" edge="1">
          <mxGeometry width="160" relative="1" as="geometry">
            <mxPoint x="442" y="-340" as="sourcePoint" />
            <mxPoint x="741" y="329" as="targetPoint" />
            <Array as="points">
              <mxPoint x="442" y="175" />
              <mxPoint x="729" y="175" />
              <mxPoint x="729" y="329" />
              <mxPoint x="728" y="329" />
            </Array>
          </mxGeometry>
        </mxCell>
        <mxCell id="XL4-3dp0tsTEwj-AfAvo-54" value="" style="endArrow=open;endFill=1;endSize=12;html=1;rounded=0;exitX=0.5;exitY=1;exitDx=0;exitDy=0;edgeStyle=orthogonalEdgeStyle;strokeColor=#990099;entryX=0.622;entryY=0;entryDx=0;entryDy=0;entryPerimeter=0;" parent="1" target="XL4-3dp0tsTEwj-AfAvo-43" edge="1">
          <mxGeometry width="160" relative="1" as="geometry">
            <mxPoint x="808" y="-340" as="sourcePoint" />
            <mxPoint x="785" y="328" as="targetPoint" />
            <Array as="points">
              <mxPoint x="808" y="246" />
              <mxPoint x="791" y="246" />
              <mxPoint x="791" y="328" />
            </Array>
          </mxGeometry>
        </mxCell>
        <mxCell id="XL4-3dp0tsTEwj-AfAvo-55" value="&lt;p style=&quot;margin:0px;margin-top:4px;text-align:center;text-decoration:underline;&quot;&gt;&lt;b&gt;B2&lt;/b&gt;&lt;/p&gt;&lt;hr&gt;&lt;p style=&quot;margin:0px;margin-left:8px;&quot;&gt;&lt;span style=&quot;background-color: initial;&quot;&gt;name = B2&lt;/span&gt;&lt;/p&gt;&lt;p style=&quot;margin:0px;margin-left:8px;&quot;&gt;&lt;span style=&quot;background-color: initial;&quot;&gt;area = Utrecht&lt;/span&gt;&lt;/p&gt;&lt;p style=&quot;margin:0px;margin-left:8px;&quot;&gt;adaptation = biodiversity&lt;/p&gt;&lt;p style=&quot;margin:0px;margin-left:8px;&quot;&gt;properties = soil type, groundwater level, storage capacity&lt;/p&gt;&lt;p style=&quot;margin:0px;margin-left:8px;&quot;&gt;&lt;span style=&quot;background-color: initial;&quot;&gt;&lt;br&gt;&lt;/span&gt;&lt;/p&gt;" style="verticalAlign=top;align=left;overflow=fill;fontSize=12;fontFamily=Helvetica;html=1;whiteSpace=wrap;" parent="1" vertex="1">
          <mxGeometry x="887" y="344" width="207" height="123" as="geometry" />
        </mxCell>
        <mxCell id="XL4-3dp0tsTEwj-AfAvo-57" value="" style="endArrow=open;endFill=1;endSize=12;html=1;rounded=0;exitX=0.5;exitY=1;exitDx=0;exitDy=0;edgeStyle=orthogonalEdgeStyle;strokeColor=#009900;entryX=0.5;entryY=0;entryDx=0;entryDy=0;" parent="1" target="XL4-3dp0tsTEwj-AfAvo-55" edge="1">
          <mxGeometry width="160" relative="1" as="geometry">
            <mxPoint x="-875" y="-340" as="sourcePoint" />
            <mxPoint x="1012" y="318" as="targetPoint" />
            <Array as="points">
              <mxPoint x="-875" y="-15" />
              <mxPoint x="990" y="-15" />
            </Array>
          </mxGeometry>
        </mxCell>
        <mxCell id="XL4-3dp0tsTEwj-AfAvo-58" value="" style="endArrow=open;endFill=1;endSize=12;html=1;rounded=0;exitX=0.5;exitY=1;exitDx=0;exitDy=0;edgeStyle=orthogonalEdgeStyle;strokeColor=#990099;" parent="1" target="XL4-3dp0tsTEwj-AfAvo-55" edge="1">
          <mxGeometry width="160" relative="1" as="geometry">
            <mxPoint x="259" y="-340" as="sourcePoint" />
            <mxPoint x="969" y="339" as="targetPoint" />
            <Array as="points">
              <mxPoint x="259" y="142" />
              <mxPoint x="946" y="142" />
            </Array>
          </mxGeometry>
        </mxCell>
        <mxCell id="XL4-3dp0tsTEwj-AfAvo-60" value="" style="endArrow=open;endFill=1;endSize=12;html=1;rounded=0;exitX=0.5;exitY=1;exitDx=0;exitDy=0;entryX=0.663;entryY=0.001;entryDx=0;entryDy=0;edgeStyle=orthogonalEdgeStyle;strokeColor=#009900;entryPerimeter=0;" parent="1" target="XL4-3dp0tsTEwj-AfAvo-55" edge="1">
          <mxGeometry width="160" relative="1" as="geometry">
            <mxPoint x="1181.5" y="-372" as="sourcePoint" />
            <mxPoint x="1266" y="-41" as="targetPoint" />
            <Array as="points">
              <mxPoint x="1174" y="305" />
              <mxPoint x="1024" y="305" />
              <mxPoint x="1024" y="344" />
            </Array>
          </mxGeometry>
        </mxCell>
        <mxCell id="XL4-3dp0tsTEwj-AfAvo-61" value="" style="endArrow=open;endFill=1;endSize=12;html=1;rounded=0;exitX=0.5;exitY=1;exitDx=0;exitDy=0;edgeStyle=orthogonalEdgeStyle;strokeColor=#009900;entryX=0.179;entryY=-0.011;entryDx=0;entryDy=0;entryPerimeter=0;" parent="1" target="XL4-3dp0tsTEwj-AfAvo-55" edge="1">
          <mxGeometry width="160" relative="1" as="geometry">
            <mxPoint x="442" y="-340" as="sourcePoint" />
            <mxPoint x="916" y="340" as="targetPoint" />
            <Array as="points">
              <mxPoint x="442" y="174" />
              <mxPoint x="925" y="174" />
              <mxPoint x="925" y="343" />
            </Array>
          </mxGeometry>
        </mxCell>
        <mxCell id="XL4-3dp0tsTEwj-AfAvo-62" value="&lt;p style=&quot;margin:0px;margin-top:4px;text-align:center;text-decoration:underline;&quot;&gt;&lt;b&gt;B3&lt;/b&gt;&lt;/p&gt;&lt;hr&gt;&lt;p style=&quot;margin:0px;margin-left:8px;&quot;&gt;&lt;span style=&quot;background-color: initial;&quot;&gt;name = B3&lt;/span&gt;&lt;/p&gt;&lt;p style=&quot;margin:0px;margin-left:8px;&quot;&gt;&lt;span style=&quot;background-color: initial;&quot;&gt;area = Utrecht&lt;/span&gt;&lt;/p&gt;&lt;p style=&quot;margin:0px;margin-left:8px;&quot;&gt;adaptation = biodiversity&lt;/p&gt;&lt;p style=&quot;margin:0px;margin-left:8px;&quot;&gt;properties = soil type, groundwater level, storage capacity&lt;/p&gt;&lt;p style=&quot;margin:0px;margin-left:8px;&quot;&gt;&lt;span style=&quot;background-color: initial;&quot;&gt;&lt;br&gt;&lt;/span&gt;&lt;/p&gt;" style="verticalAlign=top;align=left;overflow=fill;fontSize=12;fontFamily=Helvetica;html=1;whiteSpace=wrap;" parent="1" vertex="1">
          <mxGeometry x="1112" y="344" width="207" height="123" as="geometry" />
        </mxCell>
        <mxCell id="XL4-3dp0tsTEwj-AfAvo-65" value="" style="endArrow=open;endFill=1;endSize=12;html=1;rounded=0;exitX=0.5;exitY=1;exitDx=0;exitDy=0;edgeStyle=orthogonalEdgeStyle;strokeColor=#009900;entryX=0.5;entryY=0;entryDx=0;entryDy=0;" parent="1" target="XL4-3dp0tsTEwj-AfAvo-62" edge="1">
          <mxGeometry width="160" relative="1" as="geometry">
            <mxPoint x="-875" y="-340" as="sourcePoint" />
            <mxPoint x="1187" y="332" as="targetPoint" />
            <Array as="points">
              <mxPoint x="-875" y="-15" />
              <mxPoint x="1216" y="-15" />
            </Array>
          </mxGeometry>
        </mxCell>
        <mxCell id="XL4-3dp0tsTEwj-AfAvo-66" value="" style="endArrow=open;endFill=1;endSize=12;html=1;rounded=0;exitX=0.5;exitY=1;exitDx=0;exitDy=0;edgeStyle=orthogonalEdgeStyle;strokeColor=#009900;entryX=0.36;entryY=0.017;entryDx=0;entryDy=0;entryPerimeter=0;" parent="1" target="XL4-3dp0tsTEwj-AfAvo-62" edge="1">
          <mxGeometry width="160" relative="1" as="geometry">
            <mxPoint x="-509" y="-340" as="sourcePoint" />
            <mxPoint x="1192" y="316" as="targetPoint" />
            <Array as="points">
              <mxPoint x="-509" y="33" />
              <mxPoint x="1186" y="33" />
              <mxPoint x="1186" y="342" />
            </Array>
          </mxGeometry>
        </mxCell>
        <mxCell id="XL4-3dp0tsTEwj-AfAvo-67" value="" style="endArrow=open;endFill=1;endSize=12;html=1;rounded=0;exitX=0.5;exitY=1;exitDx=0;exitDy=0;edgeStyle=orthogonalEdgeStyle;strokeColor=#007FFF;entryX=0.195;entryY=0.004;entryDx=0;entryDy=0;entryPerimeter=0;" parent="1" target="XL4-3dp0tsTEwj-AfAvo-62" edge="1">
          <mxGeometry width="160" relative="1" as="geometry">
            <mxPoint x="-1241" y="-340" as="sourcePoint" />
            <mxPoint x="1189" y="299" as="targetPoint" />
            <Array as="points">
              <mxPoint x="-1241" y="-54" />
              <mxPoint x="1152" y="-54" />
            </Array>
          </mxGeometry>
        </mxCell>
        <mxCell id="XL4-3dp0tsTEwj-AfAvo-68" value="" style="endArrow=open;endFill=1;endSize=12;html=1;rounded=0;exitX=0.5;exitY=1;exitDx=0;exitDy=0;edgeStyle=orthogonalEdgeStyle;strokeColor=#990099;entryX=0.263;entryY=0.002;entryDx=0;entryDy=0;entryPerimeter=0;" parent="1" target="XL4-3dp0tsTEwj-AfAvo-62" edge="1">
          <mxGeometry width="160" relative="1" as="geometry">
            <mxPoint x="259" y="-340" as="sourcePoint" />
            <mxPoint x="1249" y="329" as="targetPoint" />
            <Array as="points">
              <mxPoint x="259" y="142" />
              <mxPoint x="1166" y="142" />
              <mxPoint x="1166" y="344" />
            </Array>
          </mxGeometry>
        </mxCell>
        <mxCell id="XL4-3dp0tsTEwj-AfAvo-69" value="" style="endArrow=open;endFill=1;endSize=12;html=1;rounded=0;exitX=0.5;exitY=1;exitDx=0;exitDy=0;strokeColor=#009900;edgeStyle=orthogonalEdgeStyle;" parent="1" edge="1">
          <mxGeometry width="160" relative="1" as="geometry">
            <mxPoint x="1181.5" y="-372" as="sourcePoint" />
            <mxPoint x="1138" y="345" as="targetPoint" />
            <Array as="points">
              <mxPoint x="1174" y="305" />
              <mxPoint x="1138" y="305" />
              <mxPoint x="1138" y="343" />
            </Array>
          </mxGeometry>
        </mxCell>
        <mxCell id="XL4-3dp0tsTEwj-AfAvo-70" value="" style="endArrow=open;endFill=1;endSize=12;html=1;rounded=0;exitX=0.5;exitY=1;exitDx=0;exitDy=0;edgeStyle=orthogonalEdgeStyle;strokeColor=#009900;entryX=0.75;entryY=0;entryDx=0;entryDy=0;" parent="1" target="XL4-3dp0tsTEwj-AfAvo-62" edge="1">
          <mxGeometry width="160" relative="1" as="geometry">
            <mxPoint x="442" y="-340" as="sourcePoint" />
            <mxPoint x="1234" y="310" as="targetPoint" />
            <Array as="points">
              <mxPoint x="442" y="175" />
              <mxPoint x="1267" y="175" />
              <mxPoint x="1267" y="344" />
            </Array>
          </mxGeometry>
        </mxCell>
        <mxCell id="XL4-3dp0tsTEwj-AfAvo-71" value="" style="endArrow=open;endFill=1;endSize=12;html=1;rounded=0;exitX=0.5;exitY=1;exitDx=0;exitDy=0;edgeStyle=orthogonalEdgeStyle;strokeColor=#990099;" parent="1" edge="1">
          <mxGeometry width="160" relative="1" as="geometry">
            <mxPoint x="808" y="-340" as="sourcePoint" />
            <mxPoint x="1119" y="343" as="targetPoint" />
            <Array as="points">
              <mxPoint x="808" y="247" />
              <mxPoint x="1119" y="247" />
            </Array>
          </mxGeometry>
        </mxCell>
        <mxCell id="XL4-3dp0tsTEwj-AfAvo-72" value="&lt;p style=&quot;margin:0px;margin-top:4px;text-align:center;text-decoration:underline;&quot;&gt;&lt;b&gt;V1&lt;/b&gt;&lt;/p&gt;&lt;hr&gt;&lt;p style=&quot;margin:0px;margin-left:8px;&quot;&gt;&lt;span style=&quot;background-color: initial;&quot;&gt;name = V1&lt;/span&gt;&lt;/p&gt;&lt;p style=&quot;margin:0px;margin-left:8px;&quot;&gt;&lt;span style=&quot;background-color: initial;&quot;&gt;area = Utrecht&lt;/span&gt;&lt;/p&gt;&lt;p style=&quot;margin:0px;margin-left:8px;&quot;&gt;adaptation = flood&lt;/p&gt;&lt;p style=&quot;margin:0px;margin-left:8px;&quot;&gt;properties = soil type, geomechanics&lt;/p&gt;&lt;p style=&quot;margin:0px;margin-left:8px;&quot;&gt;&lt;span style=&quot;background-color: initial;&quot;&gt;&lt;br&gt;&lt;/span&gt;&lt;/p&gt;" style="verticalAlign=top;align=left;overflow=fill;fontSize=12;fontFamily=Helvetica;html=1;whiteSpace=wrap;" parent="1" vertex="1">
          <mxGeometry x="1343" y="345.5" width="207" height="123" as="geometry" />
        </mxCell>
        <mxCell id="XL4-3dp0tsTEwj-AfAvo-76" value="" style="endArrow=open;endFill=1;endSize=12;html=1;rounded=0;exitX=0.5;exitY=1;exitDx=0;exitDy=0;entryX=0.441;entryY=-0.004;entryDx=0;entryDy=0;edgeStyle=orthogonalEdgeStyle;strokeColor=#009C9C;entryPerimeter=0;" parent="1" target="XL4-3dp0tsTEwj-AfAvo-72" edge="1">
          <mxGeometry width="160" relative="1" as="geometry">
            <mxPoint x="1357" y="-340" as="sourcePoint" />
            <mxPoint x="1552" y="-143" as="targetPoint" />
            <Array as="points">
              <mxPoint x="1357" y="57" />
              <mxPoint x="1434" y="57" />
            </Array>
          </mxGeometry>
        </mxCell>
        <mxCell id="XL4-3dp0tsTEwj-AfAvo-79" value="" style="endArrow=open;endFill=1;endSize=12;html=1;rounded=0;exitX=0.5;exitY=1;exitDx=0;exitDy=0;entryX=0.523;entryY=-0.001;entryDx=0;entryDy=0;edgeStyle=orthogonalEdgeStyle;strokeColor=#6666FF;entryPerimeter=0;" parent="1" target="XL4-3dp0tsTEwj-AfAvo-72" edge="1">
          <mxGeometry width="160" relative="1" as="geometry">
            <mxPoint x="1540" y="-340" as="sourcePoint" />
            <mxPoint x="1594" y="-209" as="targetPoint" />
            <Array as="points">
              <mxPoint x="1540" y="96" />
              <mxPoint x="1451" y="96" />
            </Array>
          </mxGeometry>
        </mxCell>
        <mxCell id="XL4-3dp0tsTEwj-AfAvo-84" value="" style="endArrow=open;endFill=1;endSize=12;html=1;rounded=0;exitX=0.5;exitY=1;exitDx=0;exitDy=0;edgeStyle=orthogonalEdgeStyle;entryX=0.354;entryY=-0.02;entryDx=0;entryDy=0;entryPerimeter=0;" parent="1" target="XL4-3dp0tsTEwj-AfAvo-72" edge="1">
          <mxGeometry width="160" relative="1" as="geometry">
            <mxPoint x="-1058" y="-340" as="sourcePoint" />
            <mxPoint x="1424" y="325" as="targetPoint" />
            <Array as="points">
              <mxPoint x="-1058" y="-36" />
              <mxPoint x="1416" y="-36" />
            </Array>
          </mxGeometry>
        </mxCell>
        <mxCell id="XL4-3dp0tsTEwj-AfAvo-87" value="&lt;p style=&quot;margin:0px;margin-top:4px;text-align:center;text-decoration:underline;&quot;&gt;&lt;b&gt;V2&lt;/b&gt;&lt;/p&gt;&lt;hr&gt;&lt;p style=&quot;margin:0px;margin-left:8px;&quot;&gt;&lt;span style=&quot;background-color: initial;&quot;&gt;name = V2&lt;/span&gt;&lt;/p&gt;&lt;p style=&quot;margin:0px;margin-left:8px;&quot;&gt;&lt;span style=&quot;background-color: initial;&quot;&gt;area = Utrecht&lt;/span&gt;&lt;/p&gt;&lt;p style=&quot;margin:0px;margin-left:8px;&quot;&gt;adaptation = flood&lt;/p&gt;&lt;p style=&quot;margin:0px;margin-left:8px;&quot;&gt;properties = soil type, geomechanics&lt;/p&gt;&lt;p style=&quot;margin:0px;margin-left:8px;&quot;&gt;&lt;span style=&quot;background-color: initial;&quot;&gt;&lt;br&gt;&lt;/span&gt;&lt;/p&gt;" style="verticalAlign=top;align=left;overflow=fill;fontSize=12;fontFamily=Helvetica;html=1;whiteSpace=wrap;" parent="1" vertex="1">
          <mxGeometry x="1571" y="345.5" width="207" height="123" as="geometry" />
        </mxCell>
        <mxCell id="XL4-3dp0tsTEwj-AfAvo-90" value="&lt;p style=&quot;margin:0px;margin-top:4px;text-align:center;text-decoration:underline;&quot;&gt;&lt;b&gt;V3&lt;/b&gt;&lt;/p&gt;&lt;hr&gt;&lt;p style=&quot;margin:0px;margin-left:8px;&quot;&gt;&lt;span style=&quot;background-color: initial;&quot;&gt;name = V3&lt;/span&gt;&lt;/p&gt;&lt;p style=&quot;margin:0px;margin-left:8px;&quot;&gt;&lt;span style=&quot;background-color: initial;&quot;&gt;area = Utrecht&lt;/span&gt;&lt;/p&gt;&lt;p style=&quot;margin:0px;margin-left:8px;&quot;&gt;adaptation = flood&lt;/p&gt;&lt;p style=&quot;margin:0px;margin-left:8px;&quot;&gt;properties = soil type, geomechanics&lt;/p&gt;&lt;p style=&quot;margin:0px;margin-left:8px;&quot;&gt;&lt;span style=&quot;background-color: initial;&quot;&gt;&lt;br&gt;&lt;/span&gt;&lt;/p&gt;" style="verticalAlign=top;align=left;overflow=fill;fontSize=12;fontFamily=Helvetica;html=1;whiteSpace=wrap;" parent="1" vertex="1">
          <mxGeometry x="1801" y="345.5" width="207" height="123" as="geometry" />
        </mxCell>
        <mxCell id="XL4-3dp0tsTEwj-AfAvo-98" value="&lt;p style=&quot;margin:0px;margin-top:4px;text-align:center;text-decoration:underline;&quot;&gt;&lt;b&gt;V4&lt;/b&gt;&lt;/p&gt;&lt;hr&gt;&lt;p style=&quot;margin:0px;margin-left:8px;&quot;&gt;&lt;span style=&quot;background-color: initial;&quot;&gt;name = V4&lt;/span&gt;&lt;/p&gt;&lt;p style=&quot;margin:0px;margin-left:8px;&quot;&gt;&lt;span style=&quot;background-color: initial;&quot;&gt;area = Utrecht&lt;/span&gt;&lt;/p&gt;&lt;p style=&quot;margin:0px;margin-left:8px;&quot;&gt;adaptation = flood&lt;/p&gt;&lt;p style=&quot;margin:0px;margin-left:8px;&quot;&gt;properties = soil type, geomechanics&lt;/p&gt;&lt;p style=&quot;margin:0px;margin-left:8px;&quot;&gt;&lt;span style=&quot;background-color: initial;&quot;&gt;&lt;br&gt;&lt;/span&gt;&lt;/p&gt;" style="verticalAlign=top;align=left;overflow=fill;fontSize=12;fontFamily=Helvetica;html=1;whiteSpace=wrap;" parent="1" vertex="1">
          <mxGeometry x="2027" y="345.5" width="207" height="123" as="geometry" />
        </mxCell>
        <mxCell id="XL4-3dp0tsTEwj-AfAvo-103" value="&lt;p style=&quot;margin:0px;margin-top:4px;text-align:center;text-decoration:underline;&quot;&gt;&lt;b&gt;DW1&lt;/b&gt;&lt;/p&gt;&lt;hr&gt;&lt;p style=&quot;margin:0px;margin-left:8px;&quot;&gt;&lt;span style=&quot;background-color: initial;&quot;&gt;name = DW1&lt;/span&gt;&lt;/p&gt;&lt;p style=&quot;margin:0px;margin-left:8px;&quot;&gt;&lt;span style=&quot;background-color: initial;&quot;&gt;area = Utrecht&lt;/span&gt;&lt;/p&gt;&lt;p style=&quot;margin:0px;margin-left:8px;&quot;&gt;adaptation = drinkingWater&lt;/p&gt;&lt;p style=&quot;margin:0px;margin-left:8px;&quot;&gt;properties =&amp;nbsp;soil type, groundwater level, storage capacity&lt;/p&gt;&lt;div&gt;&lt;span style=&quot;background-color: initial;&quot;&gt;&lt;br&gt;&lt;/span&gt;&lt;/div&gt;&lt;p style=&quot;margin:0px;margin-left:8px;&quot;&gt;&lt;span style=&quot;background-color: initial;&quot;&gt;&lt;br&gt;&lt;/span&gt;&lt;/p&gt;" style="verticalAlign=top;align=left;overflow=fill;fontSize=12;fontFamily=Helvetica;html=1;whiteSpace=wrap;" parent="1" vertex="1">
          <mxGeometry x="2254" y="345.5" width="207" height="123" as="geometry" />
        </mxCell>
        <mxCell id="XL4-3dp0tsTEwj-AfAvo-106" value="&lt;p style=&quot;margin:0px;margin-top:4px;text-align:center;text-decoration:underline;&quot;&gt;&lt;b&gt;DW2&lt;/b&gt;&lt;/p&gt;&lt;hr&gt;&lt;p style=&quot;margin:0px;margin-left:8px;&quot;&gt;&lt;span style=&quot;background-color: initial;&quot;&gt;name = DW2&lt;/span&gt;&lt;/p&gt;&lt;p style=&quot;margin:0px;margin-left:8px;&quot;&gt;&lt;span style=&quot;background-color: initial;&quot;&gt;area = Utrecht&lt;/span&gt;&lt;/p&gt;&lt;p style=&quot;margin:0px;margin-left:8px;&quot;&gt;adaptation = drinkingWater&lt;/p&gt;&lt;p style=&quot;margin:0px;margin-left:8px;&quot;&gt;properties = groundwater level&lt;/p&gt;&lt;div&gt;&lt;span style=&quot;background-color: initial;&quot;&gt;&lt;br&gt;&lt;/span&gt;&lt;/div&gt;&lt;p style=&quot;margin:0px;margin-left:8px;&quot;&gt;&lt;span style=&quot;background-color: initial;&quot;&gt;&lt;br&gt;&lt;/span&gt;&lt;/p&gt;" style="verticalAlign=top;align=left;overflow=fill;fontSize=12;fontFamily=Helvetica;html=1;whiteSpace=wrap;" parent="1" vertex="1">
          <mxGeometry x="2482" y="345.5" width="207" height="123" as="geometry" />
        </mxCell>
        <mxCell id="XL4-3dp0tsTEwj-AfAvo-112" value="&lt;p style=&quot;margin:0px;margin-top:4px;text-align:center;text-decoration:underline;&quot;&gt;&lt;b&gt;DW3&lt;/b&gt;&lt;/p&gt;&lt;hr&gt;&lt;p style=&quot;margin:0px;margin-left:8px;&quot;&gt;&lt;span style=&quot;background-color: initial;&quot;&gt;name = DW2&lt;/span&gt;&lt;/p&gt;&lt;p style=&quot;margin:0px;margin-left:8px;&quot;&gt;&lt;span style=&quot;background-color: initial;&quot;&gt;area = Utrecht&lt;/span&gt;&lt;/p&gt;&lt;p style=&quot;margin:0px;margin-left:8px;&quot;&gt;adaptation = drinkingWater&lt;/p&gt;&lt;p style=&quot;margin:0px;margin-left:8px;&quot;&gt;properties = none&lt;/p&gt;&lt;p style=&quot;margin:0px;margin-left:8px;&quot;&gt;&lt;span style=&quot;background-color: initial;&quot;&gt;&lt;br&gt;&lt;/span&gt;&lt;/p&gt;" style="verticalAlign=top;align=left;overflow=fill;fontSize=12;fontFamily=Helvetica;html=1;whiteSpace=wrap;" parent="1" vertex="1">
          <mxGeometry x="2714" y="345.5" width="207" height="123" as="geometry" />
        </mxCell>
        <mxCell id="XL4-3dp0tsTEwj-AfAvo-127" value="" style="endArrow=block;endSize=16;endFill=0;html=1;rounded=0;entryX=0.5;entryY=0;entryDx=0;entryDy=0;exitX=0.5;exitY=1;exitDx=0;exitDy=0;edgeStyle=orthogonalEdgeStyle;" parent="1" source="XL4-3dp0tsTEwj-AfAvo-10" target="XrivS-1WhvhdIYvPr3YK-145" edge="1">
          <mxGeometry width="160" relative="1" as="geometry">
            <mxPoint x="-1322" y="657" as="sourcePoint" />
            <mxPoint x="-1145" y="643" as="targetPoint" />
          </mxGeometry>
        </mxCell>
        <mxCell id="XL4-3dp0tsTEwj-AfAvo-129" value="" style="endArrow=block;endSize=16;endFill=0;html=1;rounded=0;entryX=0.5;entryY=0;entryDx=0;entryDy=0;exitX=0.5;exitY=1;exitDx=0;exitDy=0;edgeStyle=orthogonalEdgeStyle;" parent="1" source="lzSBGGlqFM9TEOrY7YJG-53" target="XrivS-1WhvhdIYvPr3YK-145" edge="1">
          <mxGeometry width="160" relative="1" as="geometry">
            <mxPoint x="-1526" y="684" as="sourcePoint" />
            <mxPoint x="-1366" y="684" as="targetPoint" />
          </mxGeometry>
        </mxCell>
        <mxCell id="XL4-3dp0tsTEwj-AfAvo-130" value="" style="endArrow=block;endSize=16;endFill=0;html=1;rounded=0;entryX=0.5;entryY=0;entryDx=0;entryDy=0;exitX=0.5;exitY=1;exitDx=0;exitDy=0;edgeStyle=orthogonalEdgeStyle;" parent="1" source="XL4-3dp0tsTEwj-AfAvo-2" target="XrivS-1WhvhdIYvPr3YK-145" edge="1">
          <mxGeometry width="160" relative="1" as="geometry">
            <mxPoint x="-1526" y="684" as="sourcePoint" />
            <mxPoint x="-1135" y="653" as="targetPoint" />
          </mxGeometry>
        </mxCell>
        <mxCell id="XL4-3dp0tsTEwj-AfAvo-131" value="" style="endArrow=block;endSize=16;endFill=0;html=1;rounded=0;entryX=0.5;entryY=0;entryDx=0;entryDy=0;exitX=0.5;exitY=1;exitDx=0;exitDy=0;edgeStyle=orthogonalEdgeStyle;" parent="1" source="XL4-3dp0tsTEwj-AfAvo-8" target="XrivS-1WhvhdIYvPr3YK-145" edge="1">
          <mxGeometry width="160" relative="1" as="geometry">
            <mxPoint x="-1312" y="667" as="sourcePoint" />
            <mxPoint x="-1135" y="653" as="targetPoint" />
          </mxGeometry>
        </mxCell>
        <mxCell id="XL4-3dp0tsTEwj-AfAvo-132" value="" style="endArrow=block;endSize=16;endFill=0;html=1;rounded=0;entryX=0.5;entryY=0;entryDx=0;entryDy=0;exitX=0.5;exitY=1;exitDx=0;exitDy=0;edgeStyle=orthogonalEdgeStyle;" parent="1" source="XL4-3dp0tsTEwj-AfAvo-9" target="XrivS-1WhvhdIYvPr3YK-145" edge="1">
          <mxGeometry width="160" relative="1" as="geometry">
            <mxPoint x="-1312" y="667" as="sourcePoint" />
            <mxPoint x="-1135" y="653" as="targetPoint" />
          </mxGeometry>
        </mxCell>
        <mxCell id="XL4-3dp0tsTEwj-AfAvo-133" value="" style="endArrow=block;endSize=16;endFill=0;html=1;rounded=0;exitX=0.5;exitY=1;exitDx=0;exitDy=0;entryX=0.5;entryY=0;entryDx=0;entryDy=0;edgeStyle=orthogonalEdgeStyle;" parent="1" source="XL4-3dp0tsTEwj-AfAvo-47" target="XrivS-1WhvhdIYvPr3YK-145" edge="1">
          <mxGeometry width="160" relative="1" as="geometry">
            <mxPoint x="-1069" y="663" as="sourcePoint" />
            <mxPoint x="-902" y="663" as="targetPoint" />
          </mxGeometry>
        </mxCell>
        <mxCell id="XL4-3dp0tsTEwj-AfAvo-135" value="" style="endArrow=block;endSize=16;endFill=0;html=1;rounded=0;entryX=0.5;entryY=0;entryDx=0;entryDy=0;exitX=0.5;exitY=1;exitDx=0;exitDy=0;edgeStyle=orthogonalEdgeStyle;" parent="1" source="XL4-3dp0tsTEwj-AfAvo-17" target="XrivS-1WhvhdIYvPr3YK-145" edge="1">
          <mxGeometry width="160" relative="1" as="geometry">
            <mxPoint x="-502" y="574" as="sourcePoint" />
            <mxPoint x="-1037" y="653" as="targetPoint" />
          </mxGeometry>
        </mxCell>
        <mxCell id="XL4-3dp0tsTEwj-AfAvo-136" value="" style="endArrow=block;endSize=16;endFill=0;html=1;rounded=0;entryX=0.5;entryY=0;entryDx=0;entryDy=0;exitX=0.5;exitY=1;exitDx=0;exitDy=0;edgeStyle=orthogonalEdgeStyle;" parent="1" source="XL4-3dp0tsTEwj-AfAvo-24" target="XrivS-1WhvhdIYvPr3YK-145" edge="1">
          <mxGeometry width="160" relative="1" as="geometry">
            <mxPoint x="-1197" y="653" as="sourcePoint" />
            <mxPoint x="-1037" y="653" as="targetPoint" />
          </mxGeometry>
        </mxCell>
        <mxCell id="XL4-3dp0tsTEwj-AfAvo-137" value="" style="endArrow=block;endSize=16;endFill=0;html=1;rounded=0;entryX=0.5;entryY=0;entryDx=0;entryDy=0;exitX=0.5;exitY=1;exitDx=0;exitDy=0;edgeStyle=orthogonalEdgeStyle;" parent="1" source="XL4-3dp0tsTEwj-AfAvo-34" target="XrivS-1WhvhdIYvPr3YK-145" edge="1">
          <mxGeometry width="160" relative="1" as="geometry">
            <mxPoint x="-1197" y="653" as="sourcePoint" />
            <mxPoint x="-1037" y="653" as="targetPoint" />
          </mxGeometry>
        </mxCell>
        <mxCell id="XL4-3dp0tsTEwj-AfAvo-138" value="" style="endArrow=block;endSize=16;endFill=0;html=1;rounded=0;entryX=0.5;entryY=0;entryDx=0;entryDy=0;exitX=0.5;exitY=1;exitDx=0;exitDy=0;edgeStyle=orthogonalEdgeStyle;" parent="1" source="XL4-3dp0tsTEwj-AfAvo-37" target="XrivS-1WhvhdIYvPr3YK-145" edge="1">
          <mxGeometry width="160" relative="1" as="geometry">
            <mxPoint x="-1197" y="653" as="sourcePoint" />
            <mxPoint x="-1037" y="653" as="targetPoint" />
          </mxGeometry>
        </mxCell>
        <mxCell id="XL4-3dp0tsTEwj-AfAvo-139" value="" style="endArrow=block;endSize=16;endFill=0;html=1;rounded=0;entryX=0.5;entryY=0;entryDx=0;entryDy=0;exitX=0.5;exitY=1;exitDx=0;exitDy=0;edgeStyle=orthogonalEdgeStyle;" parent="1" source="XL4-3dp0tsTEwj-AfAvo-43" target="XrivS-1WhvhdIYvPr3YK-145" edge="1">
          <mxGeometry width="160" relative="1" as="geometry">
            <mxPoint x="511" y="559" as="sourcePoint" />
            <mxPoint x="-1037" y="653" as="targetPoint" />
          </mxGeometry>
        </mxCell>
        <mxCell id="XL4-3dp0tsTEwj-AfAvo-140" value="" style="endArrow=block;endSize=16;endFill=0;html=1;rounded=0;entryX=0.5;entryY=0;entryDx=0;entryDy=0;exitX=0.5;exitY=1;exitDx=0;exitDy=0;edgeStyle=orthogonalEdgeStyle;" parent="1" source="XL4-3dp0tsTEwj-AfAvo-55" target="XrivS-1WhvhdIYvPr3YK-145" edge="1">
          <mxGeometry width="160" relative="1" as="geometry">
            <mxPoint x="43" y="585" as="sourcePoint" />
            <mxPoint x="-1037" y="653" as="targetPoint" />
          </mxGeometry>
        </mxCell>
        <mxCell id="XL4-3dp0tsTEwj-AfAvo-141" value="" style="endArrow=block;endSize=16;endFill=0;html=1;rounded=0;entryX=0.5;entryY=0;entryDx=0;entryDy=0;exitX=0.5;exitY=1;exitDx=0;exitDy=0;edgeStyle=orthogonalEdgeStyle;" parent="1" source="XL4-3dp0tsTEwj-AfAvo-62" target="XrivS-1WhvhdIYvPr3YK-145" edge="1">
          <mxGeometry width="160" relative="1" as="geometry">
            <mxPoint x="237" y="653" as="sourcePoint" />
            <mxPoint x="-1037" y="653" as="targetPoint" />
          </mxGeometry>
        </mxCell>
        <mxCell id="XL4-3dp0tsTEwj-AfAvo-142" value="" style="endArrow=block;endSize=16;endFill=0;html=1;rounded=0;entryX=0.5;entryY=0;entryDx=0;entryDy=0;exitX=0.5;exitY=1;exitDx=0;exitDy=0;edgeStyle=orthogonalEdgeStyle;" parent="1" source="XL4-3dp0tsTEwj-AfAvo-72" target="XrivS-1WhvhdIYvPr3YK-145" edge="1">
          <mxGeometry width="160" relative="1" as="geometry">
            <mxPoint x="111" y="668" as="sourcePoint" />
            <mxPoint x="-1037" y="653" as="targetPoint" />
          </mxGeometry>
        </mxCell>
        <mxCell id="XL4-3dp0tsTEwj-AfAvo-143" value="" style="endArrow=block;endSize=16;endFill=0;html=1;rounded=0;entryX=0.5;entryY=0;entryDx=0;entryDy=0;exitX=0.5;exitY=1;exitDx=0;exitDy=0;edgeStyle=orthogonalEdgeStyle;" parent="1" source="XL4-3dp0tsTEwj-AfAvo-87" target="XrivS-1WhvhdIYvPr3YK-145" edge="1">
          <mxGeometry width="160" relative="1" as="geometry">
            <mxPoint x="1195" y="583" as="sourcePoint" />
            <mxPoint x="-1037" y="653" as="targetPoint" />
          </mxGeometry>
        </mxCell>
        <mxCell id="XL4-3dp0tsTEwj-AfAvo-144" value="" style="endArrow=block;endSize=16;endFill=0;html=1;rounded=0;entryX=0.5;entryY=0;entryDx=0;entryDy=0;exitX=0.5;exitY=1;exitDx=0;exitDy=0;edgeStyle=orthogonalEdgeStyle;" parent="1" source="XL4-3dp0tsTEwj-AfAvo-90" target="XrivS-1WhvhdIYvPr3YK-145" edge="1">
          <mxGeometry width="160" relative="1" as="geometry">
            <mxPoint x="305" y="600" as="sourcePoint" />
            <mxPoint x="-892" y="673" as="targetPoint" />
          </mxGeometry>
        </mxCell>
        <mxCell id="XL4-3dp0tsTEwj-AfAvo-145" value="" style="endArrow=block;endSize=16;endFill=0;html=1;rounded=0;entryX=0.5;entryY=0;entryDx=0;entryDy=0;exitX=0.5;exitY=1;exitDx=0;exitDy=0;edgeStyle=orthogonalEdgeStyle;" parent="1" source="XL4-3dp0tsTEwj-AfAvo-98" target="XrivS-1WhvhdIYvPr3YK-145" edge="1">
          <mxGeometry width="160" relative="1" as="geometry">
            <mxPoint x="1614" y="589" as="sourcePoint" />
            <mxPoint x="-892" y="673" as="targetPoint" />
          </mxGeometry>
        </mxCell>
        <mxCell id="XL4-3dp0tsTEwj-AfAvo-146" value="" style="endArrow=block;endSize=16;endFill=0;html=1;rounded=0;entryX=0.5;entryY=0;entryDx=0;entryDy=0;exitX=0.5;exitY=1;exitDx=0;exitDy=0;edgeStyle=orthogonalEdgeStyle;" parent="1" source="XL4-3dp0tsTEwj-AfAvo-103" target="XrivS-1WhvhdIYvPr3YK-145" edge="1">
          <mxGeometry width="160" relative="1" as="geometry">
            <mxPoint x="1546" y="609" as="sourcePoint" />
            <mxPoint x="-892" y="673" as="targetPoint" />
          </mxGeometry>
        </mxCell>
        <mxCell id="XL4-3dp0tsTEwj-AfAvo-147" value="" style="endArrow=block;endSize=16;endFill=0;html=1;rounded=0;exitX=0.5;exitY=1;exitDx=0;exitDy=0;entryX=0.5;entryY=0;entryDx=0;entryDy=0;edgeStyle=orthogonalEdgeStyle;" parent="1" source="XL4-3dp0tsTEwj-AfAvo-48" target="XrivS-1WhvhdIYvPr3YK-145" edge="1">
          <mxGeometry width="160" relative="1" as="geometry">
            <mxPoint x="-1059" y="673" as="sourcePoint" />
            <mxPoint x="-892" y="673" as="targetPoint" />
          </mxGeometry>
        </mxCell>
        <mxCell id="XL4-3dp0tsTEwj-AfAvo-148" value="" style="endArrow=block;endSize=16;endFill=0;html=1;rounded=0;entryX=0.5;entryY=0;entryDx=0;entryDy=0;exitX=0.5;exitY=1;exitDx=0;exitDy=0;edgeStyle=orthogonalEdgeStyle;" parent="1" source="XL4-3dp0tsTEwj-AfAvo-112" target="XrivS-1WhvhdIYvPr3YK-145" edge="1">
          <mxGeometry width="160" relative="1" as="geometry">
            <mxPoint x="1039" y="704" as="sourcePoint" />
            <mxPoint x="-192" y="646" as="targetPoint" />
          </mxGeometry>
        </mxCell>
        <mxCell id="XL4-3dp0tsTEwj-AfAvo-149" value="" style="endArrow=block;endSize=16;endFill=0;html=1;rounded=0;entryX=0.5;entryY=0;entryDx=0;entryDy=0;exitX=0.5;exitY=1;exitDx=0;exitDy=0;edgeStyle=orthogonalEdgeStyle;" parent="1" source="XL4-3dp0tsTEwj-AfAvo-106" target="XrivS-1WhvhdIYvPr3YK-145" edge="1">
          <mxGeometry width="160" relative="1" as="geometry">
            <mxPoint x="1652" y="557" as="sourcePoint" />
            <mxPoint x="143" y="1091" as="targetPoint" />
          </mxGeometry>
        </mxCell>
        <mxCell id="sMXC-b68p0n0nWKsfzfZ-9" value="&lt;p style=&quot;margin:0px;margin-top:4px;text-align:center;text-decoration:underline;&quot;&gt;&lt;b&gt;Green Facades&lt;/b&gt;&lt;/p&gt;&lt;hr&gt;&lt;p style=&quot;margin:0px;margin-left:8px;&quot;&gt;name = greenFacades&lt;/p&gt;&lt;p style=&quot;margin:0px;margin-left:8px;&quot;&gt;adaptation = biodiversity, heat&lt;/p&gt;&lt;p style=&quot;margin:0px;margin-left:8px;&quot;&gt;source = RVO&lt;/p&gt;&lt;p style=&quot;margin: 0px 0px 0px 8px;&quot;&gt;scaleStreet = false&lt;/p&gt;&lt;p style=&quot;margin: 0px 0px 0px 8px;&quot;&gt;scaleBuilding = true&lt;/p&gt;&lt;p style=&quot;margin: 0px 0px 0px 8px;&quot;&gt;scaleSquare = false&lt;/p&gt;&lt;p style=&quot;margin: 0px 0px 0px 8px;&quot;&gt;&lt;span style=&quot;color: rgb(51, 51, 51); background-color: initial;&quot;&gt;fk_subsurfaceprop = geomechanics, congestion&lt;/span&gt;&lt;/p&gt;&lt;p style=&quot;color: rgb(51, 51, 51); margin: 0px 0px 0px 4px;&quot;&gt;&amp;nbsp;fk_localstandard = B1, B2, B3, H3&lt;/p&gt;" style="verticalAlign=top;align=left;overflow=fill;fontSize=12;fontFamily=Helvetica;html=1;whiteSpace=wrap;fillColor=#9AC7BF;" parent="1" vertex="1">
          <mxGeometry x="-2987" y="-717" width="211" height="203" as="geometry" />
        </mxCell>
        <mxCell id="yZVawXG9rOg48xsu62Gb-1" value="&lt;p style=&quot;margin:0px;margin-top:4px;text-align:center;text-decoration:underline;&quot;&gt;&lt;b&gt;Facade Garden&lt;/b&gt;&lt;/p&gt;&lt;hr&gt;&lt;p style=&quot;margin: 0px 0px 0px 8px;&quot;&gt;name = facadeGarden&lt;/p&gt;&lt;p style=&quot;margin: 0px 0px 0px 8px;&quot;&gt;adaptation = biodiversity, heat,&lt;/p&gt;&lt;p style=&quot;margin: 0px 0px 0px 8px;&quot;&gt;waterlogging&lt;/p&gt;&lt;p style=&quot;margin: 0px 0px 0px 8px;&quot;&gt;source = RVO&lt;/p&gt;&lt;p style=&quot;margin: 0px 0px 0px 8px;&quot;&gt;&lt;span style=&quot;background-color: initial;&quot;&gt;scaleStreet = true&lt;/span&gt;&lt;br&gt;&lt;/p&gt;&lt;p style=&quot;margin: 0px 0px 0px 8px;&quot;&gt;scaleBuilding = true&lt;/p&gt;&lt;p style=&quot;margin: 0px 0px 0px 8px;&quot;&gt;scaleSquare = false&lt;/p&gt;&lt;p style=&quot;margin: 0px 0px 0px 8px;&quot;&gt;&lt;span style=&quot;color: rgb(51, 51, 51); background-color: initial;&quot;&gt;fk_subsurfaceprop = congestion&lt;/span&gt;&lt;/p&gt;&lt;p style=&quot;color: rgb(51, 51, 51); margin: 0px 0px 0px 4px;&quot;&gt;&amp;nbsp;fk_localstandard = B1, B2, B3, H3, N1&lt;/p&gt;" style="verticalAlign=top;align=left;overflow=fill;fontSize=12;fontFamily=Helvetica;html=1;whiteSpace=wrap;fillColor=#9AC7BF;" vertex="1" parent="1">
          <mxGeometry x="-2759.5" y="-717" width="211" height="203" as="geometry" />
        </mxCell>
        <mxCell id="yZVawXG9rOg48xsu62Gb-2" value="&lt;p style=&quot;margin:0px;margin-top:4px;text-align:center;text-decoration:underline;&quot;&gt;&lt;b&gt;Green Garden&lt;/b&gt;&lt;/p&gt;&lt;hr&gt;&lt;p style=&quot;margin: 0px 0px 0px 8px;&quot;&gt;name = greenGarden&lt;/p&gt;&lt;p style=&quot;margin: 0px 0px 0px 8px;&quot;&gt;adaptation = biodiversity, heat, waterlogging, drought&lt;/p&gt;&lt;p style=&quot;margin: 0px 0px 0px 8px;&quot;&gt;source = RVO&lt;/p&gt;&lt;p style=&quot;margin: 0px 0px 0px 8px;&quot;&gt;&lt;span style=&quot;background-color: initial;&quot;&gt;scaleStreet = false&lt;/span&gt;&lt;br&gt;&lt;/p&gt;&lt;p style=&quot;margin: 0px 0px 0px 8px;&quot;&gt;scaleBuilding = true&lt;/p&gt;&lt;p style=&quot;margin: 0px 0px 0px 8px;&quot;&gt;scaleSquare = true&lt;/p&gt;&lt;p style=&quot;margin: 0px 0px 0px 8px;&quot;&gt;&lt;span style=&quot;color: rgb(51, 51, 51); background-color: initial;&quot;&gt;fk_subsurfaceprop = congestion&lt;/span&gt;&lt;/p&gt;&lt;p style=&quot;color: rgb(51, 51, 51); margin: 0px 0px 0px 4px;&quot;&gt;&amp;nbsp;fk_localstandard = B1, B2, B3, H2,&amp;nbsp; &amp;nbsp;H3, N1, D1&lt;/p&gt;" style="verticalAlign=top;align=left;overflow=fill;fontSize=12;fontFamily=Helvetica;html=1;whiteSpace=wrap;fillColor=#9AC7BF;" vertex="1" parent="1">
          <mxGeometry x="-2532" y="-718.5" width="211" height="203.5" as="geometry" />
        </mxCell>
        <mxCell id="yZVawXG9rOg48xsu62Gb-3" value="&lt;p style=&quot;margin: 4px 0px 0px; text-align: center;&quot;&gt;&lt;span style=&quot;font-size: 12px;&quot;&gt;&lt;b&gt;&lt;u&gt;Green Roof&lt;/u&gt;&lt;/b&gt;&lt;/span&gt;&lt;br&gt;&lt;/p&gt;&lt;hr&gt;&lt;p style=&quot;margin: 0px 0px 0px 8px;&quot;&gt;name = greenRoof&lt;/p&gt;&lt;p style=&quot;margin: 0px 0px 0px 8px;&quot;&gt;adaptation = biodiversity, waterlogging&lt;/p&gt;&lt;p style=&quot;margin: 0px 0px 0px 8px;&quot;&gt;source = RVO&lt;/p&gt;&lt;p style=&quot;margin: 0px 0px 0px 8px;&quot;&gt;&lt;span style=&quot;background-color: initial;&quot;&gt;scaleStreet = false&lt;/span&gt;&lt;br&gt;&lt;/p&gt;&lt;p style=&quot;margin: 0px 0px 0px 8px;&quot;&gt;scaleBuilding = true&lt;/p&gt;&lt;p style=&quot;margin: 0px 0px 0px 8px;&quot;&gt;scaleSquare = false&lt;/p&gt;&lt;p style=&quot;margin: 0px 0px 0px 8px;&quot;&gt;&lt;span style=&quot;color: rgb(51, 51, 51); background-color: initial;&quot;&gt;fk_subsurfaceprop = NULL&lt;/span&gt;&lt;/p&gt;&lt;p style=&quot;color: rgb(51, 51, 51); margin: 0px 0px 0px 4px;&quot;&gt;&amp;nbsp;fk_localstandard =&amp;nbsp;B1, B2, B3, N1&lt;/p&gt;" style="verticalAlign=top;align=left;overflow=fill;fontSize=12;fontFamily=Helvetica;html=1;whiteSpace=wrap;fillColor=#9AC7BF;" vertex="1" parent="1">
          <mxGeometry x="-2304" y="-718.5" width="211" height="203.5" as="geometry" />
        </mxCell>
        <mxCell id="yZVawXG9rOg48xsu62Gb-4" value="&lt;p style=&quot;margin: 4px 0px 0px; text-align: center;&quot;&gt;&lt;span style=&quot;font-size: 12px;&quot;&gt;&lt;b&gt;&lt;u&gt;Green Fence&lt;/u&gt;&lt;/b&gt;&lt;/span&gt;&lt;br&gt;&lt;/p&gt;&lt;hr&gt;&lt;p style=&quot;margin: 0px 0px 0px 8px;&quot;&gt;name = greenFence&lt;/p&gt;&lt;p style=&quot;margin: 0px 0px 0px 8px;&quot;&gt;adaptation = biodiversity, heat&lt;/p&gt;&lt;p style=&quot;margin: 0px 0px 0px 8px;&quot;&gt;source = RVO&lt;/p&gt;&lt;p style=&quot;margin: 0px 0px 0px 8px;&quot;&gt;&lt;span style=&quot;background-color: initial;&quot;&gt;scaleStreet = false&lt;/span&gt;&lt;br&gt;&lt;/p&gt;&lt;p style=&quot;margin: 0px 0px 0px 8px;&quot;&gt;scaleBuilding = true&lt;/p&gt;&lt;p style=&quot;margin: 0px 0px 0px 8px;&quot;&gt;scaleSquare = true&lt;/p&gt;&lt;p style=&quot;margin: 0px 0px 0px 8px;&quot;&gt;&lt;span style=&quot;color: rgb(51, 51, 51); background-color: initial;&quot;&gt;fk_subsurfaceprop = g&lt;/span&gt;&lt;span style=&quot;background-color: initial; font-size: 12px;&quot;&gt;&lt;font color=&quot;#333333&quot;&gt;eomechanics, congestion&lt;/font&gt;&lt;/span&gt;&lt;/p&gt;&lt;p style=&quot;color: rgb(51, 51, 51); margin: 0px 0px 0px 4px;&quot;&gt;&amp;nbsp;fk_localstandard =&amp;nbsp;B1, B2, H3&lt;/p&gt;" style="verticalAlign=top;align=left;overflow=fill;fontSize=12;fontFamily=Helvetica;html=1;whiteSpace=wrap;fillColor=#9AC7BF;" vertex="1" parent="1">
          <mxGeometry x="-2078" y="-718.5" width="211" height="203.5" as="geometry" />
        </mxCell>
        <mxCell id="yZVawXG9rOg48xsu62Gb-5" value="&lt;p style=&quot;margin: 4px 0px 0px; text-align: center;&quot;&gt;&lt;span style=&quot;font-size: 12px;&quot;&gt;&lt;b&gt;&lt;u&gt;Tree Planting&lt;/u&gt;&lt;/b&gt;&lt;/span&gt;&lt;br&gt;&lt;/p&gt;&lt;hr&gt;&lt;p style=&quot;margin: 0px 0px 0px 8px;&quot;&gt;name = greenFence&lt;/p&gt;&lt;p style=&quot;margin: 0px 0px 0px 8px;&quot;&gt;adaptation = biodiversity, heat&lt;/p&gt;&lt;p style=&quot;margin: 0px 0px 0px 8px;&quot;&gt;source = RVO&lt;/p&gt;&lt;p style=&quot;margin: 0px 0px 0px 8px;&quot;&gt;&lt;span style=&quot;background-color: initial;&quot;&gt;design&lt;/span&gt;&lt;span style=&quot;background-color: initial;&quot;&gt;Street = true&lt;/span&gt;&lt;br&gt;&lt;/p&gt;&lt;p style=&quot;margin: 0px 0px 0px 8px;&quot;&gt;&lt;span style=&quot;background-color: initial;&quot;&gt;design&lt;/span&gt;Building = false&lt;/p&gt;&lt;p style=&quot;margin: 0px 0px 0px 8px;&quot;&gt;&lt;span style=&quot;background-color: initial;&quot;&gt;design&lt;/span&gt;Square = true&lt;/p&gt;&lt;p style=&quot;margin: 0px 0px 0px 8px;&quot;&gt;&lt;span style=&quot;color: rgb(51, 51, 51); background-color: initial;&quot;&gt;fk_subsurfaceprop = g&lt;/span&gt;&lt;span style=&quot;background-color: initial; font-size: 12px;&quot;&gt;&lt;font color=&quot;#333333&quot;&gt;eomechanics, congestion, soil type&lt;/font&gt;&lt;/span&gt;&lt;/p&gt;&lt;p style=&quot;color: rgb(51, 51, 51); margin: 0px 0px 0px 4px;&quot;&gt;&amp;nbsp;fk_localstandard =&amp;nbsp;B1, B2, B3, H1, H2&lt;/p&gt;" style="verticalAlign=top;align=left;overflow=fill;fontSize=12;fontFamily=Helvetica;html=1;whiteSpace=wrap;fillColor=#9AC7BF;" vertex="1" parent="1">
          <mxGeometry x="-1851" y="-718.5" width="211" height="203.5" as="geometry" />
        </mxCell>
        <mxCell id="yZVawXG9rOg48xsu62Gb-6" value="&lt;p style=&quot;margin: 4px 0px 0px; text-align: center;&quot;&gt;&lt;b style=&quot;background-color: initial;&quot;&gt;Bird/Bat/Insect Box&lt;/b&gt;&lt;br&gt;&lt;/p&gt;&lt;hr&gt;&lt;p style=&quot;margin: 0px 0px 0px 8px;&quot;&gt;name = birdBox&lt;/p&gt;&lt;p style=&quot;margin: 0px 0px 0px 8px;&quot;&gt;adaptation = biodiversity&lt;/p&gt;&lt;p style=&quot;margin: 0px 0px 0px 8px;&quot;&gt;source = RVO&lt;/p&gt;&lt;p style=&quot;margin: 0px 0px 0px 8px;&quot;&gt;&lt;span style=&quot;background-color: initial;&quot;&gt;design&lt;/span&gt;&lt;span style=&quot;background-color: initial;&quot;&gt;Street = true&lt;/span&gt;&lt;br&gt;&lt;/p&gt;&lt;p style=&quot;margin: 0px 0px 0px 8px;&quot;&gt;&lt;span style=&quot;background-color: initial;&quot;&gt;design&lt;/span&gt;Building = true&lt;/p&gt;&lt;p style=&quot;margin: 0px 0px 0px 8px;&quot;&gt;&lt;span style=&quot;background-color: initial;&quot;&gt;design&lt;/span&gt;Square = true&lt;/p&gt;&lt;p style=&quot;margin: 0px 0px 0px 8px;&quot;&gt;&lt;span style=&quot;color: rgb(51, 51, 51); background-color: initial;&quot;&gt;fk_subsurfaceprop = NULL&lt;/span&gt;&lt;/p&gt;&lt;p style=&quot;margin: 0px 0px 0px 4px;&quot;&gt;&lt;font color=&quot;#333333&quot;&gt;&amp;nbsp;fk_localstandard =&amp;nbsp;&lt;/font&gt;&lt;span style=&quot;background-color: initial; font-size: 12px;&quot;&gt;&lt;font color=&quot;#333333&quot;&gt;B3&lt;/font&gt;&lt;/span&gt;&lt;/p&gt;&lt;p style=&quot;color: rgb(51, 51, 51); margin: 0px 0px 0px 4px;&quot;&gt;&lt;br&gt;&lt;/p&gt;" style="verticalAlign=top;align=left;overflow=fill;fontSize=12;fontFamily=Helvetica;html=1;whiteSpace=wrap;fillColor=#C3ABD0;" vertex="1" parent="1">
          <mxGeometry x="-1624" y="-718.5" width="211" height="201.5" as="geometry" />
        </mxCell>
        <mxCell id="yZVawXG9rOg48xsu62Gb-7" value="&lt;p style=&quot;margin: 4px 0px 0px; text-align: center;&quot;&gt;&lt;b style=&quot;background-color: initial;&quot;&gt;Rain Barrel&lt;/b&gt;&lt;br&gt;&lt;/p&gt;&lt;hr&gt;&lt;p style=&quot;margin: 0px 0px 0px 8px;&quot;&gt;name = rainBarrel&lt;/p&gt;&lt;p style=&quot;margin: 0px 0px 0px 8px;&quot;&gt;adaptation = waterlogging, drought&lt;/p&gt;&lt;p style=&quot;margin: 0px 0px 0px 8px;&quot;&gt;source = RVO&lt;/p&gt;&lt;p style=&quot;margin: 0px 0px 0px 8px;&quot;&gt;&lt;span style=&quot;background-color: initial;&quot;&gt;design&lt;/span&gt;&lt;span style=&quot;background-color: initial;&quot;&gt;Street = false&lt;/span&gt;&lt;br&gt;&lt;/p&gt;&lt;p style=&quot;margin: 0px 0px 0px 8px;&quot;&gt;&lt;span style=&quot;background-color: initial;&quot;&gt;design&lt;/span&gt;Building = true&lt;/p&gt;&lt;p style=&quot;margin: 0px 0px 0px 8px;&quot;&gt;&lt;span style=&quot;background-color: initial;&quot;&gt;design&lt;/span&gt;Square = false&lt;/p&gt;&lt;p style=&quot;margin: 0px 0px 0px 8px;&quot;&gt;&lt;span style=&quot;color: rgb(51, 51, 51); background-color: initial;&quot;&gt;fk_subsurfaceprop = s&lt;/span&gt;&lt;span style=&quot;background-color: initial;&quot;&gt;&lt;font color=&quot;#333333&quot;&gt;oil type, congestion&lt;/font&gt;&lt;/span&gt;&lt;/p&gt;&lt;p style=&quot;margin: 0px 0px 0px 8px;&quot;&gt;&lt;font style=&quot;background-color: initial;&quot; color=&quot;#333333&quot;&gt;fk_localstandard =&amp;nbsp;&lt;/font&gt;&lt;span style=&quot;background-color: initial;&quot;&gt;&lt;font color=&quot;#333333&quot;&gt;N1, N2, N3, D1, D2&lt;/font&gt;&lt;/span&gt;&lt;/p&gt;" style="verticalAlign=top;align=left;overflow=fill;fontSize=12;fontFamily=Helvetica;html=1;whiteSpace=wrap;fillColor=#C3ABD0;" vertex="1" parent="1">
          <mxGeometry x="-1397" y="-718.5" width="211" height="199.5" as="geometry" />
        </mxCell>
        <mxCell id="yZVawXG9rOg48xsu62Gb-8" value="&lt;p style=&quot;margin: 4px 0px 0px; text-align: center;&quot;&gt;&lt;b style=&quot;background-color: initial;&quot;&gt;Lowered Verge&lt;/b&gt;&lt;br&gt;&lt;/p&gt;&lt;hr&gt;&lt;p style=&quot;margin: 0px 0px 0px 8px;&quot;&gt;name = loweredVerge&lt;/p&gt;&lt;p style=&quot;margin: 0px 0px 0px 8px;&quot;&gt;adaptation = waterlogging, flood&lt;/p&gt;&lt;p style=&quot;margin: 0px 0px 0px 8px;&quot;&gt;source = RVO&lt;/p&gt;&lt;p style=&quot;margin: 0px 0px 0px 8px;&quot;&gt;&lt;span style=&quot;background-color: initial;&quot;&gt;designStreet = true&lt;/span&gt;&lt;br&gt;&lt;/p&gt;&lt;p style=&quot;margin: 0px 0px 0px 8px;&quot;&gt;designBuilding = false&lt;/p&gt;&lt;p style=&quot;margin: 0px 0px 0px 8px;&quot;&gt;designSquare = false&lt;/p&gt;&lt;p style=&quot;margin: 0px 0px 0px 8px;&quot;&gt;&lt;span style=&quot;color: rgb(51, 51, 51); background-color: initial;&quot;&gt;fk_subsurfaceprop = NULL&lt;/span&gt;&lt;/p&gt;&lt;p style=&quot;margin: 0px 0px 0px 8px;&quot;&gt;&lt;font style=&quot;background-color: initial;&quot; color=&quot;#333333&quot;&gt;fk_localstandard =&amp;nbsp;&lt;/font&gt;&lt;span style=&quot;background-color: initial;&quot;&gt;&lt;font color=&quot;#333333&quot;&gt;N1, V1&amp;nbsp;&lt;/font&gt;&lt;/span&gt;&lt;/p&gt;" style="verticalAlign=top;align=left;overflow=fill;fontSize=12;fontFamily=Helvetica;html=1;whiteSpace=wrap;fillColor=#FFE599;" vertex="1" parent="1">
          <mxGeometry x="-1171" y="-720" width="211" height="201" as="geometry" />
        </mxCell>
        <mxCell id="yZVawXG9rOg48xsu62Gb-9" value="&lt;p style=&quot;margin: 4px 0px 0px; text-align: center;&quot;&gt;&lt;b style=&quot;background-color: initial;&quot;&gt;Water Permeable Pavement&lt;/b&gt;&lt;br&gt;&lt;/p&gt;&lt;hr&gt;&lt;p style=&quot;margin: 0px 0px 0px 8px;&quot;&gt;name = permeablePavement&lt;/p&gt;&lt;p style=&quot;margin: 0px 0px 0px 8px;&quot;&gt;adaptation = waterlogging, drought&lt;/p&gt;&lt;p style=&quot;margin: 0px 0px 0px 8px;&quot;&gt;source = RVO&lt;/p&gt;&lt;p style=&quot;margin: 0px 0px 0px 8px;&quot;&gt;&lt;span style=&quot;background-color: initial;&quot;&gt;designStreet = true&lt;/span&gt;&lt;br&gt;&lt;/p&gt;&lt;p style=&quot;margin: 0px 0px 0px 8px;&quot;&gt;designBuilding = false&lt;/p&gt;&lt;p style=&quot;margin: 0px 0px 0px 8px;&quot;&gt;designSquare = true&lt;/p&gt;&lt;p style=&quot;margin: 0px 0px 0px 8px;&quot;&gt;&lt;span style=&quot;color: rgb(51, 51, 51); background-color: initial;&quot;&gt;fk_subsurfaceprop = g&lt;/span&gt;&lt;span style=&quot;background-color: initial;&quot;&gt;&lt;font color=&quot;#333333&quot;&gt;roundwater&lt;/font&gt;&lt;/span&gt;&lt;/p&gt;&lt;p style=&quot;margin: 0px 0px 0px 8px;&quot;&gt;&lt;font style=&quot;background-color: initial;&quot; color=&quot;#333333&quot;&gt;fk_localstandard =&amp;nbsp;&lt;/font&gt;&lt;span style=&quot;background-color: initial;&quot;&gt;&lt;font color=&quot;#333333&quot;&gt;N1, V1&amp;nbsp;&lt;/font&gt;&lt;/span&gt;&lt;/p&gt;" style="verticalAlign=top;align=left;overflow=fill;fontSize=12;fontFamily=Helvetica;html=1;whiteSpace=wrap;fillColor=#FFE599;" vertex="1" parent="1">
          <mxGeometry x="-946" y="-720" width="211" height="201" as="geometry" />
        </mxCell>
        <mxCell id="yZVawXG9rOg48xsu62Gb-10" value="&lt;p style=&quot;margin: 4px 0px 0px; text-align: center;&quot;&gt;&lt;b style=&quot;background-color: initial;&quot;&gt;Light Color Materials&lt;/b&gt;&lt;br&gt;&lt;/p&gt;&lt;hr&gt;&lt;p style=&quot;margin: 0px 0px 0px 8px;&quot;&gt;name = lightColorMaterial&lt;/p&gt;&lt;p style=&quot;margin: 0px 0px 0px 8px;&quot;&gt;adaptation = heat&lt;/p&gt;&lt;p style=&quot;margin: 0px 0px 0px 8px;&quot;&gt;source = RVO&lt;/p&gt;&lt;p style=&quot;margin: 0px 0px 0px 8px;&quot;&gt;&lt;span style=&quot;background-color: initial;&quot;&gt;designStreet = true&lt;/span&gt;&lt;br&gt;&lt;/p&gt;&lt;p style=&quot;margin: 0px 0px 0px 8px;&quot;&gt;designBuilding = true&lt;/p&gt;&lt;p style=&quot;margin: 0px 0px 0px 8px;&quot;&gt;designSquare = true&lt;/p&gt;&lt;p style=&quot;margin: 0px 0px 0px 8px;&quot;&gt;&lt;span style=&quot;color: rgb(51, 51, 51); background-color: initial;&quot;&gt;fk_subsurfaceprop = NULL&lt;/span&gt;&lt;/p&gt;&lt;p style=&quot;margin: 0px 0px 0px 8px;&quot;&gt;&lt;font style=&quot;background-color: initial;&quot; color=&quot;#333333&quot;&gt;fk_localstandard =&amp;nbsp;&lt;/font&gt;&lt;span style=&quot;background-color: initial;&quot;&gt;&lt;font color=&quot;#333333&quot;&gt;H3, H4&lt;/font&gt;&lt;/span&gt;&lt;/p&gt;" style="verticalAlign=top;align=left;overflow=fill;fontSize=12;fontFamily=Helvetica;html=1;whiteSpace=wrap;fillColor=#CCCCFF;" vertex="1" parent="1">
          <mxGeometry x="-718" y="-720" width="211" height="201" as="geometry" />
        </mxCell>
        <mxCell id="yZVawXG9rOg48xsu62Gb-11" value="&lt;p style=&quot;margin: 4px 0px 0px; text-align: center;&quot;&gt;&lt;b style=&quot;background-color: initial;&quot;&gt;Blinds&lt;/b&gt;&lt;br&gt;&lt;/p&gt;&lt;hr&gt;&lt;p style=&quot;margin: 0px 0px 0px 8px;&quot;&gt;name = lightColorMaterial&lt;/p&gt;&lt;p style=&quot;margin: 0px 0px 0px 8px;&quot;&gt;adaptation = heat&lt;/p&gt;&lt;p style=&quot;margin: 0px 0px 0px 8px;&quot;&gt;source = RVO&lt;/p&gt;&lt;p style=&quot;margin: 0px 0px 0px 8px;&quot;&gt;&lt;span style=&quot;background-color: initial;&quot;&gt;designStreet = false&lt;/span&gt;&lt;br&gt;&lt;/p&gt;&lt;p style=&quot;margin: 0px 0px 0px 8px;&quot;&gt;designBuilding = true&lt;/p&gt;&lt;p style=&quot;margin: 0px 0px 0px 8px;&quot;&gt;designSquare = false&lt;/p&gt;&lt;p style=&quot;margin: 0px 0px 0px 8px;&quot;&gt;&lt;span style=&quot;color: rgb(51, 51, 51); background-color: initial;&quot;&gt;fk_subsurfaceprop = NULL&lt;/span&gt;&lt;/p&gt;&lt;p style=&quot;margin: 0px 0px 0px 8px;&quot;&gt;&lt;font style=&quot;background-color: initial;&quot; color=&quot;#333333&quot;&gt;fk_localstandard =&amp;nbsp;&lt;/font&gt;&lt;span style=&quot;background-color: initial;&quot;&gt;&lt;font color=&quot;#333333&quot;&gt;H4&lt;/font&gt;&lt;/span&gt;&lt;/p&gt;" style="verticalAlign=top;align=left;overflow=fill;fontSize=12;fontFamily=Helvetica;html=1;whiteSpace=wrap;fillColor=#C3ABD0;" vertex="1" parent="1">
          <mxGeometry x="-490" y="-720" width="211" height="201" as="geometry" />
        </mxCell>
        <mxCell id="yZVawXG9rOg48xsu62Gb-12" value="&lt;p style=&quot;margin: 4px 0px 0px; text-align: center;&quot;&gt;&lt;b&gt;Cool Places&lt;/b&gt;&lt;/p&gt;&lt;hr&gt;&lt;p style=&quot;margin: 0px 0px 0px 8px;&quot;&gt;name = coolPlaces&lt;/p&gt;&lt;p style=&quot;margin: 0px 0px 0px 8px;&quot;&gt;adaptation = biodiversity, heat&lt;/p&gt;&lt;p style=&quot;margin: 0px 0px 0px 8px;&quot;&gt;source = RVO&lt;/p&gt;&lt;p style=&quot;margin: 0px 0px 0px 8px;&quot;&gt;&lt;span style=&quot;background-color: initial;&quot;&gt;designStreet = false&lt;/span&gt;&lt;br&gt;&lt;/p&gt;&lt;p style=&quot;margin: 0px 0px 0px 8px;&quot;&gt;designBuilding = true&lt;/p&gt;&lt;p style=&quot;margin: 0px 0px 0px 8px;&quot;&gt;designSquare = true&lt;/p&gt;&lt;p style=&quot;margin: 0px 0px 0px 8px;&quot;&gt;&lt;span style=&quot;color: rgb(51, 51, 51); background-color: initial;&quot;&gt;fk_subsurfaceprop =&amp;nbsp;&lt;/span&gt;&lt;span style=&quot;background-color: initial;&quot;&gt;&lt;font color=&quot;#333333&quot;&gt;Congestion&amp;nbsp;&lt;/font&gt;&lt;/span&gt;&lt;/p&gt;&lt;p style=&quot;margin: 0px 0px 0px 8px;&quot;&gt;&lt;font style=&quot;background-color: initial;&quot; color=&quot;#333333&quot;&gt;fk_localstandard =&amp;nbsp;&lt;/font&gt;&lt;span style=&quot;background-color: initial;&quot;&gt;&lt;font color=&quot;#333333&quot;&gt;H1, H2&lt;/font&gt;&lt;/span&gt;&lt;/p&gt;" style="verticalAlign=top;align=left;overflow=fill;fontSize=12;fontFamily=Helvetica;html=1;whiteSpace=wrap;fillColor=#F19C99;" vertex="1" parent="1">
          <mxGeometry x="-262" y="-722" width="211" height="201" as="geometry" />
        </mxCell>
        <mxCell id="yZVawXG9rOg48xsu62Gb-13" value="&lt;p style=&quot;margin: 4px 0px 0px; text-align: center;&quot;&gt;&lt;b&gt;Shadow Routes&lt;/b&gt;&lt;/p&gt;&lt;hr&gt;&lt;p style=&quot;margin: 0px 0px 0px 8px;&quot;&gt;name = shadowRoutes&lt;/p&gt;&lt;p style=&quot;margin: 0px 0px 0px 8px;&quot;&gt;adaptation = biodiversity, heat&lt;/p&gt;&lt;p style=&quot;margin: 0px 0px 0px 8px;&quot;&gt;source = RVO&lt;/p&gt;&lt;p style=&quot;margin: 0px 0px 0px 8px;&quot;&gt;&lt;span style=&quot;background-color: initial;&quot;&gt;designStreet = true&lt;/span&gt;&lt;br&gt;&lt;/p&gt;&lt;p style=&quot;margin: 0px 0px 0px 8px;&quot;&gt;designBuilding = false&lt;/p&gt;&lt;p style=&quot;margin: 0px 0px 0px 8px;&quot;&gt;designSquare = true&lt;/p&gt;&lt;p style=&quot;margin: 0px 0px 0px 8px;&quot;&gt;&lt;span style=&quot;color: rgb(51, 51, 51); background-color: initial;&quot;&gt;fk_subsurfaceprop =&amp;nbsp;&lt;/span&gt;&lt;span style=&quot;background-color: initial;&quot;&gt;&lt;font color=&quot;#333333&quot;&gt;Congestion&amp;nbsp;&lt;/font&gt;&lt;/span&gt;&lt;/p&gt;&lt;p style=&quot;margin: 0px 0px 0px 8px;&quot;&gt;&lt;font style=&quot;background-color: initial;&quot; color=&quot;#333333&quot;&gt;fk_localstandard =&amp;nbsp;&lt;/font&gt;&lt;span style=&quot;background-color: initial;&quot;&gt;&lt;font color=&quot;#333333&quot;&gt;H1, H2&lt;/font&gt;&lt;/span&gt;&lt;/p&gt;" style="verticalAlign=top;align=left;overflow=fill;fontSize=12;fontFamily=Helvetica;html=1;whiteSpace=wrap;fillColor=#F19C99;" vertex="1" parent="1">
          <mxGeometry x="-34" y="-722" width="211" height="201" as="geometry" />
        </mxCell>
        <mxCell id="yZVawXG9rOg48xsu62Gb-15" value="&lt;p style=&quot;margin: 4px 0px 0px; text-align: center;&quot;&gt;&lt;span style=&quot;font-size: 12px;&quot;&gt;&lt;b&gt;&lt;u&gt;Natural Playground&lt;/u&gt;&lt;/b&gt;&lt;/span&gt;&lt;br&gt;&lt;/p&gt;&lt;hr&gt;&lt;p style=&quot;margin: 0px 0px 0px 8px;&quot;&gt;name = naturalPlayground&lt;/p&gt;&lt;p style=&quot;margin: 0px 0px 0px 8px;&quot;&gt;&lt;span style=&quot;background-color: initial;&quot;&gt;adaptation = b&lt;/span&gt;&lt;span style=&quot;background-color: initial;&quot;&gt;iodiversity, waterlogging, drought&lt;/span&gt;&lt;/p&gt;&lt;p style=&quot;margin: 0px 0px 0px 8px;&quot;&gt;source = RVO&lt;/p&gt;&lt;p style=&quot;margin: 0px 0px 0px 8px;&quot;&gt;&lt;span style=&quot;background-color: initial;&quot;&gt;design&lt;/span&gt;&lt;span style=&quot;background-color: initial;&quot;&gt;Street = false&lt;/span&gt;&lt;br&gt;&lt;/p&gt;&lt;p style=&quot;margin: 0px 0px 0px 8px;&quot;&gt;&lt;span style=&quot;background-color: initial;&quot;&gt;design&lt;/span&gt;Building = false&lt;/p&gt;&lt;p style=&quot;margin: 0px 0px 0px 8px;&quot;&gt;&lt;span style=&quot;background-color: initial;&quot;&gt;design&lt;/span&gt;Square = true&lt;/p&gt;&lt;p style=&quot;margin: 0px 0px 0px 8px;&quot;&gt;&lt;span style=&quot;color: rgb(51, 51, 51); background-color: initial;&quot;&gt;fk_subsurfaceprop = &lt;/span&gt;&lt;span style=&quot;background-color: initial; font-size: 12px;&quot;&gt;&lt;font color=&quot;#333333&quot;&gt;congestion, soil type&lt;/font&gt;&lt;/span&gt;&lt;/p&gt;&lt;p style=&quot;color: rgb(51, 51, 51); margin: 0px 0px 0px 4px;&quot;&gt;&amp;nbsp;fk_localstandard =&amp;nbsp;B1, B2, B3, H1, H2&lt;/p&gt;" style="verticalAlign=top;align=left;overflow=fill;fontSize=12;fontFamily=Helvetica;html=1;whiteSpace=wrap;fillColor=#9AC7BF;" vertex="1" parent="1">
          <mxGeometry x="194" y="-722" width="211" height="201" as="geometry" />
        </mxCell>
        <mxCell id="yZVawXG9rOg48xsu62Gb-17" value="&lt;p style=&quot;margin: 4px 0px 0px; text-align: center;&quot;&gt;&lt;span style=&quot;font-size: 12px;&quot;&gt;&lt;b&gt;&lt;u&gt;Wadis&lt;/u&gt;&lt;/b&gt;&lt;/span&gt;&lt;br&gt;&lt;/p&gt;&lt;hr&gt;&lt;p style=&quot;margin: 0px 0px 0px 8px;&quot;&gt;name = wadis&lt;/p&gt;&lt;p style=&quot;margin: 0px 0px 0px 8px;&quot;&gt;&lt;span style=&quot;background-color: initial;&quot;&gt;adaptation = b&lt;/span&gt;&lt;span style=&quot;background-color: initial;&quot;&gt;iodiversity, waterlogging, drought&lt;/span&gt;&lt;/p&gt;&lt;p style=&quot;margin: 0px 0px 0px 8px;&quot;&gt;source = RVO&lt;/p&gt;&lt;p style=&quot;margin: 0px 0px 0px 8px;&quot;&gt;&lt;span style=&quot;background-color: initial;&quot;&gt;design&lt;/span&gt;&lt;span style=&quot;background-color: initial;&quot;&gt;Street = true&lt;/span&gt;&lt;br&gt;&lt;/p&gt;&lt;p style=&quot;margin: 0px 0px 0px 8px;&quot;&gt;&lt;span style=&quot;background-color: initial;&quot;&gt;design&lt;/span&gt;Building = false&lt;/p&gt;&lt;p style=&quot;margin: 0px 0px 0px 8px;&quot;&gt;&lt;span style=&quot;background-color: initial;&quot;&gt;design&lt;/span&gt;Square = false&lt;/p&gt;&lt;p style=&quot;margin: 0px 0px 0px 8px;&quot;&gt;&lt;span style=&quot;color: rgb(51, 51, 51); background-color: initial;&quot;&gt;fk_subsurfaceprop = &lt;/span&gt;&lt;span style=&quot;background-color: initial; font-size: 12px;&quot;&gt;&lt;font color=&quot;#333333&quot;&gt;soil type, groundwater&lt;/font&gt;&lt;/span&gt;&lt;/p&gt;&lt;p style=&quot;color: rgb(51, 51, 51); margin: 0px 0px 0px 4px;&quot;&gt;&amp;nbsp;fk_localstandard =&amp;nbsp;B1, B2, B3, N1, N2, N3, D1, D2&lt;/p&gt;" style="verticalAlign=top;align=left;overflow=fill;fontSize=12;fontFamily=Helvetica;html=1;whiteSpace=wrap;fillColor=#7EA6E0;" vertex="1" parent="1">
          <mxGeometry x="422" y="-722" width="211" height="201" as="geometry" />
        </mxCell>
        <mxCell id="yZVawXG9rOg48xsu62Gb-19" value="&lt;p style=&quot;margin: 4px 0px 0px; text-align: center;&quot;&gt;&lt;span style=&quot;font-size: 12px;&quot;&gt;&lt;b&gt;&lt;u&gt;Surface Water&lt;/u&gt;&lt;/b&gt;&lt;/span&gt;&lt;br&gt;&lt;/p&gt;&lt;hr&gt;&lt;p style=&quot;margin: 0px 0px 0px 8px;&quot;&gt;name = surfaceWater&lt;/p&gt;&lt;p style=&quot;margin: 0px 0px 0px 8px;&quot;&gt;&lt;span style=&quot;background-color: initial;&quot;&gt;adaptation = b&lt;/span&gt;&lt;span style=&quot;background-color: initial;&quot;&gt;iodiversity, waterlogging&lt;/span&gt;&lt;/p&gt;&lt;p style=&quot;margin: 0px 0px 0px 8px;&quot;&gt;source = RVO&lt;/p&gt;&lt;p style=&quot;margin: 0px 0px 0px 8px;&quot;&gt;&lt;span style=&quot;background-color: initial;&quot;&gt;design&lt;/span&gt;&lt;span style=&quot;background-color: initial;&quot;&gt;Street = true&lt;/span&gt;&lt;br&gt;&lt;/p&gt;&lt;p style=&quot;margin: 0px 0px 0px 8px;&quot;&gt;&lt;span style=&quot;background-color: initial;&quot;&gt;design&lt;/span&gt;Building = false&lt;/p&gt;&lt;p style=&quot;margin: 0px 0px 0px 8px;&quot;&gt;&lt;span style=&quot;background-color: initial;&quot;&gt;design&lt;/span&gt;Square = true&lt;/p&gt;&lt;p style=&quot;margin: 0px 0px 0px 8px;&quot;&gt;&lt;span style=&quot;color: rgb(51, 51, 51); background-color: initial;&quot;&gt;fk_subsurfaceprop = &lt;/span&gt;&lt;span style=&quot;background-color: initial; font-size: 12px;&quot;&gt;&lt;font color=&quot;#333333&quot;&gt;congestion, groundwater&lt;/font&gt;&lt;/span&gt;&lt;/p&gt;&lt;p style=&quot;color: rgb(51, 51, 51); margin: 0px 0px 0px 4px;&quot;&gt;&amp;nbsp;fk_localstandard =&amp;nbsp;B3, N1, N2, N3&lt;/p&gt;" style="verticalAlign=top;align=left;overflow=fill;fontSize=12;fontFamily=Helvetica;html=1;whiteSpace=wrap;fillColor=#7EA6E0;" vertex="1" parent="1">
          <mxGeometry x="650" y="-722" width="211" height="201" as="geometry" />
        </mxCell>
        <mxCell id="yZVawXG9rOg48xsu62Gb-21" value="&lt;p style=&quot;margin: 4px 0px 0px; text-align: center;&quot;&gt;&lt;b&gt;Infiltration Crates&lt;/b&gt;&lt;/p&gt;&lt;hr&gt;&lt;p style=&quot;margin: 0px 0px 0px 8px;&quot;&gt;name = infiltrationCrates&lt;/p&gt;&lt;p style=&quot;margin: 0px 0px 0px 8px;&quot;&gt;adaptation = waterlogging, drought&lt;/p&gt;&lt;p style=&quot;margin: 0px 0px 0px 8px;&quot;&gt;source = RVO&lt;/p&gt;&lt;p style=&quot;margin: 0px 0px 0px 8px;&quot;&gt;&lt;span style=&quot;background-color: initial;&quot;&gt;designStreet = true&lt;/span&gt;&lt;br&gt;&lt;/p&gt;&lt;p style=&quot;margin: 0px 0px 0px 8px;&quot;&gt;designBuilding = true&lt;/p&gt;&lt;p style=&quot;margin: 0px 0px 0px 8px;&quot;&gt;designSquare = true&lt;/p&gt;&lt;p style=&quot;margin: 0px 0px 0px 8px;&quot;&gt;&lt;span style=&quot;color: rgb(51, 51, 51); background-color: initial;&quot;&gt;fk_subsurfaceprop =&amp;nbsp;&lt;/span&gt;&lt;span style=&quot;background-color: initial;&quot;&gt;&lt;font color=&quot;#333333&quot;&gt;&amp;nbsp;g&lt;/font&gt;&lt;/span&gt;&lt;span style=&quot;background-color: initial;&quot;&gt;&lt;font color=&quot;#333333&quot;&gt;roundwater level, soil type, congestion&lt;/font&gt;&lt;/span&gt;&lt;/p&gt;&lt;p style=&quot;margin: 0px 0px 0px 8px;&quot;&gt;&lt;font style=&quot;background-color: initial;&quot; color=&quot;#333333&quot;&gt;fk_localstandard =&amp;nbsp;&lt;/font&gt;&lt;span style=&quot;background-color: initial;&quot;&gt;&lt;font color=&quot;#333333&quot;&gt;N1, N2, N3, D1, D2&lt;/font&gt;&lt;/span&gt;&lt;/p&gt;" style="verticalAlign=top;align=left;overflow=fill;fontSize=12;fontFamily=Helvetica;html=1;whiteSpace=wrap;fillColor=#F19C99;" vertex="1" parent="1">
          <mxGeometry x="878" y="-722" width="211" height="201" as="geometry" />
        </mxCell>
        <mxCell id="yZVawXG9rOg48xsu62Gb-22" value="&lt;p style=&quot;margin: 4px 0px 0px; text-align: center;&quot;&gt;&lt;b&gt;Water Storage Building&lt;/b&gt;&lt;/p&gt;&lt;hr&gt;&lt;p style=&quot;margin: 0px 0px 0px 8px;&quot;&gt;name = waterStorageBuilding&lt;/p&gt;&lt;p style=&quot;margin: 0px 0px 0px 8px;&quot;&gt;adaptation = waterlogging&lt;/p&gt;&lt;p style=&quot;margin: 0px 0px 0px 8px;&quot;&gt;source = RVO&lt;/p&gt;&lt;p style=&quot;margin: 0px 0px 0px 8px;&quot;&gt;&lt;span style=&quot;background-color: initial;&quot;&gt;designStreet = false&lt;/span&gt;&lt;br&gt;&lt;/p&gt;&lt;p style=&quot;margin: 0px 0px 0px 8px;&quot;&gt;designBuilding = true&lt;/p&gt;&lt;p style=&quot;margin: 0px 0px 0px 8px;&quot;&gt;designSquare = false&lt;/p&gt;&lt;p style=&quot;margin: 0px 0px 0px 8px;&quot;&gt;&lt;span style=&quot;color: rgb(51, 51, 51); background-color: initial;&quot;&gt;fk_subsurfaceprop =&amp;nbsp;&lt;/span&gt;&lt;span style=&quot;background-color: initial;&quot;&gt;&lt;font color=&quot;#333333&quot;&gt;&amp;nbsp;&lt;/font&gt;&lt;/span&gt;&lt;span style=&quot;background-color: initial;&quot;&gt;&lt;font color=&quot;#333333&quot;&gt;congestion&lt;/font&gt;&lt;/span&gt;&lt;/p&gt;&lt;p style=&quot;margin: 0px 0px 0px 8px;&quot;&gt;&lt;font style=&quot;background-color: initial;&quot; color=&quot;#333333&quot;&gt;fk_localstandard =&amp;nbsp;&lt;/font&gt;&lt;span style=&quot;background-color: initial;&quot;&gt;&lt;font color=&quot;#333333&quot;&gt;N1, N2&lt;/font&gt;&lt;/span&gt;&lt;/p&gt;" style="verticalAlign=top;align=left;overflow=fill;fontSize=12;fontFamily=Helvetica;html=1;whiteSpace=wrap;fillColor=#F19C99;" vertex="1" parent="1">
          <mxGeometry x="1106" y="-722" width="211" height="201" as="geometry" />
        </mxCell>
        <mxCell id="yZVawXG9rOg48xsu62Gb-23" value="&lt;p style=&quot;margin: 4px 0px 0px; text-align: center;&quot;&gt;&lt;b&gt;Water Square&lt;/b&gt;&lt;/p&gt;&lt;hr&gt;&lt;p style=&quot;margin: 0px 0px 0px 8px;&quot;&gt;name = waterSquare&lt;/p&gt;&lt;p style=&quot;margin: 0px 0px 0px 8px;&quot;&gt;adaptation = waterlogging, flood&lt;/p&gt;&lt;p style=&quot;margin: 0px 0px 0px 8px;&quot;&gt;source = RVO&lt;/p&gt;&lt;p style=&quot;margin: 0px 0px 0px 8px;&quot;&gt;&lt;span style=&quot;background-color: initial;&quot;&gt;designStreet = false&lt;/span&gt;&lt;br&gt;&lt;/p&gt;&lt;p style=&quot;margin: 0px 0px 0px 8px;&quot;&gt;designBuilding = false&lt;/p&gt;&lt;p style=&quot;margin: 0px 0px 0px 8px;&quot;&gt;designSquare = true&lt;/p&gt;&lt;p style=&quot;margin: 0px 0px 0px 8px;&quot;&gt;&lt;span style=&quot;color: rgb(51, 51, 51); background-color: initial;&quot;&gt;fk_subsurfaceprop =&amp;nbsp;&lt;/span&gt;&lt;span style=&quot;background-color: initial;&quot;&gt;&lt;font color=&quot;#333333&quot;&gt;&amp;nbsp;&lt;/font&gt;&lt;/span&gt;&lt;span style=&quot;background-color: initial;&quot;&gt;&lt;font color=&quot;#333333&quot;&gt;congestion, groundwater&lt;/font&gt;&lt;/span&gt;&lt;/p&gt;&lt;p style=&quot;margin: 0px 0px 0px 8px;&quot;&gt;&lt;font style=&quot;background-color: initial;&quot; color=&quot;#333333&quot;&gt;fk_localstandard =&amp;nbsp;&lt;/font&gt;&lt;span style=&quot;background-color: initial;&quot;&gt;&lt;font color=&quot;#333333&quot;&gt;N1, N2, V1&lt;/font&gt;&lt;/span&gt;&lt;/p&gt;" style="verticalAlign=top;align=left;overflow=fill;fontSize=12;fontFamily=Helvetica;html=1;whiteSpace=wrap;fillColor=#F19C99;" vertex="1" parent="1">
          <mxGeometry x="1334" y="-720" width="211" height="201" as="geometry" />
        </mxCell>
        <mxCell id="yZVawXG9rOg48xsu62Gb-24" value="&lt;p style=&quot;margin: 4px 0px 0px; text-align: center;&quot;&gt;&lt;span style=&quot;font-size: 12px;&quot;&gt;&lt;b&gt;&lt;u&gt;Rural Waterways&lt;/u&gt;&lt;/b&gt;&lt;/span&gt;&lt;br&gt;&lt;/p&gt;&lt;hr&gt;&lt;p style=&quot;margin: 0px 0px 0px 8px;&quot;&gt;name = ruralWaterways&lt;/p&gt;&lt;p style=&quot;margin: 0px 0px 0px 8px;&quot;&gt;&lt;span style=&quot;background-color: initial;&quot;&gt;adaptation =&amp;nbsp;&lt;/span&gt;&lt;span style=&quot;background-color: initial;&quot;&gt;waterlogging, flood&lt;/span&gt;&lt;/p&gt;&lt;p style=&quot;margin: 0px 0px 0px 8px;&quot;&gt;source = RVO&lt;/p&gt;&lt;p style=&quot;margin: 0px 0px 0px 8px;&quot;&gt;&lt;span style=&quot;background-color: initial;&quot;&gt;design&lt;/span&gt;&lt;span style=&quot;background-color: initial;&quot;&gt;Street = true&lt;/span&gt;&lt;br&gt;&lt;/p&gt;&lt;p style=&quot;margin: 0px 0px 0px 8px;&quot;&gt;&lt;span style=&quot;background-color: initial;&quot;&gt;design&lt;/span&gt;Building = false&lt;/p&gt;&lt;p style=&quot;margin: 0px 0px 0px 8px;&quot;&gt;&lt;span style=&quot;background-color: initial;&quot;&gt;design&lt;/span&gt;Square = true&lt;/p&gt;&lt;p style=&quot;margin: 0px 0px 0px 8px;&quot;&gt;&lt;span style=&quot;color: rgb(51, 51, 51); background-color: initial;&quot;&gt;fk_subsurfaceprop =&lt;/span&gt;&lt;span style=&quot;background-color: initial; font-size: 12px;&quot;&gt;&lt;font color=&quot;#333333&quot;&gt;&amp;nbsp;groundwater&lt;/font&gt;&lt;/span&gt;&lt;/p&gt;&lt;p style=&quot;color: rgb(51, 51, 51); margin: 0px 0px 0px 4px;&quot;&gt;&amp;nbsp;fk_localstandard =&amp;nbsp;NULL&lt;/p&gt;" style="verticalAlign=top;align=left;overflow=fill;fontSize=12;fontFamily=Helvetica;html=1;whiteSpace=wrap;fillColor=#7EA6E0;" vertex="1" parent="1">
          <mxGeometry x="1562" y="-722" width="211" height="201" as="geometry" />
        </mxCell>
        <mxCell id="yZVawXG9rOg48xsu62Gb-25" value="&lt;p style=&quot;margin: 4px 0px 0px; text-align: center;&quot;&gt;&lt;span style=&quot;font-size: 12px;&quot;&gt;&lt;b&gt;&lt;u&gt;Water Roof&lt;/u&gt;&lt;/b&gt;&lt;/span&gt;&lt;br&gt;&lt;/p&gt;&lt;hr&gt;&lt;p style=&quot;margin: 0px 0px 0px 8px;&quot;&gt;name = ruralWaterways&lt;/p&gt;&lt;p style=&quot;margin: 0px 0px 0px 8px;&quot;&gt;&lt;span style=&quot;background-color: initial;&quot;&gt;adaptation =&amp;nbsp;&lt;/span&gt;&lt;span style=&quot;background-color: initial;&quot;&gt;waterlogging&lt;/span&gt;&lt;/p&gt;&lt;p style=&quot;margin: 0px 0px 0px 8px;&quot;&gt;source = RVO&lt;/p&gt;&lt;p style=&quot;margin: 0px 0px 0px 8px;&quot;&gt;&lt;span style=&quot;background-color: initial;&quot;&gt;design&lt;/span&gt;&lt;span style=&quot;background-color: initial;&quot;&gt;Street = false&lt;/span&gt;&lt;br&gt;&lt;/p&gt;&lt;p style=&quot;margin: 0px 0px 0px 8px;&quot;&gt;&lt;span style=&quot;background-color: initial;&quot;&gt;design&lt;/span&gt;Building = true&lt;/p&gt;&lt;p style=&quot;margin: 0px 0px 0px 8px;&quot;&gt;&lt;span style=&quot;background-color: initial;&quot;&gt;design&lt;/span&gt;Square = true&lt;/p&gt;&lt;p style=&quot;margin: 0px 0px 0px 8px;&quot;&gt;&lt;span style=&quot;color: rgb(51, 51, 51); background-color: initial;&quot;&gt;fk_subsurfaceprop =&lt;/span&gt;&lt;span style=&quot;background-color: initial; font-size: 12px;&quot;&gt;&lt;font color=&quot;#333333&quot;&gt;&amp;nbsp;NULL&lt;/font&gt;&lt;/span&gt;&lt;/p&gt;&lt;p style=&quot;color: rgb(51, 51, 51); margin: 0px 0px 0px 4px;&quot;&gt;&amp;nbsp;fk_localstandard =&amp;nbsp;N1, N2&lt;/p&gt;" style="verticalAlign=top;align=left;overflow=fill;fontSize=12;fontFamily=Helvetica;html=1;whiteSpace=wrap;fillColor=#7EA6E0;" vertex="1" parent="1">
          <mxGeometry x="1790" y="-724" width="211" height="201" as="geometry" />
        </mxCell>
        <mxCell id="yZVawXG9rOg48xsu62Gb-26" value="&lt;p style=&quot;margin: 4px 0px 0px; text-align: center;&quot;&gt;&lt;b&gt;Ground Level Elevation&lt;/b&gt;&lt;br&gt;&lt;/p&gt;&lt;hr&gt;&lt;p style=&quot;margin: 0px 0px 0px 8px;&quot;&gt;name = groundElevation&lt;/p&gt;&lt;p style=&quot;margin: 0px 0px 0px 8px;&quot;&gt;adaptation = flood&lt;/p&gt;&lt;p style=&quot;margin: 0px 0px 0px 8px;&quot;&gt;source = RVO&lt;/p&gt;&lt;p style=&quot;margin: 0px 0px 0px 8px;&quot;&gt;&lt;span style=&quot;background-color: initial;&quot;&gt;designStreet = true&lt;/span&gt;&lt;br&gt;&lt;/p&gt;&lt;p style=&quot;margin: 0px 0px 0px 8px;&quot;&gt;designBuilding = false&lt;/p&gt;&lt;p style=&quot;margin: 0px 0px 0px 8px;&quot;&gt;designSquare = true&lt;/p&gt;&lt;p style=&quot;margin: 0px 0px 0px 8px;&quot;&gt;&lt;span style=&quot;color: rgb(51, 51, 51); background-color: initial;&quot;&gt;fk_subsurfaceprop = g&lt;/span&gt;&lt;span style=&quot;background-color: initial;&quot;&gt;&lt;font color=&quot;#333333&quot;&gt;eomechanics, soil type&lt;/font&gt;&lt;/span&gt;&lt;/p&gt;&lt;p style=&quot;margin: 0px 0px 0px 8px;&quot;&gt;&lt;font style=&quot;background-color: initial;&quot; color=&quot;#333333&quot;&gt;fk_localstandard =&amp;nbsp;&lt;/font&gt;&lt;span style=&quot;background-color: initial;&quot;&gt;&lt;font color=&quot;#333333&quot;&gt;V1, V2, V3, V4&lt;/font&gt;&lt;/span&gt;&lt;/p&gt;" style="verticalAlign=top;align=left;overflow=fill;fontSize=12;fontFamily=Helvetica;html=1;whiteSpace=wrap;fillColor=#FFE599;" vertex="1" parent="1">
          <mxGeometry x="2018" y="-724" width="211" height="201" as="geometry" />
        </mxCell>
        <mxCell id="yZVawXG9rOg48xsu62Gb-28" value="&lt;p style=&quot;margin: 4px 0px 0px; text-align: center;&quot;&gt;&lt;b&gt;Soil Structure Improvement&lt;/b&gt;&lt;/p&gt;&lt;hr&gt;&lt;p style=&quot;margin: 0px 0px 0px 8px;&quot;&gt;name = soilImprovement&lt;/p&gt;&lt;p style=&quot;margin: 0px 0px 0px 8px;&quot;&gt;adaptation = biodiversity waterlogging, drought&lt;/p&gt;&lt;p style=&quot;margin: 0px 0px 0px 8px;&quot;&gt;source = RVO&lt;/p&gt;&lt;p style=&quot;margin: 0px 0px 0px 8px;&quot;&gt;&lt;span style=&quot;background-color: initial;&quot;&gt;designStreet = true&lt;/span&gt;&lt;br&gt;&lt;/p&gt;&lt;p style=&quot;margin: 0px 0px 0px 8px;&quot;&gt;designBuilding = false&lt;/p&gt;&lt;p style=&quot;margin: 0px 0px 0px 8px;&quot;&gt;designSquare = true&lt;/p&gt;&lt;p style=&quot;margin: 0px 0px 0px 8px;&quot;&gt;&lt;span style=&quot;color: rgb(51, 51, 51); background-color: initial;&quot;&gt;fk_subsurfaceprop =&amp;nbsp;&lt;/span&gt;&lt;span style=&quot;background-color: initial;&quot;&gt;&lt;font color=&quot;#333333&quot;&gt;&amp;nbsp;s&lt;/font&gt;&lt;/span&gt;&lt;span style=&quot;background-color: initial;&quot;&gt;&lt;font color=&quot;#333333&quot;&gt;oil type&lt;/font&gt;&lt;/span&gt;&lt;/p&gt;&lt;p style=&quot;margin: 0px 0px 0px 8px;&quot;&gt;&lt;font style=&quot;background-color: initial;&quot; color=&quot;#333333&quot;&gt;fk_localstandard =&amp;nbsp;&lt;/font&gt;&lt;span style=&quot;background-color: initial;&quot;&gt;&lt;font color=&quot;#333333&quot;&gt;B3, N1, N2, N3, D1, D2&lt;/font&gt;&lt;/span&gt;&lt;/p&gt;" style="verticalAlign=top;align=left;overflow=fill;fontSize=12;fontFamily=Helvetica;html=1;whiteSpace=wrap;fillColor=#F19C99;" vertex="1" parent="1">
          <mxGeometry x="2246" y="-724" width="211" height="201" as="geometry" />
        </mxCell>
        <mxCell id="yZVawXG9rOg48xsu62Gb-29" value="&lt;p style=&quot;margin: 4px 0px 0px; text-align: center;&quot;&gt;&lt;b&gt;Water Storage (Un)Paved Surface&lt;/b&gt;&lt;br&gt;&lt;/p&gt;&lt;hr&gt;&lt;p style=&quot;margin: 0px 0px 0px 8px;&quot;&gt;name = waterStorageSurface&lt;/p&gt;&lt;p style=&quot;margin: 0px 0px 0px 8px;&quot;&gt;adaptation = waterlogging&lt;/p&gt;&lt;p style=&quot;margin: 0px 0px 0px 8px;&quot;&gt;source = RVO&lt;/p&gt;&lt;p style=&quot;margin: 0px 0px 0px 8px;&quot;&gt;&lt;span style=&quot;background-color: initial;&quot;&gt;designStreet = true&lt;/span&gt;&lt;br&gt;&lt;/p&gt;&lt;p style=&quot;margin: 0px 0px 0px 8px;&quot;&gt;designBuilding = false&lt;/p&gt;&lt;p style=&quot;margin: 0px 0px 0px 8px;&quot;&gt;designSquare = true&lt;/p&gt;&lt;p style=&quot;margin: 0px 0px 0px 8px;&quot;&gt;&lt;span style=&quot;color: rgb(51, 51, 51); background-color: initial;&quot;&gt;fk_subsurfaceprop =&amp;nbsp;&lt;/span&gt;&lt;span style=&quot;background-color: initial;&quot;&gt;&lt;font color=&quot;#333333&quot;&gt;&amp;nbsp;c&lt;/font&gt;&lt;/span&gt;&lt;span style=&quot;background-color: initial;&quot;&gt;&lt;font color=&quot;#333333&quot;&gt;ongestion&lt;/font&gt;&lt;/span&gt;&lt;/p&gt;&lt;p style=&quot;margin: 0px 0px 0px 8px;&quot;&gt;&lt;font style=&quot;background-color: initial;&quot; color=&quot;#333333&quot;&gt;fk_localstandard =&amp;nbsp;&lt;/font&gt;&lt;span style=&quot;background-color: initial;&quot;&gt;&lt;font color=&quot;#333333&quot;&gt;N1, N2&lt;/font&gt;&lt;/span&gt;&lt;/p&gt;" style="verticalAlign=top;align=left;overflow=fill;fontSize=12;fontFamily=Helvetica;html=1;whiteSpace=wrap;fillColor=#F19C99;" vertex="1" parent="1">
          <mxGeometry x="2474" y="-724" width="211" height="201" as="geometry" />
        </mxCell>
        <mxCell id="yZVawXG9rOg48xsu62Gb-37" value="" style="endArrow=classic;startArrow=classic;html=1;rounded=0;exitX=0.5;exitY=0;exitDx=0;exitDy=0;entryX=-0.006;entryY=0.633;entryDx=0;entryDy=0;entryPerimeter=0;edgeStyle=orthogonalEdgeStyle;" edge="1" parent="1" source="0FXop1k1lJmk01pZkUKz-20" target="XrivS-1WhvhdIYvPr3YK-162">
          <mxGeometry width="50" height="50" relative="1" as="geometry">
            <mxPoint x="-242" y="-1424" as="sourcePoint" />
            <mxPoint x="-192" y="-1474" as="targetPoint" />
          </mxGeometry>
        </mxCell>
        <mxCell id="yZVawXG9rOg48xsu62Gb-38" value="" style="endArrow=block;startArrow=block;endFill=1;startFill=1;html=1;rounded=0;exitX=1;exitY=0.5;exitDx=0;exitDy=0;entryX=0;entryY=0.5;entryDx=0;entryDy=0;edgeStyle=orthogonalEdgeStyle;" edge="1" parent="1" source="0FXop1k1lJmk01pZkUKz-20" target="0FXop1k1lJmk01pZkUKz-21">
          <mxGeometry width="160" relative="1" as="geometry">
            <mxPoint x="1414" y="-829" as="sourcePoint" />
            <mxPoint x="1574" y="-829" as="targetPoint" />
          </mxGeometry>
        </mxCell>
        <mxCell id="yZVawXG9rOg48xsu62Gb-39" value="" style="endArrow=block;endSize=16;endFill=0;html=1;rounded=0;exitX=0.5;exitY=0;exitDx=0;exitDy=0;edgeStyle=orthogonalEdgeStyle;entryX=0.5;entryY=1;entryDx=0;entryDy=0;" edge="1" parent="1" source="sMXC-b68p0n0nWKsfzfZ-9" target="0FXop1k1lJmk01pZkUKz-20">
          <mxGeometry width="160" relative="1" as="geometry">
            <mxPoint x="-1421" y="-1051" as="sourcePoint" />
            <mxPoint x="-361" y="-997" as="targetPoint" />
            <Array as="points">
              <mxPoint x="-2881" y="-948" />
              <mxPoint x="-329" y="-948" />
            </Array>
          </mxGeometry>
        </mxCell>
        <mxCell id="yZVawXG9rOg48xsu62Gb-42" value="" style="endArrow=block;endSize=16;endFill=0;html=1;rounded=0;exitX=0.5;exitY=0;exitDx=0;exitDy=0;edgeStyle=orthogonalEdgeStyle;entryX=0.5;entryY=1;entryDx=0;entryDy=0;" edge="1" parent="1" source="yZVawXG9rOg48xsu62Gb-1" target="0FXop1k1lJmk01pZkUKz-20">
          <mxGeometry width="160" relative="1" as="geometry">
            <mxPoint x="-2871" y="-707" as="sourcePoint" />
            <mxPoint x="-296" y="-986" as="targetPoint" />
            <Array as="points">
              <mxPoint x="-2652" y="-717" />
              <mxPoint x="-2652" y="-948" />
              <mxPoint x="-329" y="-948" />
            </Array>
          </mxGeometry>
        </mxCell>
        <mxCell id="yZVawXG9rOg48xsu62Gb-44" value="" style="endArrow=block;endSize=16;endFill=0;html=1;rounded=0;edgeStyle=orthogonalEdgeStyle;exitX=0.5;exitY=0;exitDx=0;exitDy=0;entryX=0.5;entryY=1;entryDx=0;entryDy=0;" edge="1" parent="1" source="yZVawXG9rOg48xsu62Gb-2" target="0FXop1k1lJmk01pZkUKz-20">
          <mxGeometry width="160" relative="1" as="geometry">
            <mxPoint x="-2388" y="-735" as="sourcePoint" />
            <mxPoint x="-293" y="-996" as="targetPoint" />
            <Array as="points">
              <mxPoint x="-2430" y="-718" />
              <mxPoint x="-2430" y="-949" />
              <mxPoint x="-329" y="-949" />
            </Array>
          </mxGeometry>
        </mxCell>
        <mxCell id="yZVawXG9rOg48xsu62Gb-46" value="" style="endArrow=block;endSize=16;endFill=0;html=1;rounded=0;exitX=0.5;exitY=0;exitDx=0;exitDy=0;edgeStyle=orthogonalEdgeStyle;entryX=0.5;entryY=1;entryDx=0;entryDy=0;" edge="1" parent="1" source="yZVawXG9rOg48xsu62Gb-3" target="0FXop1k1lJmk01pZkUKz-20">
          <mxGeometry width="160" relative="1" as="geometry">
            <mxPoint x="-2197" y="-773" as="sourcePoint" />
            <mxPoint x="-271" y="-979" as="targetPoint" />
            <Array as="points">
              <mxPoint x="-2197" y="-718" />
              <mxPoint x="-2197" y="-948" />
              <mxPoint x="-329" y="-948" />
            </Array>
          </mxGeometry>
        </mxCell>
        <mxCell id="yZVawXG9rOg48xsu62Gb-47" value="" style="endArrow=block;endSize=16;endFill=0;html=1;rounded=0;exitX=0.5;exitY=0;exitDx=0;exitDy=0;edgeStyle=orthogonalEdgeStyle;entryX=0.5;entryY=1;entryDx=0;entryDy=0;" edge="1" parent="1">
          <mxGeometry width="160" relative="1" as="geometry">
            <mxPoint x="-1973" y="-718.5" as="sourcePoint" />
            <mxPoint x="579" y="-1007.5" as="targetPoint" />
            <Array as="points">
              <mxPoint x="-1973" y="-949.5" />
              <mxPoint x="579" y="-949.5" />
            </Array>
          </mxGeometry>
        </mxCell>
        <mxCell id="yZVawXG9rOg48xsu62Gb-48" value="" style="endArrow=block;endSize=16;endFill=0;html=1;rounded=0;entryX=0.5;entryY=1;entryDx=0;entryDy=0;exitX=0.5;exitY=0;exitDx=0;exitDy=0;edgeStyle=orthogonalEdgeStyle;" edge="1" parent="1">
          <mxGeometry width="160" relative="1" as="geometry">
            <mxPoint x="-1746" y="-718.5" as="sourcePoint" />
            <mxPoint x="579" y="-1007.5" as="targetPoint" />
            <Array as="points">
              <mxPoint x="-1744" y="-718.5" />
              <mxPoint x="-1744" y="-949.5" />
              <mxPoint x="579" y="-949.5" />
            </Array>
          </mxGeometry>
        </mxCell>
        <mxCell id="yZVawXG9rOg48xsu62Gb-49" value="" style="endArrow=block;endSize=16;endFill=0;html=1;rounded=0;edgeStyle=orthogonalEdgeStyle;exitX=0.5;exitY=0;exitDx=0;exitDy=0;entryX=0.5;entryY=1;entryDx=0;entryDy=0;" edge="1" parent="1" target="0FXop1k1lJmk01pZkUKz-20">
          <mxGeometry width="160" relative="1" as="geometry">
            <mxPoint x="-1518" y="-719.5" as="sourcePoint" />
            <mxPoint x="-343" y="-981" as="targetPoint" />
            <Array as="points">
              <mxPoint x="-1522" y="-719" />
              <mxPoint x="-1522" y="-950" />
              <mxPoint x="-329" y="-950" />
            </Array>
          </mxGeometry>
        </mxCell>
        <mxCell id="yZVawXG9rOg48xsu62Gb-50" value="" style="endArrow=block;endSize=16;endFill=0;html=1;rounded=0;exitX=0.5;exitY=0;exitDx=0;exitDy=0;edgeStyle=orthogonalEdgeStyle;entryX=0.5;entryY=1;entryDx=0;entryDy=0;" edge="1" parent="1" target="0FXop1k1lJmk01pZkUKz-20">
          <mxGeometry width="160" relative="1" as="geometry">
            <mxPoint x="-1290" y="-719.5" as="sourcePoint" />
            <mxPoint x="-376" y="-983" as="targetPoint" />
            <Array as="points">
              <mxPoint x="-1289" y="-719" />
              <mxPoint x="-1289" y="-949" />
              <mxPoint x="-329" y="-949" />
            </Array>
          </mxGeometry>
        </mxCell>
      </root>
    </mxGraphModel>
  </diagram>
</mxfile>
